<?xml version="1.0" standalone="no"?>
<!DOCTYPE svg PUBLIC "-//W3C//DTD SVG 1.1//EN" "http://www.w3.org/Graphics/SVG/1.1/DTD/svg11.dtd" >
<svg xmlns="http://www.w3.org/2000/svg">
<metadata></metadata>
<defs>
<font id="mademoiselle_camilleitalic" horiz-adv-x="593" >
<font-face units-per-em="2048" ascent="1536" descent="-512" />
<missing-glyph horiz-adv-x="219" />
<glyph horiz-adv-x="0" />
<glyph horiz-adv-x="682" />
<glyph unicode=" "  horiz-adv-x="219" />
<glyph unicode="&#x09;" horiz-adv-x="219" />
<glyph unicode="&#xa0;" horiz-adv-x="219" />
<glyph unicode="!" horiz-adv-x="172" d="M35 4q0 6 2 17.5t5 20.5t5 13t2 -2q0 -8 5 -16t9 -19v2q4 -8 8.5 -15t4.5 -13q0 -16 -3 -39t-10 -23q-6 0 -12 10.5t-9 23.5t-5 25.5t-2 14.5zM39 94q2 18 6 88q4 61 11 150.5t18.5 178.5t27 164t37.5 109l13 -14q-10 -10 -17.5 -43t-14.5 -78t-12.5 -96t-9.5 -96 q-4 -49 -11 -100.5t-15 -104.5q-4 -23 -6.5 -44.5t-6.5 -43.5q-4 -16 -4 -28.5v-22.5q0 -6 -1 -10.5t-1 -8.5h-14z" />
<glyph unicode="$" horiz-adv-x="778" d="M8 156q0 59 19.5 114.5t56.5 100.5q59 72 141 95t178 17q29 -4 61 -20.5t52 -40.5q4 -4 7 -11.5t5 -11.5q0 -4 -10 -2t-22.5 6.5t-23.5 9.5t-15 9q-16 29 -46 39t-57 10h-10q-51 0 -82 -8q-35 -10 -66.5 -26.5t-60.5 -53.5q-41 -45 -64.5 -102.5t-23.5 -118.5 q0 -45 14.5 -89t49.5 -81q41 -53 107.5 -82t143.5 -29q68 0 132 23q59 18 109 56t79 97q14 41 14 84q0 47 -13 91t-34 83v-2q-35 59 -85 125t-105 135q-14 14 -29.5 39t-26.5 56q-4 14 -2 30.5t9.5 30.5t18.5 25.5t24 15.5h-2q29 16 71.5 25.5t93.5 9.5q43 0 86 -7t83 -22.5 t71 -37t49 -52.5q0 -4 6 -10q0 -4 4 -12q2 -6 -7 -4t-21.5 8t-24.5 15t-16 15q-20 49 -70.5 61.5t-99.5 16.5h-35q-41 0 -81 -5t-71 -15q-66 -29 -65 -74q0 -18 12.5 -44t34.5 -54q59 -72 110.5 -141.5t86.5 -133.5v2q29 -47 40 -88t11 -80q0 -90 -53.5 -156.5 t-141.5 -105.5q-78 -37 -172 -37q-78 0 -151.5 28t-122.5 85q-35 41 -52.5 92t-17.5 107z" />
<glyph unicode="'" horiz-adv-x="204" d="M167 462q1 3 9 17q10 16 19 43q4 12 6 21.5t6 13.5q8 10 25.5 30.5t21.5 18.5q4 -4 0 -18.5t-12.5 -29.5t-15.5 -27.5t-9 -14.5h4l-20 -20q-10 -10 -17.5 -19.5t-12.5 -13.5t-4 -1z" />
<glyph unicode="*" horiz-adv-x="348" d="M37 651q0 6 22.5 9.5t55.5 7.5q10 2 16 1t16 1q-57 41 -67 82q12 -10 33.5 -26.5t46.5 -37.5q6 35 14 61.5t25 38.5q0 2 -2 -12t-4 -24q-4 -16 -5.5 -31.5t-5.5 -34.5q8 4 15.5 10t17.5 13q10 8 16.5 13t32.5 15l2 -4q-4 -4 -11 -10t-17 -16t-20.5 -18.5t-22.5 -18.5 q31 0 60.5 -5.5t45.5 -17.5h-17.5t-17.5 2q-14 2 -30.5 3t-32.5 1q16 -12 22 -18q14 -14 33 -27l21 -16l-3 -4q-12 2 -36.5 17.5t-59.5 39.5q-2 -6 -2 -13t-2 -16q-4 -23 -8 -45t-10 -39q-4 10 -5 42t3 67q-25 -16 -48.5 -29.5t-41.5 -13.5l-3 4q4 4 13.5 8t19.5 11 q10 6 24.5 14t24.5 18h-36q-12 0 -23.5 -1t-22.5 -1h-26z" />
<glyph unicode="+" horiz-adv-x="471" d="M66 256v12q10 -2 35.5 0t58.5 6q14 2 31.5 3.5t33.5 3.5q10 47 26.5 89t39.5 58l14 -8q-12 -12 -27.5 -55t-23.5 -84q39 0 82 -6.5t59 -18.5l-4 -16q-14 8 -58 12t-85 2q-10 -29 -19.5 -55.5t-15.5 -57.5q-4 -8 -4 -13t-2 -9q0 -2 -1 -4t-1 -4l-10 2q0 8 2 16t3 16.5 t3 18.5q4 18 7 40.5t9 49.5h-23.5t-25.5 2q-18 0 -35.5 1t-36.5 -1h-32z" />
<glyph unicode="," horiz-adv-x="145" d="M19 -72.5q-4 -0.5 4 9.5q4 8 6 17t4 19t5 21.5t7 17.5t12.5 15.5t17.5 17.5t16 13t9 5q8 -4 6 -17t-8 -28.5t-13 -27.5l-7 -13h2q-10 -10 -23.5 -21t-23.5 -19.5t-14 -9z" />
<glyph unicode="-" horiz-adv-x="468" d="M66 256v12h13t21 2q29 4 73 7.5t89 3.5t81 -5.5t52 -19.5l-4 -16q-14 8 -60 13t-91 1h-34t-34 2q-18 0 -36.5 1t-37.5 -1h-32z" />
<glyph unicode="." horiz-adv-x="145" d="M54 -11.5q-1 9.5 1 18.5t5 17l3 7h-2q8 10 25.5 22.5t11.5 3.5v2q-4 -6 -3 -13t3 -13q4 -18 0 -23v2q-4 -10 -17 -22.5t-20 -14.5q-6 4 -7 13.5z" />
<glyph unicode="/" horiz-adv-x="221" d="M10 -37q4 10 13.5 46t23.5 85q20 76 50 177.5t61.5 198.5t66.5 176t66 114l10 -21q-12 -10 -29.5 -47t-36 -89t-37 -111.5t-32.5 -112.5q-12 -43 -28.5 -87t-33.5 -91q-29 -78 -55 -160q-6 -16 -9 -29.5t-7 -23.5q-2 -8 -3 -15.5t-3 -11.5z" />
<glyph unicode="0" horiz-adv-x="598" d="M53 287q0 131 30 226t75 156.5t97 91.5t97 30q31 0 52.5 -14.5t37 -36t23.5 -49t12 -52.5q23 -25 35 -55.5t16 -48.5q0 -2 1 -3.5t1 -3.5q12 -72 13 -137q0 -104 -22.5 -195.5t-60.5 -160t-87 -107.5t-103 -39q-25 0 -61.5 13.5t-71.5 56.5t-59.5 121t-24.5 207zM80 250 q0 -43 7 -102.5t28.5 -113.5t58.5 -92t96 -38q49 0 95 36.5t81 102.5q37 66 58.5 155t21.5 193v12q0 47 -5 101.5t-42 85.5q-4 -29 -14 -69t-33.5 -76.5t-61.5 -62.5t-98 -26q0 2 7.5 9.5t18.5 15.5t21.5 15t16.5 12q29 0 52.5 18t38.5 47t24.5 61.5t11.5 63.5 q-6 6 -13.5 17.5t-14.5 22.5t-12 20.5t-5 13.5q16 0 28 -8q8 -8 10.5 -9.5t4.5 -1.5q-4 20 -12.5 42t-20.5 39.5t-29.5 28.5t-44.5 11q-78 0 -129 -53t-82.5 -133t-46 -171t-16.5 -167z" />
<glyph unicode="1" horiz-adv-x="423" d="M16 594q0 6 13 6q25 0 43 -5t34 -13q10 -4 27 -10.5t31 -6.5q23 0 51.5 7.5t50.5 17.5q10 92 28.5 151.5t49.5 59.5q18 0 26.5 -21.5t8.5 -52.5q0 -47 -18.5 -84t-59.5 -59q-20 -129 -35.5 -271.5t-27.5 -289.5q-4 -29 -4.5 -51.5t-2.5 -39.5q0 -8 -1 -18t-1 -14l-14 2 q2 10 3 42.5t5 80.5q2 53 6 121.5t9.5 142t11.5 146.5t14 134q-4 -2 -9 -3t-9 -3q-18 -8 -43 -13t-68 -5q-10 0 -29.5 4t-40 10t-35 15.5t-14.5 19.5zM305 610q29 16 38 40t9 65q0 37 -10 53q-12 -25 -19.5 -61.5t-13.5 -71.5q0 -4 -1 -7t-1 -7q-2 -4 -2 -11z" />
<glyph unicode="2" horiz-adv-x="669" d="M49 -49q0 37 33 51q25 12 53 12q23 0 47 -6q31 57 62.5 112.5t62.5 108.5v2q57 98 112.5 203t94.5 205q-8 8 -10 12t-6 9.5t-6 9.5v-2q-45 66 -86 92t-82 26q-47 0 -88 -30.5t-72 -79.5q-33 -49 -51.5 -105.5t-18.5 -109.5q4 -59 32 -99t75 -40q31 0 65 18q6 2 21.5 2 t30 -1t23.5 -3t5 -4q-6 -6 -14 -8h2q-2 -2 -10 -7h2q-29 -18 -86 -18q-41 0 -77 12.5t-52 36.5q-31 47 -31 111q0 51 18.5 111.5t51 110.5t76.5 84t98 34q45 0 91 -30t89 -93q2 -2 3 -4t3 -4q4 -4 6 -7.5t4 -5.5v5q2 12 8.5 32.5t13.5 40t16.5 33.5t21.5 16q20 0 25 -30.5 t5 -48.5q0 -10 -1 -25.5t-6 -32t-14 -28t-26 -11.5q-20 0 -39 19q-8 -20 -14 -39q-4 -6 -7 -15.5t-3 -13.5q-47 -141 -118 -269t-169 -263q-2 -2 -2 -4.5t-2 -4.5q-4 -4 -5 -7t-5 -7q29 -10 56.5 -24.5t51.5 -28.5q35 -20 71 -36.5t64 -16.5q37 0 68 30q16 14 32.5 51 t24.5 80q4 23 -2 47.5t-24 40.5q-4 6 -8.5 19.5t-5.5 27t-1 23.5t4 10q4 -4 10.5 -8t10.5 -8q31 -37 35 -98q4 -49 -12.5 -105.5t-51.5 -89.5q-35 -35 -80 -35q-35 0 -73.5 18.5t-79.5 41.5q-25 14 -50.5 26.5t-48.5 20.5q-33 -47 -57 -64.5t-45 -17.5q-20 0 -29.5 12 t-9.5 31zM63 -49q0 -29 25 -29q8 0 24.5 10.5t30.5 24.5q4 4 7.5 10t7.5 10t7 8.5l7 10.5q-10 4 -18.5 4h-18.5q-25 0 -49 -12q-23 -12 -23 -37zM532 641q-2 0 9.5 -8t21.5 -10q10 0 16.5 9t10.5 22.5t5 26.5t1 24q0 12 -3 34.5t-13 30.5q-6 0 -11.5 -13.5t-11.5 -30.5 t-11 -36.5t-9 -32.5q-4 -12 -5 -16z" />
<glyph unicode="3" horiz-adv-x="768" d="M47 117q0 4 1 16t5 12q2 0 8.5 -9t11.5 -21.5t10 -24.5t7 -18q-2 -4 -2 -17q0 -39 26.5 -67.5t65.5 -48t83 -28.5t79 -9q68 0 128 27.5t105.5 75.5t72 112.5t26.5 140.5q0 53 -19.5 111.5t-60.5 99.5l-10 9q-11 9 -22 19.5t-22.5 18.5t-15.5 10q-12 -25 -34.5 -43 t-59.5 -20q-35 -2 -58.5 16.5t-23.5 44.5q0 20 20.5 34.5t55.5 14.5q16 0 48 -6t48 -18q10 41 10 80q0 59 -31.5 107t-109.5 48q-12 0 -34.5 -4t-43 -14t-36 -28.5t-15.5 -45.5q0 -6 -7 -17t-16.5 -23.5t-18.5 -20.5t-11 -8q0 59 22.5 94t53 53t60.5 23.5t46 5.5 q82 0 119 -50t37 -120q0 -47 -15 -88q72 -41 119 -118t47 -173q0 -80 -27.5 -148.5t-74.5 -119t-113.5 -78t-142.5 -27.5q-66 0 -120 22.5t-91 57.5q-18 14 -49 52t-31 108zM362 524q0 -18 20.5 -32.5t47.5 -14.5q16 0 38 11t40 40l4 4q-14 10 -40 18.5t-48 8.5 q-29 0 -45.5 -12t-16.5 -23z" />
<glyph unicode="4" horiz-adv-x="935" d="M39 672q0 27 12 54.5t36 50t58.5 36.5t79.5 14q47 0 84 -20.5t61.5 -53t38 -73.5t13.5 -82q0 -141 -61.5 -269t-153.5 -223q8 -2 17 -4t20 -4q59 -14 148 -27.5t177 -15.5q6 33 11.5 70t11.5 76q12 78 26.5 166t30.5 165l17 -2q-12 -55 -23.5 -117.5t-22 -125t-19.5 -122 t-15 -110.5q16 0 60 9.5t90 27t82 45t36 66.5q0 2 5 13t13.5 24.5t17.5 22.5t15 9v-8q0 -2 1 -3t1 -3q0 -39 -16.5 -66.5t-34.5 -46.5q-18 -18 -53 -39q-27 -14 -60.5 -26t-66.5 -21.5t-58.5 -14.5t-33.5 -5q-6 -47 -11.5 -83t-7.5 -56l-16 2q0 2 1 5t1 7q4 16 8 48t8 77 q-16 -2 -32.5 -2h-32.5q-59 0 -119.5 7t-120.5 17q-2 0 -3 1t-3 1q-23 4 -47.5 8.5t-42.5 4.5q-2 0 -3 -1t-3 -1q-4 -2 -13 -2q-20 0 -20 24q0 10 12.5 13.5t26.5 3.5q45 35 87 90t75.5 121.5t54 137t20.5 138.5q0 55 -16 94t-44 64.5t-62.5 38t-71.5 14.5q-74 -16 -115 -54 t-41 -85q0 -18 6.5 -43t19.5 -45.5t31.5 -34.5t43.5 -14q2 0 13 -7.5t23.5 -17.5t21.5 -19.5t9 -11.5q-37 0 -69.5 16.5t-58 43t-40 61.5t-14.5 72z" />
<glyph unicode="5" horiz-adv-x="780" d="M29 107.5v13.5t7 1t17 -15.5t19.5 -22.5t13.5 -18q0 -33 31 -60q51 -35 109.5 -60.5t135.5 -23.5q41 0 85.5 12.5t84 40t74.5 72.5t60 111q23 72 22 118q0 78 -38 130.5t-93 87.5q-57 35 -120.5 51t-117.5 16h-10q0 -14 -3 -35.5t-9 -40t-16.5 -32t-26.5 -9.5 q-23 2 -36 23.5t-15 48.5q0 35 27.5 44t64.5 13q4 43 1 99.5t-11 120.5h14h24.5t30.5 -2q25 -2 57.5 -4.5t61.5 -2.5q51 0 98 7q47 14 70 53q4 4 17.5 11t25.5 12t21.5 7.5t7.5 -2.5q0 2 -5.5 -8t-7.5 -14q-33 -47 -92 -63.5t-135 -16.5q-33 0 -62.5 2t-56.5 4 q-10 2 -27.5 2h-25.5q2 -8 2 -15t2 -15q6 -55 6 -113v-29.5t-2 -30.5h10q47 0 123 -16q20 -6 43 -14t52 -19q2 0 3 -1t3 -1q49 -25 93 -64.5t66 -97.5q18 -47 19 -94q0 -33 -8 -64.5t-19 -60.5q-35 -86 -105.5 -154.5t-162.5 -82.5q-45 -8 -106.5 1t-122 33.5t-106.5 63.5 t-60 92q-2 4 -2 11.5zM219 516q0 -23 8 -33q13 -24 27 -24q18 0 25.5 27.5t11.5 52.5q2 6 2 11t2 9q-20 -2 -48 -11t-28 -32z" />
<glyph unicode="6" horiz-adv-x="669" d="M49 195q0 31 13.5 89t37 127.5t57 142.5t75.5 131t91.5 96t102.5 38h10t17.5 -2t16.5 -4t7 -6t-18.5 -11.5t-34.5 -13.5q-16 -4 -25 -4q-6 2 -18 2q-35 0 -67.5 -32.5t-64.5 -83t-60.5 -113t-51.5 -123.5q41 47 92.5 67.5t104.5 20.5q55 0 107.5 -21.5t94.5 -59.5 t67.5 -92t25.5 -118q0 -84 -28 -145.5t-71 -102t-98 -61t-110 -20.5q-61 0 -112.5 23.5t-86.5 64.5t-54.5 95t-19.5 116zM78 190q0 -45 14 -94t44 -89t76 -66.5t112 -26.5q57 0 109 21.5t92 61.5t64.5 98.5t24.5 129.5q0 59 -24.5 110.5t-64.5 88.5t-90 57.5t-101 20.5 q-49 0 -96.5 -21.5t-82 -61.5t-56 -98.5t-21.5 -130.5z" />
<glyph unicode="7" horiz-adv-x="784" d="M37 678q16 33 40.5 52.5t49.5 27.5t45.5 10t30.5 2q94 0 188 -2t199 -8q14 29 28 37t39 8q8 0 24.5 -4t33 -11.5t28 -18.5t11.5 -26q0 -8 -8.5 -11t-12.5 -3q-16 0 -41.5 2t-58.5 6q-8 2 -15.5 2t-17.5 2q-16 -35 -34.5 -96t-41.5 -127q-14 -41 -28.5 -86t-28.5 -84 q-10 -31 -20.5 -59.5t-22.5 -57.5q-16 -45 -37.5 -97t-38.5 -101h90v-15h-94q-14 -41 -23.5 -75.5t-11.5 -44.5l-8 -4l-8 -2q0 2 1 4t1 4q2 4 2 10t4 14q4 12 6 21q6 31 21 73q-16 0 -39 1.5t-33 1.5h-25v14h33t68 -2q25 74 57.5 174t67.5 200.5t69.5 190.5t59.5 145 q-72 6 -144.5 10.5t-146.5 4.5h-47.5t-48.5 -2q-25 -4 -46.5 -17.5t-39.5 -29.5q-16 -14 -34 -24.5t-42 -8.5zM606 758q23 -2 43.5 -4t36.5 -4q14 -2 25.5 -3.5t21.5 -1.5q-2 0 6 5q-4 12 -28.5 26.5t-53.5 14.5q-16 0 -29.5 -7.5t-21.5 -25.5z" />
<glyph unicode="8" horiz-adv-x="716" d="M61 219q0 109 60.5 193t152.5 118q-12 18 -19 44t-7 51q0 31 10 60.5t29.5 53t49.5 39t71 15.5q39 0 67.5 -14.5t45 -37t24.5 -48t8 -50.5q0 -35 -15.5 -71.5t-37.5 -59.5q31 -19 39 -25q55 -41 90 -101t35 -136q0 -66 -26 -126.5t-69 -107.5t-98 -75.5t-113 -28.5 q-63 0 -117.5 25.5t-94.5 68.5t-62.5 98.5t-22.5 114.5zM86 209q0 -53 20.5 -103.5t56.5 -90.5t86 -64.5t109 -24.5t119 30.5t107 98.5q66 102 65 195q0 84 -48 150.5t-114 101.5q-10 -8 -34.5 -20.5t-57.5 -12.5q-23 0 -51.5 11.5t-52.5 33.5q-37 -20 -74 -51t-66.5 -71 t-47 -86t-17.5 -97zM264 625q0 -23 6 -47.5t23 -40.5q20 6 39.5 8t42.5 2q53 0 108 -27q16 25 27.5 61.5t11.5 77.5t-23.5 78t-82.5 41q-78 0 -115 -47t-37 -106zM309 520q23 -20 46.5 -28.5t39.5 -8.5q20 0 34.5 6.5t29.5 14.5q4 2 5 2t5 2q-47 20 -100 20q-29 0 -60 -8z " />
<glyph unicode="9" horiz-adv-x="710" d="M74 477q0 66 25.5 125.5t68.5 103.5t98.5 70.5t114.5 26.5q75 0 143 -39q63 -39 99 -104.5t36 -149.5q0 -33 -6 -70q-4 -25 -16 -74t-30.5 -109t-44 -124.5t-56.5 -118t-65.5 -87t-73.5 -33.5q-6 0 -32 4t-53.5 15t-50 29.5t-22.5 47.5q23 0 40 -10.5t36 -24.5 q20 -16 42.5 -29.5t51.5 -17.5q37 0 69.5 41t62.5 102.5t54.5 132t42.5 131.5q-41 -76 -101.5 -104.5t-125.5 -28.5q-61 0 -117.5 24.5t-98.5 65.5t-66.5 94.5t-24.5 110.5zM98 471q0 -80 53.5 -154.5t145.5 -105.5l25 -6q20 -6 57 -6t75 11t70.5 35.5t59.5 64t45 96.5 q6 23 11 51t5 57q0 57 -20.5 105.5t-55 83t-82 55t-100.5 20.5q-55 0 -106.5 -24.5t-92.5 -66.5t-65.5 -97t-24.5 -119z" />
<glyph unicode=":" horiz-adv-x="169" d="M42 83q-1 9 1 18.5t5 16.5l3 7h-2q8 10 25.5 22.5t11.5 4.5v2q-4 -6 -3 -13.5t3 -13.5q4 -18 0 -23v2q-4 -10 -17.5 -22t-19.5 -14q-6 4 -7 13zM81 248q-1 8 1 17t5 17l3 7h-2q8 10 25.5 22.5t11.5 3.5v2q-4 -6 -3 -13t3 -13q4 -18 0 -23v2q-4 -10 -17.5 -21t-19.5 -13 q-6 4 -7 12z" />
<glyph unicode=";" horiz-adv-x="1705" d="M16 38q-4 -1 4 9q4 8 6.5 17.5t4.5 19.5t5 21.5t7 17.5t12 15t17.5 17.5t16.5 13.5t9 5q8 -4 6 -17.5t-8 -28.5t-13 -28l-7 -12h2q-10 -10 -23.5 -21.5t-24 -19.5t-14.5 -9zM81 248q-1 8 1 17t5 17l3 7h-2q8 10 25.5 22.5t11.5 3.5v2q-4 -6 -3 -13t3 -13q4 -18 0 -23v2 q-4 -10 -17.5 -21t-19.5 -13q-6 4 -7 12z" />
<glyph unicode="=" horiz-adv-x="456" d="M66 201v12h13t21 2q29 4 73 7t89 3t81 -5t52 -21l-4 -17q-12 8 -59 13.5t-92 1.5h-34t-34 2q-18 2 -36.5 3t-37.5 -1h-32zM98 303v12h13.5t21.5 2q29 4 73 7.5t89 3.5t81 -5.5t52 -21.5l-4 -16q-14 8 -60.5 13t-91.5 1h-33.5t-33.5 2q-18 2 -36.5 3t-37.5 -1h-33z" />
<glyph unicode="?" horiz-adv-x="462" d="M20 582q0 43 19.5 78.5t51.5 63.5t70 44t75 20q41 2 77.5 -8t66.5 -33.5t48 -59.5t21 -85q0 -53 -13.5 -93t-37 -73t-53.5 -59.5t-60 -52.5q-29 -23 -55.5 -46.5t-49 -51t-39 -60.5t-22.5 -76l-10 4q6 47 22 84t40 67.5t50.5 56.5t54.5 50q57 51 102.5 105.5t45.5 138.5 q0 37 -16.5 68.5t-42 55t-59.5 37t-70 13.5q-37 -6 -72 -22.5t-63.5 -41t-46 -55t-17.5 -65.5q0 -23 7 -46.5t21.5 -43t38 -32.5t54.5 -13q6 -2 17 -7.5t22.5 -12.5t19.5 -12t8 -7q0 -4 -12 -4h-16q-33 2 -57.5 12t-43.5 22q-41 31 -58.5 67t-17.5 73zM100 2q0 25 11 51l6 4 q0 -6 8 -22l9 -22.5t5 -20.5q0 -12 -1 -27.5t-5 -25.5q0 14 -14.5 39.5t-16.5 25.5z" />
<glyph unicode="@" horiz-adv-x="753" d="M25 133q0 106 35.5 190.5t95 143.5t137.5 91t162 32q72 0 123 -20.5t83.5 -54.5t48 -79t15.5 -94q0 -72 -34 -149.5t-93 -139.5q-29 -31 -63.5 -59.5t-65.5 -28.5h-10t-17.5 5t-17.5 17.5t-8 37.5q0 10 2 21t8 34q-45 -59 -88 -94t-84 -35q-51 0 -77.5 39t-26.5 98 q0 66 29.5 133.5t75.5 122.5t99.5 91t100.5 36q45 0 70.5 -25.5t25.5 -72.5q0 -10 -1 -17.5t-3 -17.5q29 55 43 89t20 46q14 0 15 -45q0 -59 -11 -70q-2 -4 -10 -19t-22 -40v2q-14 -25 -32 -55.5t-35 -62t-33.5 -63.5t-26.5 -57q-4 -4 -6 -8q-6 -16 -7 -47q0 -29 27 -28 q16 0 44 16t75 70q57 72 88 139t31 137q0 104 -66 165.5t-170 61.5q-90 0 -167 -35.5t-132 -97t-87 -143.5t-32 -172q0 -70 23.5 -122t64.5 -87t95.5 -52.5t117.5 -17.5q51 0 104.5 14.5t97.5 40t71.5 59.5t27.5 75q0 2 -1 3t-1 5v10q2 8 8.5 22.5t13.5 29t14 24.5t11 10 q2 0 5.5 -14.5t3.5 -18.5q0 -66 -33 -112.5t-58 -65.5q-49 -41 -115.5 -70.5t-144.5 -29.5q-27 0 -82 6t-111 37t-98 93.5t-42 172.5zM205 90q0 -73 39 -98q14 -10 32 -10q41 0 82 46t86 117q12 18 27.5 47t29 61t24 64.5t10.5 57.5q0 31 -16.5 51t-47.5 20q-39 0 -86 -32.5 t-87 -85t-66.5 -114.5t-26.5 -124z" />
<glyph unicode="A" horiz-adv-x="1200" d="M10 143q0 72 20.5 125.5t55.5 89t81 53t95 17.5q41 0 90 -17.5t82 -56.5q4 -4 7 -12t3 -16q-23 0 -41 12t-34 24q-18 16 -38 31t-44 19q-49 0 -96.5 -12.5t-84 -43t-59 -81t-22.5 -125.5q0 -72 28.5 -129.5t75.5 -97.5t106.5 -61.5t122.5 -21.5t130 17.5t134.5 45 t137 62.5t137.5 72q41 23 81 42t79 40q0 29 3 66.5t9 66.5q-4 0 -8 1t-8 1q-6 0 -17.5 1t-21.5 2t-17.5 1t-5.5 0q-68 -68 -142.5 -131.5t-151 -113.5t-149.5 -81.5t-136 -33.5q-61 0 -106.5 31.5t-45.5 99.5q0 43 20.5 83t55.5 81q59 70 139 94t172 24q66 0 131.5 -8 t130.5 -18q20 -4 38 -5t38 -6q31 33 75 78t73 80v-2q31 72 73.5 141.5t84.5 124t76 89t46 36.5q10 0 10 -10q0 -12 -16 -42t-46 -73t-72 -97t-91 -114v2q-25 -53 -45 -109t-35 -112q41 2 84 11.5t74 29.5l10 -12q-35 -23 -82 -32t-90 -11q-8 -29 -10 -56.5t-4 -56.5 q72 29 137.5 49.5t124.5 20.5q4 0 8 -1t8 -1h21q2 39 11 80t26 75q37 76 111.5 116t154.5 40q27 0 54.5 -5t51.5 -15q47 -20 87 -60.5t57 -89.5q7 -26 7 -53q-1 -29 -9 -59q-16 -56 -62 -84q-35 -25 -78 -25q-70 0 -110 45q-15 -4 -31 -4q-20 0 -43 6q-18 2 -38.5 4t-39.5 6 q-29 4 -50 7.5t-50 5.5q80 -23 126 -77t46 -120q0 -37 -15.5 -73t-37.5 -66q57 -37 131 -55q56 -14 109 -14q17 0 34 1q100 14 199.5 65.5t159.5 137.5q12 16 24 31.5t23 31.5q18 29 37.5 54.5t44.5 48.5q27 29 60.5 42t70.5 13q35 0 73 -14q31 -12 65 -45t38 -84 q1 -8 1 -15q1 -39 -17 -75q-20 -43 -54 -70q-35 -27 -75 -33q-20 -3 -36 -3t-28 3q-31 4 -43 13h2q-12 2 -12 12q6 -4 29.5 -14.5t56.5 -10.5q23 0 47 8.5t51 30.5q34 29 54 70q17 34 17 70q0 7 -1 14q-4 47 -35 78.5t-66 42.5q-31 12 -65 12q-70 0 -125 -51 q-20 -23 -39 -46.5t-35 -48.5q-12 -18 -27.5 -38.5t-29.5 -36.5q-59 -86 -159.5 -138.5t-205.5 -64.5q-20 -2 -40 -2q-51 1 -105 15q-76 20 -135 59q-37 -39 -88.5 -67t-104.5 -28q-74 0 -130 32t-95 81t-60.5 109.5t-23.5 119.5q-29 -16 -77 -40.5t-81 -41.5 q-68 -37 -138.5 -73.5t-143 -65t-144.5 -47t-143 -18.5q-98 0 -181 51t-118 145q-14 33 -18.5 67t-4.5 64zM274 29q0 -33 12.5 -55.5t31 -36t41 -18.5t42.5 -5q61 0 132 28.5t146 77t149.5 111t144.5 131.5q-29 2 -62 10q-66 10 -134 17.5t-130 7.5q-86 0 -162.5 -24.5 t-136.5 -92.5q-35 -39 -54.5 -78t-19.5 -73zM1001 272v2q-2 0 -2 -0.5t2 -1.5zM1001 272h5l-2 -2zM1006 272q10 -2 25.5 -3t25.5 -1q4 0 8 -1t8 -1q2 4 4 11.5t4 11.5q8 27 14.5 48t16.5 44q-29 -29 -54.5 -56.5t-51.5 -52.5zM1098 123l2 2v-2h-2zM1100 123q0 -41 9 -90 t32 -96q-2 10 -3 22t-1 25q0 33 12 73q16 49 56 82t91 49q-94 -16 -196 -65zM1141 -63q0 -2 1 -2.5t1 -2.5q0 2 -1 2t-1 3zM1143 -26q0 -38 33 -93q0 -2 8 -10q31 -39 76 -63.5t104 -24.5q53 0 100 24.5t80 59.5q-23 20 -41 41.5t-35 46.5v-2q-33 53 -51 112.5t-18 124.5 q-4 0 -5 1.5t-3 1.5q-8 2 -23 2q-63 -8 -124.5 -35t-82.5 -84q0 -4 -10 -29q0 -8 -2 -12q-6 -27 -6 -61zM1399 190v3l2 -3h-2zM1407 190q4 -59 22.5 -120.5t47.5 -114.5v2q31 -49 75 -82q52 62 52 125q0 31 -14.5 61.5t-40 56t-62.5 45t-80 27.5zM1407 207h6q10 1 20 1 q30 0 60 -5q39 -6 78 -13q14 -2 27.5 -4t27.5 -4q29 -4 53 -5q8 0 15 1q0 2 -2 6v-2q-16 23 -21.5 52.5t6.5 52.5q8 10 21.5 15t28 4t25.5 -8t15 -19q10 -31 1 -58.5t-35 -40.5l-4 -2q-4 -2 -8.5 -3t-10.5 -3q20 -18 45 -27.5t49 -9.5q41 0 78 25q44 29 60 83q8 27 8 52 q0 26 -8 51q-16 49 -51.5 88t-86.5 55q-47 20 -100 21q-78 0 -149.5 -40t-108.5 -110q-18 -35 -27.5 -73.5t-11.5 -79.5zM1678 234q6 -24 20 -46v-2l6 -6q4 2 8 2t8 2q8 4 11 4q18 10 28 37q5 14 5 26t-5 23q-9 25 -33 26h-2q-23 0 -38 -19q-10 -17 -10 -34q0 -6 2 -13z" />
<glyph unicode="B" horiz-adv-x="1105" d="M39 72q0 86 30.5 133t77.5 67q37 18 88.5 32.5t94.5 14.5q-27 12 -27 29q0 4 10 4q27 0 45.5 -5t34.5 -13q10 -4 26.5 -10.5t33.5 -6.5h8q23 0 31 5q12 2 29.5 15t35.5 32.5t37.5 41t38.5 42.5q10 10 17 19t16 17v-2q20 39 36.5 73t32.5 63q55 111 87 165t57 54 q12 -4 12 -23q0 -23 -6 -44t-26.5 -56t-61.5 -89.5t-111 -140.5v3q-10 -20 -19.5 -40t-19.5 -38q-23 -41 -41 -80t-35 -76q4 -4 10.5 -5t10.5 -5l24 -12q41 74 90.5 157.5t99.5 156.5t97 121t84 48q29 0 55.5 -41t26.5 -103q0 -43 -15.5 -78.5t-35 -61t-40 -41t-30.5 -21.5 q25 -23 47.5 -60t32.5 -77q41 -14 82 -35t70 -49q18 -24 36 -54q14 -25 14 -53q0 -7 -1 -14q-10 -72 -78 -107q-35 -18 -70 -18q-37 0 -71.5 15.5t-63.5 37.5q-43 -53 -100.5 -93t-122.5 -69q37 -29 78 -43t82 -24q14 -4 30.5 -5t30.5 -1q57 0 112.5 19t106.5 50t98.5 71 t88.5 81q16 12 30.5 27.5t28.5 31.5q31 35 64.5 64.5t89.5 29.5q18 -4 38.5 -16t30.5 -33q59 -4 108.5 -40t90.5 -77q25 -25 50.5 -48t53 -39.5t57.5 -22.5q13 -3 28 -2q19 0 40 4q66 4 124.5 41t92.5 96q23 37 39.5 79t16.5 85q0 23 -4.5 43t-14.5 41q-16 43 -56 80t-91 53 q-22 4 -44 4q-35 0 -69 -9q-58 -15 -92 -58q-32 -39 -50 -84q-9 -24 -10 -45q0 -18 7 -33q14 -29 27.5 -37t17.5 -10v-4q-2 0 -19.5 8t-33.5 43q-7 16 -7 35q0 21 9 46q16 46 51 85q37 41 97 60q39 12 77 12q20 0 39 -3q59 -16 98 -56t59 -83q18 -43 19 -86q0 -47 -17.5 -92 t-39.5 -82q-35 -55 -95.5 -93t-130.5 -44q-21 -4 -40 -4q-18 0 -32 3q-32 7 -61 24.5t-54.5 41t-49.5 47.5q-41 41 -86 75t-99 38q4 -10 7.5 -19.5t3.5 -19.5q-2 -20 -24.5 -25.5t-37.5 7.5q-16 14 -10 32.5t20 28.5q10 4 16.5 4h12.5q-25 31 -63 41q-47 -4 -84 -33.5 t-68 -64.5q-29 -31 -55 -55q-41 -39 -88 -79t-100.5 -72t-111 -52.5t-114.5 -20.5q-31 0 -61 6q-43 10 -89.5 26.5t-80.5 45.5q-72 -29 -143.5 -43t-137.5 -14q-115 0 -194 37.5t-132 109.5q-31 45 -48 94.5t-17 96.5zM53 78q0 -53 26.5 -106.5t74 -96.5t112 -69.5 t142.5 -26.5q59 0 130.5 9t143.5 32q-6 8 -13 17t-14 20q-29 51 -28 108q0 84 61 152q-23 12 -37 20t-28 17q-8 4 -12.5 8t-12.5 8q-33 -55 -60.5 -91t-37.5 -48l-4 -4q-14 -8 -16.5 1t-2.5 21q0 14 16.5 62.5t38.5 95.5q-59 29 -133.5 49t-146.5 20q-39 0 -75 -9 t-63.5 -32.5t-44 -61.5t-16.5 -95zM201 287h4h-4zM205 287q25 6 47 6q72 0 150.5 -22.5t136.5 -51.5q2 4 3 9t3 10q4 12 8 20q-18 10 -42 17.5t-42 13.5q-6 0 -10 2q-2 0 -6 2t-6.5 2t-4.5 2h-18q-10 0 -31.5 4t-42.5 10q-33 -2 -75 -8t-70 -16zM459 291v2v-2zM461 299h2 q2 -2 6 -2q4 -2 6 -2t6 -2q18 -6 37 -12.5t37 -16.5q16 41 36.5 82t43.5 82q-55 -59 -92 -91t-82 -38zM492 51q29 29 46 57.5t40 63.5v-2q2 4 6 8q-4 2 -8.5 4t-8.5 4t-6 4q-16 8 -16 9q-27 -59 -39 -95t-14 -53zM545 199v2l2 2q0 -2 -1 -2t-1 -2zM551 213q14 -8 23.5 -12 t15.5 -8q4 14 8 18l8 8q2 2 3 5t3 5l-11 5.5l-11 5.5q-6 4 -11.5 6t-11.5 6q-2 -6 -6 -14l-4 -9q-4 -4 -4 -8t-2 -8zM590 188v5q2 -2 4 -3zM604 182v2v-2zM604 182q23 -16 45.5 -28.5t48.5 -26.5q14 16 31 31q-27 18 -52.5 34.5t-45.5 28.5q-10 -12 -16.5 -22.5t-10.5 -16.5 zM635 227q27 -16 52.5 -31.5t49.5 -31.5q76 63 185 80q15 2 32 2q27 0 56 -6q-6 23 -17.5 48t-27.5 46l-11 10q-4 6 -10 11t-14 12q-16 -6 -32.5 -7.5t-33.5 -1.5q-31 0 -51 3.5t-20 19.5q0 8 16 16.5t49 8.5q16 0 36.5 -8.5t35.5 -14.5q18 8 37.5 25.5t37 41t28.5 53 t11 66.5q0 16 -4 36t-11 37t-16 29.5t-22 12.5q-29 0 -73 -46t-93 -114.5t-98 -148.5t-92 -148zM635 428q2 6 10 18l4 -2q-4 -4 -7 -8t-7 -8zM637 -33q0 -57 25 -100q4 -10 14 -21.5t18 -21.5q66 23 127.5 59.5t108.5 89.5q-4 4 -10.5 11.5t-10.5 11.5t-6 7t-6 7 q-6 8 -23 21h3q-45 16 -89.5 35.5t-93.5 42.5q-27 -29 -42 -68t-15 -74zM705 125q0 -2 4 -2l-2 -2zM705 537q4 4 7 9t7 9v-2q-10 -12 -10 -18zM709 123q37 -20 70.5 -36.5t68.5 -31.5q-29 27 -54.5 49.5t-56.5 45.5q-18 -10 -28 -27zM719 555q0 2 2 2zM721 557v2v-2z M721 559q49 66 81 109t48 70.5t22.5 46t6.5 34.5q0 4 -1 4t-1 4q-6 -8 -18.5 -30.5t-31 -53t-39 -67.5t-40.5 -74q-8 -12 -15.5 -23.5t-11.5 -19.5zM748 158q35 -25 63.5 -51.5t56.5 -55.5h-2q29 -10 55.5 -16t45.5 -8q23 41 36 81.5t13 75.5q0 10 -1 22.5t-3 22.5 q-28 7 -55 7q-18 0 -35 -3q-94 -14 -174 -75zM809 381q14 -10 55 -10q6 0 18.5 1t28.5 5q-16 6 -28.5 10t-24.5 4q-23 0 -34 -4t-15 -6zM895 23l41 -41q2 2 5 7t5 7q4 4 7 8t5 8q-14 0 -29.5 2t-33.5 9zM911 377q2 0 3 1t4 1v-4q-4 0 -7 2zM954 -33q29 -23 62 -36t63 -13 q37 0 68 16q29 12 49.5 38t22.5 59q4 33 -11.5 60.5t-33.5 51.5q-29 27 -71 49.5t-75 32.5q2 -10 3 -20t1 -21q0 -37 -13 -80t-30 -77q20 2 43 9t47 25l11 -14q-49 -35 -109 -35l-6 -14q-6 -10 -10 -16.5t-11 -14.5zM958 12l3 2l2 -2h-5zM981 12l2 2zM1586 14q-2 -4 -1 -7 q0 -9 10 -17q9 -8 21 -8q2 0 6 1q16 3 20 19q0 8 -4 19.5t-8 19.5h-8t-8 -2q-4 0 -5 -1t-5 -1q-12 -9 -18 -23z" />
<glyph unicode="C" horiz-adv-x="831" d="M-1008 414q8 10 15.5 19t17.5 20q16 16 38 35.5t50 39.5q70 41 154 41q29 0 57.5 -7t50.5 -17q82 -33 154 -83t137 -104q61 -53 132 -97t151 -54q12 -4 28.5 -5t28.5 -1q2 47 14.5 96t32.5 84q-29 -6 -59 -6q-39 0 -68 10q-41 16 -66.5 56t-29.5 89q-1 9 -1 18 q1 48 19 86q22 46 60.5 76.5t87.5 47t100 16.5q66 0 117 -26q35 -18 66.5 -52t54.5 -71q70 29 145.5 44t155.5 15q23 0 46.5 -1t45.5 -3q86 41 184.5 77t182.5 36q25 0 49 -2.5t43.5 -8.5t33 -19t13.5 -34q0 -31 -21.5 -50.5t-53.5 -29.5t-68.5 -13t-69.5 -3q-61 0 -100 5 t-70 11q-35 6 -74 10q-76 -41 -158.5 -93t-150.5 -109q45 -41 45 -113q0 -49 -15.5 -101.5t-44 -99.5t-67.5 -85t-88 -60q25 -47 80 -71.5t115 -24.5q92 0 180 47t149 135q10 12 13 22q2 2 2 5q0 2 2 4q2 4 9 -1t5 -10q-14 -29 -27 -43q-63 -80 -152 -127t-181 -47 q-59 0 -119 27t-92 82q-18 -4 -39 -8t-41 -4q-84 0 -138.5 53t-56.5 141v12q-10 0 -28.5 1.5t-28.5 5.5q-82 10 -157 55t-134 102q-66 53 -135.5 102.5t-147.5 78.5q-47 24 -109 24h-5q-35 0 -72 -10t-68 -33q-49 -29 -78.5 -58.5t-39.5 -41.5l-7 -6zM-160 530 q2 -43 29 -81.5t61 -51.5q29 -14 64 -14q37 0 65 10q18 33 48 66t65 62.5t74 54t73 42.5q-20 37 -46.5 70t-59.5 49q-53 25 -117 25q-47 0 -94 -15.5t-83 -44.5q-37 -28 -59 -71q-21 -39 -21 -92q1 -4 1 -9zM20 184q8 -96 63.5 -134t139.5 -38h23.5t23.5 4q-14 41 -14 90 q0 104 51 198.5t113 160.5q-6 2 -10 6h2q-2 0 -3 1t-3 1q-8 2 -21.5 2h-22.5q-6 -57 -32.5 -107.5t-65.5 -84.5q-37 -37 -76 -54h-2q-39 -20 -81 -30.5t-85 -14.5zM20 201q39 2 83 11t79 24q-4 10 -7 32.5t-3 28.5q0 51 22.5 92t63.5 70q-41 -10 -82 -27.5t-78 -32.5 q-6 0 -10 -4l-8 -4h2q-2 -2 -10 -2q-20 -39 -33.5 -89t-18.5 -99zM76 401q2 0 4 2q0 -2 -1 -3t-1 -3zM80 403q2 0 4 1.5t4 1.5q14 6 31.5 12t32.5 12q35 14 68.5 26.5t70.5 20.5q31 16 63 19q-2 25 -11 57.5t-17 50.5q-72 -35 -137.5 -85t-108.5 -116zM199 244q12 8 27.5 18 t31.5 27q35 35 61.5 84t32.5 102h-14t-16 -2q-47 -14 -82 -52t-35 -83q0 -17 6 -31q0 -10 -4 -29.5t-8 -33.5zM276 92q0 -16 2.5 -33.5t8.5 -35.5q45 20 82 54t64.5 73.5t43 82.5t19.5 84q-6 -35 -27 -61q-29 -41 -57.5 -53.5t-44.5 -14.5v5q14 2 40.5 15t55.5 54 q29 35 29 82q0 25 -9.5 52.5t-25.5 47.5q-29 -27 -60.5 -65.5t-58.5 -84.5t-44.5 -97.5t-17.5 -104.5zM340 610q12 -27 18.5 -57.5t10.5 -56.5q14 -2 31.5 -7.5t31.5 -11.5q57 57 129 105.5t137 83.5q-16 2 -31.5 3t-31.5 1q-72 0 -149.5 -15.5t-145.5 -44.5zM496 317 q0 4 1 9.5t1 9.5q0 18 -2 22h4v-20t-4 -21zM799 674q10 -2 24.5 -4t24.5 -6q31 -6 68.5 -11.5t103.5 -5.5q33 0 67.5 3t64.5 12.5t48.5 24.5t18.5 40q0 29 -29 38t-64 9q-72 0 -153.5 -26.5t-173.5 -73.5z" />
<glyph unicode="D" horiz-adv-x="1226" d="M4 272q0 127 65.5 226.5t167 168t225.5 104.5t240 36q137 0 234.5 -40t158 -103.5t88 -139t27.5 -149.5q0 -68 -18 -135q-23 -88 -62.5 -157t-80.5 -114q66 -35 133 -56.5t151 -21.5q86 0 180.5 31t172 88.5t128 141.5t50.5 188q0 59 -18.5 105.5t-50.5 77t-74 47 t-87 16.5q-27 0 -66.5 -12.5t-76.5 -38t-62.5 -66.5t-25.5 -98q0 -29 9 -49.5t23.5 -34t28 -20.5t23.5 -11q2 -2 4 -2t4 -2l4 -4q-37 10 -55 22q-18 14 -33.5 40t-15.5 71q0 59 27.5 100t65.5 66.5t79 37t69 11.5q45 0 88 -15.5t77 -47t54.5 -79.5t20.5 -112 q0 -113 -53.5 -199t-134 -145t-176 -90t-181.5 -31t-155.5 24.5t-135.5 61.5q-66 -61 -146.5 -89t-160.5 -28q-63 0 -110.5 7.5t-81.5 13.5q-45 10 -74 10q-2 -2 -9 -10t-16.5 -17.5t-19.5 -16.5t-19 -7q-20 0 -20 20q2 16 17.5 28.5t50.5 16.5q20 33 41.5 72t44.5 78 q16 31 35.5 63.5t35.5 63.5q16 29 36 61.5t36 61.5q16 25 35 55q-27 10 -53.5 12t-55.5 2q-16 0 -34.5 -1t-34.5 -1q53 -12 53 -57q0 -41 -21.5 -76t-55.5 -62.5t-76 -48t-81 -32.5q6 -16 21.5 -29.5t34.5 -27.5q18 -16 32.5 -29.5t14.5 -36.5q-27 0 -47.5 14.5t-35 34 t-24.5 39t-14 31.5q-25 -4 -48 -7t-46 -3q-49 0 -92 11t-76 35.5t-52.5 63.5t-19.5 94zM18 272q0 -98 67 -144t159 -46q41 0 92 10q-8 23 -8 49q0 33 10 66t28.5 60.5t43 49t51.5 33.5q25 10 58.5 17.5t64.5 7.5q35 0 70.5 -5t66.5 -14q29 43 56.5 94.5t49.5 100.5 q4 12 8.5 29.5t4.5 33.5q0 10 -2 18.5t-7 16.5q-4 10 -4 35q0 18 1 38.5t6 20.5q8 0 14 -14t10 -31.5t6 -32t2 -16.5q0 -27 -6 -49t-12 -35q-23 -55 -46.5 -111.5t-49.5 -107.5q78 -29 135 -91t57 -155q0 -23 -10 -57q2 -2 14 -10q2 -2 4 -2t4 -2q14 -10 26.5 -18.5 t25.5 -16.5h-2q4 -2 6 -4t6 -4q70 72 116 179t46 224q0 78 -32 155t-99 140q-57 53 -149.5 75.5t-180.5 22.5q-135 0 -239.5 -28.5t-182.5 -75.5t-131 -104.5t-86 -114t-47.5 -106.5t-14.5 -81zM348 133q0 -20 2 -31q0 -2 1 -3t1 -3q39 12 79 31.5t72 45.5t52 58.5t20 69.5 q-4 14 -13 25.5t-30 15.5q-29 -2 -60.5 -17.5t-59 -42t-46 -64.5t-18.5 -85zM399 -154q0 -6 9 -6q4 0 28 33q-23 -4 -30 -13.5t-7 -13.5zM479 -106q16 0 36 -4.5t44 -8.5q37 -8 78 -14t82 -6q82 0 156.5 31.5t134.5 87.5q-4 4 -9.5 5t-9.5 5q-10 8 -21.5 14t-21.5 14h2 q-4 2 -5 3.5t-5 3.5q-10 4 -10 6q-18 -37 -55 -68t-80 -31q-47 0 -83 26t-36 79q0 51 23.5 71.5t60.5 20.5q41 0 83 -24.5t79 -53.5q8 26 8 51q0 86 -55.5 145.5t-129.5 88.5q-12 -25 -26 -51.5t-27 -48.5q-10 -18 -21.5 -40t-21.5 -40q-39 -72 -83 -139.5t-87 -122.5z M686 41q0 -47 33 -71.5t74 -24.5q39 0 72.5 29.5t52.5 64.5q-8 4 -14.5 9t-14.5 9q-35 23 -66.5 41.5t-64.5 18.5q-29 0 -50.5 -17.5t-21.5 -58.5z" />
<glyph unicode="E" horiz-adv-x="780" d="M23 96q0 59 22.5 116.5t69.5 104.5q59 53 130.5 73t147.5 20q45 0 92 -5.5t90 -11.5q8 14 25 37q4 6 11 15.5t12 17.5q-70 -16 -134 -17q-98 0 -183 36t-144 114q-43 57 -43 121q0 68 42 109.5t97 41.5q49 0 94 -34.5t62 -88.5q4 -12 4 -20q0 -4 -8.5 0t-19.5 12 t-21.5 18.5t-14.5 18.5q-4 33 -32.5 56.5t-63.5 23.5q-47 0 -86 -39t-39 -98q0 -53 41 -111q57 -76 140 -110.5t175 -34.5q82 0 152 20h-2q16 23 38.5 48.5t41.5 43.5q33 35 70.5 70t78.5 57h-2q23 12 41.5 18.5t28.5 8.5q8 2 17.5 0t7.5 -20q0 -10 -9 -23 q-43 -72 -117.5 -126t-166.5 -83h2q-12 -16 -25.5 -35.5t-40.5 -54.5q2 -2 4 -2q4 -4 8.5 -8t-0.5 -13q-6 -8 -14 -7t-16 5h2q-10 2 -15 13q-29 6 -60.5 9t-61.5 3q-78 0 -156 -21.5t-143 -74.5q-45 -37 -69 -92.5t-24 -114.5t26 -116.5t85 -98.5h-2q4 -2 7 -4t7 -4 q14 -12 37 -19q2 47 23.5 101.5t56.5 105.5t80 93t94 63q2 2 5 3t1 -1q35 10 75 18q27 5 68 5q21 0 46 -1q4 47 18 89t45 75q39 43 96.5 66.5t116.5 23.5q49 0 92 -15t76 -50q47 -47 47 -115q0 -49 -26 -88q-25 -33 -61 -48t-77 -15q-29 0 -59 10q-31 10 -53 26 q-13 -2 -26 -2q-21 0 -42 4q-33 6 -63 15q-29 8 -72 14v-21.5t2 -31.5v2q43 -53 43 -119v-9t-2 -9q0 -4 -1 -6.5t-1 -6.5q0 -6 6 -8l12 -12q41 -47 101.5 -67.5t124.5 -20.5q41 0 81.5 7t77.5 19q45 16 88 48t82 67q-4 27 6.5 52.5t26.5 41.5q23 18 48.5 20.5t47.5 -7.5 q2 2 8.5 5t10.5 5q2 2 22 12q23 10 49.5 16.5t53.5 -1.5t46 -30t23 -50v-10q0 -54 -41 -87q-45 -36 -98 -53q-26 -5 -57 -5q-10 0 -21 1q-43 2 -92 31q-20 14 -31 45q-41 -35 -79.5 -61.5t-92.5 -47.5q-37 -12 -78.5 -20t-84.5 -8q-66 0 -126.5 21.5t-103.5 68.5l-5 5t-5 7 l-2 2q-18 -68 -81 -122t-140 -79q-31 -10 -61.5 -15t-65.5 -5q-68 0 -131 20q4 -27 17 -51t30 -47q16 -16 34.5 -29.5t38.5 -11.5q6 -2 19.5 -10t26 -16.5t18.5 -15.5t-2 -7h-23q-72 8 -115.5 67.5t-58.5 126.5q-94 33 -148 115t-54 174zM238 -168q76 -29 159 -29 q33 0 68 7.5t65 17.5q66 29 116 80t63 110q-14 29 -24.5 66t-14.5 70q-20 23 -46 38t-61 15q-66 0 -124 -39t-102 -95.5t-71.5 -122t-27.5 -118.5zM580 217v4q4 -2 9 -2t9 -2h-18zM594 371l2 4q4 -4 8 -4l-2 -4l-2 2q-4 4 -6 2zM600 217q33 -8 68 -37v37q-16 2 -33 2t-35 -2 zM680 227q18 -4 35.5 -7t36.5 -7q29 -8 58.5 -13t59.5 -3q-12 14 -18 32q-10 25 0 51.5t37 36.5q33 14 55.5 -6t18.5 -49q0 -25 -20.5 -45t-43.5 -29q10 -6 20.5 -11t16.5 -9q16 -4 29.5 -7t29.5 -3q37 0 71 16t56 47q14 18 20.5 41t6.5 45q0 57 -41 99q-35 35 -77 52 t-87 17q-53 0 -109.5 -27.5t-95.5 -66.5q-27 -33 -41 -75t-18 -79zM684 135q2 -27 8 -50.5t17 -45.5q0 2 1 3t1 5q0 47 -27 88zM686 496q78 29 145.5 82t108.5 114q2 4 3 10.5t-3 8.5q-63 -23 -129 -83.5t-125 -131.5zM860 229q4 -8 13.5 -17t17.5 -15q25 4 44 23.5t19 41.5 q0 27 -20 42q-12 9 -24 9q-8 0 -17 -4q-23 -11 -33 -33q-5 -11 -5 -23t5 -24zM1300 55q4 2 7.5 6.5t7.5 6.5q23 20 49.5 41.5t54.5 42.5q-18 6 -34 6q-29 0 -50 -19q-15 -17 -27 -39q-9 -17 -9 -33q0 -6 1 -12zM1303 41q6 -29 38 -49h-2q51 -27 103 -28q33 0 55 9 q49 12 92 49q39 34 39 82v9q-4 25 -21.5 44t-39.5 25q-15 5 -32 5q-11 0 -21 -2q-28 -5 -50 -15l-12 -8q-10 -4 -12 -6l-4 -4q2 -2 5 -4.5t7 -6.5q-16 0 -14 1t0 3l-4 2q-29 -18 -54.5 -39.5t-48.5 -44.5q-6 -6 -12 -11t-12 -11zM1427 150h5q-2 -2 -2 -3q-2 0 -3 3z M1442 141l4 4l4 -4v-4q-4 0 -8 4z" />
<glyph unicode="F" horiz-adv-x="1083" d="M121 356q0 66 31.5 135.5t87.5 137.5q111 111 222 158t257 47q131 0 270 -29t275 -76l32 33q4 4 7.5 6t5.5 4q0 -4 1 -10t1 -8l2 -2q-4 0 -14.5 -8.5t-16.5 -18.5q10 -4 22.5 -7t22.5 -7q72 -23 166 -44.5t205 -21.5q41 0 80 5t69.5 17.5t49 34t18.5 54.5q0 6 6 16 t14.5 21.5t16.5 18.5t12 7q0 -55 -20.5 -91t-56.5 -57.5t-85 -30.5t-104 -11q-111 2 -206 24.5t-167 44.5q-10 4 -25.5 8.5t-25.5 8.5l-8 -8l-9 -13q-47 -72 -100 -164t-90 -174q23 2 43 11.5t37 23.5q16 12 33.5 22.5t44.5 8.5q-23 -29 -45.5 -45.5t-44 -24.5t-41 -9 t-33.5 -1h-8l-13.5 -22.5t-11.5 -20.5q6 6 6 4t-4 -8t-9 -14.5t-7 -12.5q29 -18 56.5 -37.5t55.5 -42.5q41 -31 83 -59.5t87 -51t96.5 -36.5t110.5 -14q43 0 99.5 13t110.5 42t96 71t57 101q-29 -4 -59.5 -8t-59.5 -10q-59 -10 -116.5 -19.5t-117.5 -9.5q-23 0 -47 7 t-45.5 22.5t-35 40t-13.5 59.5q0 45 22.5 82t59.5 62.5t81 38.5t87 13q45 0 92 -16t85 -46t61.5 -72t23.5 -91q0 -8 -1 -16t-3 -21q13 1 26 1q27 0 56 -3q43 -4 79 -20.5t60.5 -49t26.5 -83.5q-2 -78 -60.5 -121t-132.5 -43q-27 0 -49 8t-39.5 20.5t-31 24.5t-19.5 21 q-2 2 -5 4t-3 4q6 6 20 -8q16 -16 49 -39t82 -23q78 0 125 47t47 107q0 66 -49 103.5t-120 37.5q-14 0 -30 -1t-34 -3q-16 -59 -59 -104.5t-98.5 -75t-114 -45t-107.5 -15.5q-59 0 -112.5 15.5t-102.5 40t-95 56.5t-89 64q-23 16 -45.5 33t-44.5 33q-4 -6 -8.5 -13t-8.5 -14 v2q-41 -72 -80 -141.5t-86 -128.5q-18 -23 -39.5 -47.5t-46 -46t-52 -34.5t-56.5 -13q-41 0 -73 17.5t-53.5 46t-33.5 66.5t-12 79q0 55 20.5 113.5t61.5 106.5t104.5 78.5t147.5 30.5l229 -2q4 2 6 5.5t4 5.5q2 4 3 5t3 5q27 45 57.5 100t60.5 104.5t55.5 87.5t37.5 50 q-135 41 -266 63.5t-254 22.5q-78 0 -150.5 -13.5t-138.5 -35.5q-49 -23 -102 -64t-98 -94t-74 -117.5t-29 -134.5q0 -14 4 -39.5t19.5 -51.5t44.5 -44t80 -18q10 0 27.5 2t29.5 4q23 8 41 25.5t35 33.5q14 16 27.5 29.5t35.5 11.5q-23 -45 -49 -68.5t-53 -35t-51.5 -13.5 t-42.5 -2q-55 0 -88 19.5t-50.5 47t-22.5 58.5t-5 51zM485 53q0 -37 8.5 -71.5t25 -62.5t44 -45t66.5 -17q18 0 38.5 12t41 30.5t41 41t38.5 45.5q49 66 96.5 138.5t92.5 149.5q-43 29 -93 48.5t-100 21.5q-57 -4 -111.5 -26.5t-95 -60.5t-66.5 -89t-26 -115zM854 344 q31 -8 61.5 -23.5t61.5 -31.5q2 -2 3 -1t3 -1q10 16 17.5 27.5t17.5 27.5zM1386 332q0 -59 38.5 -87t91.5 -28q68 0 143.5 12.5t150.5 28.5q16 4 28.5 6t29.5 6q2 4 2 11.5v11.5q1 8 1 15q1 42 -19 78q-22 42 -59.5 71.5t-83.5 46t-91 16.5q-37 0 -78 -13t-74.5 -38 t-56.5 -59.5t-23 -77.5z" />
<glyph unicode="G" horiz-adv-x="1153" d="M35 500q0 57 23.5 100t59.5 71.5t79 43t84 14.5q80 0 159.5 -32.5t141.5 -73.5q43 37 97 69.5t111.5 59t115 42t106.5 15.5q84 0 128 -46t44 -120v-12q25 16 48 27.5t50 21.5q47 16 98.5 25.5t104.5 9.5q78 0 156.5 -30t136.5 -87q41 -51 59 -120.5t23 -131.5v-18.5 t-2 -18.5q27 0 59.5 2t66 6.5t64.5 10.5t55 12q41 14 84 40t79 60.5t59.5 76.5t25.5 89h4q-2 -49 -25.5 -94t-58.5 -81t-77 -61.5t-83 -37.5q-59 -16 -125 -26q-47 -8 -93 -8q-18 0 -35 1q-4 -55 -23.5 -111.5t-56.5 -97.5q-47 -55 -120 -87t-149 -32q-61 0 -116.5 21.5 t-96.5 66.5q-29 31 -43 69t-14 79q0 31 7 59.5t24 50.5q33 37 78 56.5t94 19.5q37 0 74.5 -12t70.5 -33q15 1 30 1q27 0 54 -4q43 -7 88 -17q23 -4 42.5 -8.5t41.5 -8.5v35q0 63 -13 127t-61 117q-55 63 -128.5 89t-153.5 26q-106 0 -207 -35q-53 -20 -98 -54 q-6 -55 -39 -115.5t-91.5 -118.5t-141.5 -111.5t-189 -92.5q-51 -16 -104.5 -26.5t-102.5 -10.5q-31 0 -62.5 4.5t-60.5 10.5q2 -43 18.5 -82t45 -70t68.5 -49t89 -18q55 0 107.5 20t101.5 53t93 74t83 82v-2q4 10 9.5 19.5t9.5 19.5q14 29 27.5 57.5t23.5 50.5 q8 18 15.5 36t15.5 34q6 14 21.5 31.5t43.5 21.5q25 4 21 -12q0 -31 -51 -109q-10 -14 -35 -48t-49.5 -76t-44 -84t-19.5 -72q0 -25 23 -25q8 0 19 5t28.5 19.5t40 41t53.5 71.5q2 2 4 4.5t10 -2.5q0 -4 -15 -27.5t-39 -50t-51.5 -49t-51.5 -22.5q-6 0 -18.5 1t-18.5 19 q-23 -49 -59 -120.5t-85 -137t-110.5 -112.5t-130.5 -47q-33 0 -66 12q-14 6 -32.5 15.5t-35 25.5t-32 44t-23.5 69q16 0 29.5 -17.5t24.5 -40.5q10 -16 22 -37.5t31 -31.5q39 -23 84 -23q49 0 89 23.5t75.5 63.5t66.5 91t60 107q14 27 27.5 56.5t29.5 64.5q12 29 20.5 49 t22.5 49q-37 -37 -78 -74t-89 -66.5t-104.5 -48t-125.5 -20.5q-49 2 -90 22.5t-72 54.5t-49.5 79t-20.5 98q-47 14 -90 34.5t-76 49.5q-23 14 -48 37.5t-48 55.5t-37 71t-14 86zM59 492q0 -45 23.5 -92.5t62.5 -88.5t91.5 -75.5t111.5 -55.5q2 31 6.5 64.5t12.5 60.5 q27 92 78 168t122 137q-70 39 -140.5 65.5t-141.5 26.5q-47 0 -88 -16t-72 -44t-48.5 -66.5t-17.5 -83.5zM391 170q29 -6 60.5 -10t62.5 -4q98 0 203 37q109 37 189.5 87t136 105t86 112.5t38.5 108.5q-27 -18 -54.5 -41.5t-49.5 -44.5q1 -10 1 -20q0 -24 -7 -46 q-10 -32 -33 -51q-32 -29 -63 -29h-1q-32 1 -61 13q-8 -4 -20.5 -12t-22.5 -13q0 -4 -1 -8t-1 -6q-6 0 -16 10q-29 -10 -58.5 -17t-58.5 3q-35 10 -59.5 38t-30.5 60q-4 33 6.5 59.5t28.5 49.5q-16 10 -35 18.5t-35 20.5q-102 -94 -151.5 -209t-53.5 -211zM594 592h4l-2 -2 q-2 0 -2 2zM608 602v4l2 -2zM610 604q23 -14 38.5 -22.5t31.5 -18.5q27 23 59.5 41.5t67.5 26.5q27 8 72 8q33 0 64.5 -7t64.5 -26q43 -23 53 -69q10 8 18 15t19 15q16 14 34.5 27.5t34.5 28.5v-2q2 4 2 22q0 66 -39.5 108t-117.5 42q-47 0 -99.5 -15.5t-105.5 -41 t-103.5 -60.5t-93.5 -72zM643 442q4 -33 26.5 -55t51.5 -33q29 -10 55.5 -6t54.5 14q-4 8 -11 18.5t-11 20.5q-2 2 -2 3.5t-4 5.5v2q0 35 -36 65.5t-89 65.5q-20 -23 -30 -47q-6 -18 -6 -37q0 -8 1 -17zM690 555q12 -10 21 -12q23 -10 41 -25h-2q55 -27 76.5 -68.5 t27.5 -76.5q39 23 96.5 68.5t102.5 88.5q-10 43 -52 68q-29 16 -58.5 23.5t-57.5 7.5q-41 0 -78 -11q-29 -8 -61.5 -24t-55.5 -39zM903 389q25 -8 53.5 -6t55.5 25q23 18 35 46.5t8 57.5q-37 -35 -74 -64.5t-78 -58.5zM1108 305q6 6 8 10l-4 -8zM1116 315q23 31 35 55.5 t16 39.5q-10 -10 -12 -12.5t-6 -12.5t-12.5 -26.5t-20.5 -43.5zM1249 203q0 -76 51 -133q43 -47 97.5 -67.5t111.5 -20.5q72 0 140.5 31.5t119.5 88.5q41 41 56.5 93.5t17.5 105.5h-4q-23 4 -44 8t-44 8q-37 10 -75 15q-28 5 -55 5q-9 0 -19 -1q14 -14 22 -35.5t8 -44.5 t-12 -42t-37 -30q-20 -8 -38.5 -4t-32 14.5t-20.5 27t-5 32.5q0 35 23.5 57.5t58.5 32.5q-55 37 -129 37q-43 0 -86 -17.5t-72 -56.5q-33 -45 -33 -104zM1497 252q0 -31 25 -51q16 -13 34 -13q10 0 21 5q23 10 35 28.5t12 36.5q0 16 -13.5 38.5t-29.5 39.5 q-33 -4 -58.5 -28.5t-25.5 -55.5z" />
<glyph unicode="H" horiz-adv-x="1210" d="M12 -18q0 45 24.5 81.5t67.5 59.5q14 6 27.5 11t28.5 9q25 4 54.5 3t59.5 -17q6 -4 11.5 -5t9.5 -5q2 -4 -7 -6t-22.5 -4.5t-28 -1t-22.5 3.5q-20 12 -45 13t-48.5 -8.5t-44 -27.5t-32.5 -43q-12 -21 -12 -49q0 -10 2 -22q6 -42 41 -76q31 -39 79 -55.5t103 -16.5 q61 0 128 19.5t120 54.5q104 61 191 152t159 206q-47 -10 -86 -22.5t-59 -28.5l-11 12q25 18 69 32.5t99 24.5h-2q61 98 108.5 202t88.5 214l4 6q-8 -4 -10 -6h2q-2 -2 -6 -4q-8 -4 -11 -4h2q-33 -20 -71 -35q-53 -18 -115.5 -30.5t-116.5 -18.5q-8 0 -16 -1t-16 -1 q-45 -4 -90.5 -10t-88.5 -27q-31 -14 -57 -45q-45 -45 -45 -107v-10q4 -51 35 -73q18 -16 43.5 -26.5t48.5 -2.5q8 0 21.5 -5t25.5 -11.5t20.5 -11.5t4.5 -7q-2 0 -3 -1t-3 -1q-4 -2 -9.5 -2h-9.5q-10 -1 -20 -1q-35 -1 -69 15q-44 20 -73 52q-27 33 -26 84v11q0 47 30 90 q34 48 80 71h-2q47 27 97.5 35t99.5 12q4 0 7 1t7 1q31 2 74 7t90 15.5t93 26.5t83 45v-2q14 43 25.5 73.5t21.5 47.5q6 10 14.5 20t14.5 14q3 3 6 3q2 1 5 -1q5 -4 5 -20q0 -20 -11 -50t-36 -63q-6 -8 -11 -13l-11 -11l-9 -8v2q-10 -29 -25 -75t-38 -103.5t-51.5 -122 t-65.5 -131.5q45 10 80 12q2 41 21.5 83t48.5 66q35 31 73 36q14 2 27 2q21 0 39 -5v-4q53 74 131 135l19 13q4 4 8 7t10 7q4 4 8 6q2 2 14 8q23 11 55 19q18 4 36 5l28 -3q10 0 23 -6q4 -2 -3 -7.5t-19.5 -10.5t-27 -9t-22.5 -4q-29 10 -57.5 -1t-48.5 -28 q-35 -29 -65 -62.5t-56 -72.5q4 -2 9 -4t9 -4q0 -2 6 -4q0 -8 -10 -2q-4 2 -10 4t-8 4q-25 -37 -45.5 -78t-36.5 -78q14 2 29.5 2h23.5l-10 -14q-10 0 -26.5 1t-20.5 -3v2q-27 -66 -41 -131q31 -10 63 -10q72 0 127 51q20 23 39 46t35 48q27 39 57 74q59 86 159.5 138 t203.5 64q23 3 46 3q30 0 62 -5q56 -8 107 -29.5t93 -56t71 -81.5q31 -49 47 -113t18 -129q33 2 71 12t72.5 27.5t61.5 43t37 56.5q0 6 4 19q2 4 2 8t2 12q4 31 -1 57.5t-11 46.5q4 -8 6 -10t-8 13q-4 12 -6 16q0 -4 2 -8q-4 6 -11 18v-2q-8 8 -16 27v-2q-4 6 -12.5 16 t-3.5 6l-15 17l4 2q2 -2 4 -4.5t7 -4.5q2 -2 3 -4t5 -4q14 -14 33 -45q0 -2 4 -6v-4q4 -10 15 -38t11 -62q0 -31 -12 -64q-12 -35 -39 -61.5t-61.5 -46t-73.5 -29.5t-74 -12q-2 -41 -11 -82t-26 -76q-37 -74 -111.5 -116t-156.5 -42q-27 0 -55.5 6t-50.5 17q-47 20 -86 60 t-56 91q-7 26 -7 52q0 28 8 58q16 56 61 85q16 10 36.5 17t43.5 7q29 0 58.5 -13t49.5 -30q27 4 55 0q4 0 10.5 -1t10.5 -1q33 -4 67 -10q29 -4 74 -8t76 -4q-2 63 -20.5 126.5t-47.5 112.5v-2q-31 45 -71.5 79t-90 54.5t-101.5 28.5q-30 5 -59 5q-22 0 -44 -3 q-98 -14 -195.5 -63t-156.5 -135q-12 -16 -24.5 -32t-23.5 -32q-20 -29 -40.5 -56.5t-45.5 -49.5q-53 -53 -133 -54q-33 0 -65 13q-4 -16 -6 -29.5t-5 -28.5q-2 -10 -2 -20v-21q0 -18 2.5 -43.5t9.5 -49t22.5 -39t41.5 -15.5q23 0 48.5 26.5t33.5 75.5h14q0 -23 -12 -47 t-31.5 -42.5t-46 -25t-57.5 12.5q-29 20 -38 53t-13 64q0 4 -1 9t-1 9q-4 27 -2 59.5t6 65.5q-27 16 -48.5 42t-25.5 67q-10 -4 -20.5 -4.5t-22.5 -2.5t-23.5 -3t-21.5 -3q-41 -74 -96 -148.5t-121 -138t-139.5 -110.5t-153.5 -68q-29 -8 -60.5 -13t-62.5 -5 q-53 0 -102 14.5t-88 48.5q-63 57 -64 136zM995 281q4 -31 23.5 -56.5t44.5 -42.5q4 25 10 53.5t17 55.5h-3q-23 -2 -45 -4t-47 -6zM995 295q27 4 52.5 6t48.5 4q39 88 98 168q-29 6 -59.5 1t-69.5 -36q-29 -29 -48.5 -66.5t-21.5 -76.5zM1096 743l4 5q2 2 2 3t4 5 q25 31 35 58.5t10 43.5v4q-6 -6 -14 -20q-2 -2 -2 -4t-2 -4v2q-8 -16 -17.5 -38t-19.5 -55zM1682 118q-8 -27 -7 -53q0 -26 8 -51q16 -49 52.5 -88t87.5 -57q49 -18 102 -19q76 0 145.5 40t108.5 108q15 35 25 77q8 30 7 58q0 11 -1 21q-35 2 -79 7t-77 9q-14 2 -27.5 4 t-27.5 4q-4 0 -9 1t-10 1q-12 2 -24 3t-25 -1l2 -4q16 -16 22.5 -48t-5.5 -56q-16 -23 -50 -21t-45 29q-10 31 -0.5 58.5t37.5 39.5h2q2 0 8.5 2t10.5 4q-43 39 -94 39q-41 0 -78 -24q-43 -29 -59 -83zM1862 136q-4 -12 -4 -24q0 -14 6 -26q6 -23 32.5 -23t45.5 17 q10 23 3.5 49.5t-18.5 42.5l-4 8q-6 -2 -14 -3t-15 -5q-23 -10 -32 -36zM2458 457q2 -4 3 -5t3 -6l-2 3q0 4 -4 8z" />
<glyph unicode="I" horiz-adv-x="169" d="M-170 186q6 68 43 118t90 83t117 49q44 11 85 10q19 0 38 -2q12 18 24.5 36t24.5 36q25 37 50.5 76t49.5 80v-2q6 14 6 32q0 6 -2 12.5t-4 10.5q-4 12 -4 20q0 18 4 46t10 28t11.5 -11t8.5 -25.5t4 -28t1 -15.5q0 -12 -4 -33.5t-12 -41.5q-16 -35 -44 -85.5t-59 -103.5 q-6 -10 -12 -18t-12 -19q2 0 3 -1t5 -1q63 -14 110.5 -52t88.5 -83q4 -4 10 -11t10 -11q6 -6 16.5 -15.5t18.5 -13.5q6 -6 14 -10q12 29 30.5 49t55.5 28q7 1 15 1q25 0 49 -16q28 -19 28 -53v-9q-4 -16 -18 -27.5t-32.5 -17t-38 -4t-34.5 7.5q-12 4 -26 10t-29 10 q-12 -33 -1 -62.5t36 -51t57 -31.5q20 -6 39 -7q13 0 25 3q31 4 60.5 18t57 33.5t52 41t43.5 38.5q20 16 31.5 28.5t15.5 3.5v-4l-10 -10t-13 -10q-10 -10 -27.5 -25.5t-31.5 -25.5q-35 -35 -82 -65t-94 -36q-11 -2 -23 -2q-23 1 -46 9q-34 12 -59 36q-24 22 -36 54 q-7 16 -7 36q0 16 5 33q2 2 2 4q-33 20 -55 47q-45 53 -94.5 92.5t-124.5 61.5q-35 -57 -69 -121.5t-60.5 -127t-44 -118t-17.5 -94.5q0 -37 23.5 -52t52.5 -15q25 0 54.5 10t47.5 22q31 27 54.5 64t23.5 78t-23.5 64.5t-37.5 33.5l2 4q6 -2 17 -8t23.5 -18.5t21.5 -31 t9 -44.5q0 -49 -24.5 -89t-59.5 -65q-2 0 -6 -4q-14 -10 -41.5 -23.5t-70.5 -13.5h-9q-7 -1 -15 -1q-49 0 -95 24q-53 26 -93 70q-41 44 -61 100q-15 41 -14 82q0 16 2 32zM-156 186q-3 -17 -3 -35q1 -30 9 -60q14 -48 42 -88t69 -68.5t88 -36.5q-29 18 -33 45.5t0 62.5 q12 125 62.5 226.5t118.5 203.5q-18 2 -36 2q-42 0 -84 -10q-61 -14 -112 -47t-84 -82t-37 -113zM399 748q0 10 2 28.5t7.5 36.5t12.5 31.5t17 13.5q18 0 19 -13.5t-4 -27.5q-4 -10 -11.5 -23.5t-14.5 -25.5t-14 -20.5t-10 -8.5q-4 0 -4 9zM526 233q10 -6 22.5 -13t26.5 -11 q18 -6 38 -6q12 0 24 2q33 6 49 35q-2 29 -26 52q-18 17 -39 17q-7 0 -15 -2q-29 -8 -47 -27.5t-33 -46.5z" />
<glyph unicode="J" horiz-adv-x="233" d="M-836 -256q0 16 2.5 35.5t8.5 42.5q8 45 35.5 88t66.5 78t83 60.5t87 37.5q25 8 63.5 11t65.5 3q12 70 53 138v-2q47 82 123 121.5t162 39.5q90 0 168 -41q29 -20 48.5 -43.5t35.5 -52.5q33 72 60.5 143.5t54.5 145.5q10 27 10 55q0 10 -3 21.5t-7 19.5q-4 10 -8.5 25.5 t-4.5 38.5q0 31 8 30q23 -29 30 -50t7 -50t-6 -51.5t-10 -32.5q2 4 -2 -10.5t-8 -22.5q-16 -55 -44 -137t-63 -166q7 -26 7 -50q0 -34 -13 -65q-22 -53 -82 -86q-31 -59 -66.5 -118.5t-75.5 -115.5t-83 -105.5t-88 -86.5q55 -41 129 -64q63 -21 123 -21q10 0 20 1 q78 12 149.5 45t135 79t120 101.5t105.5 110.5q61 70 137 143.5t152 123.5q35 23 83 45t100 41.5t105.5 35t102.5 21.5q49 8 94 10t80 2q20 0 37.5 -1t34.5 -3v-4h-94q-33 -2 -71 -4t-81 -12q-47 -6 -98 -20.5t-102.5 -34t-99.5 -43t-87 -46.5q-104 -72 -192.5 -165 t-172.5 -193q-63 -63 -116.5 -106.5t-103.5 -72t-100 -44t-110 -21.5q-24 -3 -47 -3q-57 0 -112 17q-78 25 -136 72q-70 -53 -146.5 -83.5t-168.5 -30.5q-104 0 -165.5 40.5t-84.5 96.5v-2l-4 4t-4 10l-7 17.5t-3 13.5l-8 24q-4 16 -6.5 34t-2.5 38zM-822 -248v-7 q0 -26 5 -79v2l4 -8q0 66 47 113q6 6 15.5 13t23.5 15h-2q16 10 40.5 19.5t55.5 9.5q10 0 35 -5t25 -9q0 -2 -9.5 -6.5t-22.5 -9.5t-25.5 -8t-18.5 -3q-2 0 -3 1t-3 1q-8 2 -19 2q-29 0 -51.5 -12t-38.5 -31.5t-25.5 -43t-9.5 -46.5q0 -25 13.5 -52.5t41 -52t69.5 -41 t100 -16.5q84 0 158.5 31t146.5 84q-25 23 -50.5 60.5t-41.5 68.5q-33 61 -52.5 131t-19.5 137q0 18 2 39t6 39q-27 0 -64.5 -3t-62.5 -11q-43 -12 -86 -36t-79 -56.5t-61.5 -73.5t-33.5 -86q-2 -8 -3 -20.5t-1 -8.5q-4 -16 -5 -41zM-813 -340q2 -2 2 -6q0 -8 4 -12h-4 q-2 4 -2 18zM-422 10q0 -68 19.5 -134.5t52.5 -125.5q16 -33 39.5 -64.5t52.5 -60.5q86 66 158.5 162t136.5 211q-14 -4 -28.5 -4h-28.5q-29 0 -55.5 14.5t-49.5 38.5q-23 -6 -48 -6q-17 0 -35 3q-44 7 -85 17q-8 4 -12 5q-4 2 -8 2t-9 2q-47 14 -92 16q-4 -20 -6 -37.5 t-2 -38.5zM-412 98q23 -4 46.5 -8t46.5 -8q6 -2 11 -2t11 -2q4 -2 5 -2t5 -2q37 -10 76 -18q18 -4 36 -4l42 5q-16 27 -27 59q-7 22 -7 46q0 9 1 18q2 16 13.5 29.5t27.5 22t33.5 6.5t32.5 -17q22 -28 22 -58q0 -21 -6 -39t-16 -34q-18 -29 -50 -39q39 -45 89 -45h13 q26 0 52 6q23 39 44.5 84t41.5 86q8 16 14.5 31.5t14.5 32.5q-10 29 -30.5 55.5t-49.5 42.5h2q-39 20 -82 29.5t-86 9.5q-84 0 -157.5 -37t-114.5 -110q-20 -35 -34 -68t-20 -70zM-260 -377l2 2q2 0 2 -2h-4zM-154 172q-1 -7 -1 -14q0 -50 38 -97q27 10 45 41 q18 23 19.5 53.5t-15.5 53.5q-8 12 -21 14t-26.5 -3t-25 -17.5t-13.5 -30.5zM170 193v8h4q-2 -2 -2 -4t-2 -4zM322 684q0 10 2 28.5t6 37t12 32t18 13.5q20 0 20 -15t-5 -26q-4 -8 -11.5 -21.5t-15.5 -26t-14 -21.5t-8 -9q-4 0 -4 8z" />
<glyph unicode="K" horiz-adv-x="1085" d="M10 -18q0 37 18.5 70.5t49.5 59.5q32 26 70 38q26 8 53 8q13 0 26 -2q2 0 3 -1t3 -1q2 -2 4.5 -2t6.5 -2l8 -5q0 -2 -8 -7t-20.5 -9t-26 -8t-21.5 -4q-29 12 -59 -2q-39 -16 -61.5 -50t-22.5 -75q0 -57 45 -103q29 -31 70.5 -45t91.5 -14q68 0 139.5 22.5t130.5 59.5 q86 53 160.5 128t140.5 167q-39 6 -39 33q0 12 10.5 21t24.5 14.5t28.5 6.5t20.5 -1q59 92 113.5 205.5t93.5 211.5q-20 -14 -44 -25.5t-52 -21.5q-53 -23 -113.5 -33t-116.5 -16q-49 -4 -103 -12t-100.5 -29.5t-77 -59.5t-32.5 -102q4 -23 21.5 -53.5t39.5 -36.5 q25 -9 44 -9q15 0 26 5q8 0 22.5 -4t29 -9t22.5 -10.5t4 -7.5l-29 -6q-22 -5 -42 -5q-29 1 -54 11q-41 18 -57 37q-8 6 -24.5 35t-16.5 64q0 53 30.5 101t79.5 71h-2q47 29 97.5 37t103.5 12h12q25 2 68 7t92 15.5t97 27.5t83 44v-2q14 43 24.5 73.5t20.5 47.5v-2 q14 37 33 37h3q5 1 8 -5q3 -8 3 -14q0 -41 -24.5 -80t-55.5 -65v2q-2 -4 -4 -10.5t-4 -12.5q-12 -33 -28.5 -82t-40 -106.5t-52 -121t-65.5 -124.5q4 -4 8 -10t8 -15q66 35 138.5 111t144.5 166q39 47 78 93t77.5 85t76.5 65.5t75 37.5q6 2 25.5 6t44.5 4t50 -6.5t48 -22.5 h-2q8 -4 18 -14q2 -6 -7 -7t-23.5 0t-27.5 3t-22 4q-14 16 -32.5 21t-38.5 1q-35 0 -74 -24.5t-81 -64.5t-86 -91t-87 -102q-43 -53 -89 -105.5t-89 -93.5q16 8 22 8q17 6 34 6l32 -5q33 -11 56.5 -34.5t34.5 -57.5q6 -20 6 -40q0 -15 -3 -29v-4q23 -16 41.5 -34.5 l36.5 -36.5q41 -41 83 -75t101 -48q20 -6 41 -8t41 -2q53 0 105.5 16t95.5 48t70.5 77t33.5 102q3 18 3 35q0 35 -11 69q-16 52 -50 92t-82 64.5t-103 24.5q-23 0 -44.5 -3t-43.5 -13q-20 -8 -41 -24.5t-38.5 -38t-27.5 -45.5t-10 -48q0 -47 22.5 -68.5t32.5 -27.5v-4 q-6 2 -17 8t-21.5 18t-18.5 29.5t-8 44.5t11 52.5t29.5 48t41 39t45.5 26.5q18 8 41.5 12t44.5 4q55 0 106 -23.5t88 -64.5q38 -41 56 -94q13 -37 13 -77q0 -17 -3 -36q-6 -61 -37 -108t-77 -79t-101.5 -49.5t-110.5 -17.5q-41 0 -82 11q-53 14 -96 46.5t-78 67.5 q-23 23 -42 41.5t-46 36.5q-14 -29 -33.5 -49.5t-52.5 -26.5q-7 -1 -14 -1q-26 0 -52 18q-25 17 -24 42q0 8 2 17q6 20 22.5 31.5t35 14.5t35 1t26.5 -6q20 -8 51 -25q0 2 2 5q8 19 8 38q0 12 -4 26q-10 32 -33.5 54.5t-55.5 31.5t-62 -3h2q-16 -10 -29.5 -16.5t-24.5 -12.5 q-10 -6 -18 -10t-25 -14q-8 -4 -20 -11.5t-23 -11.5q12 -29 22.5 -70.5t20.5 -86.5q8 -35 25.5 -70t43.5 -64.5t60.5 -51t79.5 -27.5q6 0 15.5 -1.5t15.5 -1.5q16 4 35.5 11.5t32.5 19.5q8 2 23 6t29.5 6.5t24 2.5t4.5 -5q-4 -4 -5 -6t-3 -4l-8 -8q-23 -18 -47.5 -26.5 t-47 -11.5t-40.5 -1t-29 4q-98 16 -152.5 83t-70.5 142q-8 41 -16.5 79t-24.5 75q-23 -10 -43 -12q-41 -66 -91 -130.5t-109.5 -118.5t-127 -95t-143.5 -60q-35 -10 -65.5 -13t-59.5 -3q-61 0 -109.5 16.5t-76.5 44.5q-63 59 -64 136zM786 238q0 -8 11 -13h2q6 -6 20 -6 q6 8 12.5 18.5t12.5 18.5v-2q2 4 6 8q-6 4 -16.5 3t-21.5 -5t-18.5 -10t-7.5 -12zM864 219q4 2 12.5 3t16.5 5q-4 8 -14 19q-4 -4 -7.5 -12.5t-5.5 -10.5t-1 -2t-1 -2zM893 227q0 2 2 2zM1032 131q0 -35 26 -53q20 -14 41 -13q7 0 13 1q27 4 46.5 26.5t31.5 44.5 q-12 8 -23.5 14.5t-23.5 10.5q-29 10 -61.5 4t-49.5 -35zM1092 743q23 23 41 53q15 24 15 50q0 6 -1 12q-4 -4 -5 -7t-3 -5v2q-2 -4 -4 -6t-5 -6v-2q-10 -16 -19 -38t-19 -53zM1145 864l4 -2l1 1q0 -2 -3 -5z" />
<glyph unicode="L" horiz-adv-x="874" d="M6 102q0 41 14 84q12 43 43 75t73 54.5t88 34.5t89 17q-23 10 -43 31.5t-32 56.5l-7 24q0 6 8.5 2t19.5 -12t22.5 -18.5t15.5 -18.5q2 -23 27 -47q2 47 12 89t31 83q45 90 135 140.5t188 50.5q70 0 129 -27q51 -23 92 -58.5t68 -95.5q14 29 25.5 59.5t23.5 59.5 q2 10 10.5 31.5t18.5 43t21.5 38t21.5 16.5q6 0 14 -8q2 -6 3 -12.5t1 -16.5q0 -20 -8 -53t-23.5 -71t-37 -78.5t-50.5 -77.5q1 -9 1 -19q0 -45 -16 -91q-19 -56 -71 -85h2q-26 -21 -53 -27q-39 -66 -86 -129t-104 -116q70 -39 146.5 -78t160.5 -64q92 29 175 86.5 t140 137.5q16 18 28.5 36.5t25.5 36.5q23 33 47 65t53 62q63 63 162 64q45 0 90 -17q18 -6 38.5 -20t39 -33.5t31 -45t12.5 -54.5q1 -8 0 -16q1 -47 -19 -93q-24 -54 -65 -84q-29 -23 -64 -33t-63 -12q-43 -31 -99.5 -53t-115 -37.5t-113.5 -24t-94 -8.5q-57 0 -110.5 8.5 t-104.5 22.5q-63 -16 -113 -22q-14 -2 -28.5 -3.5t-28.5 -1.5q-72 0 -142.5 23t-130.5 59q-2 -2 -4 -3t-4 -3q-59 -33 -124.5 -51t-129.5 -18q-61 0 -116 18q-31 10 -57.5 30.5t-41.5 43.5q-14 16 -20 45q-8 14 -17.5 40.5t-9.5 67.5zM16 70q0 -23 7 -37h-5q-6 18 -6 28 q0 7 4 9zM16 70q0 2 4 2q0 -8 3 -13q0 -4 2 -6q2 66 59 129q35 39 82 55.5t90 16.5q39 0 80 -14q-6 29 -9 58.5t-5 57.5q-45 -2 -92.5 -14t-88.5 -34.5t-70.5 -53.5t-41.5 -68q-14 -53 -14 -94q0 -12 1 -22zM18 33h5q4 -10 6 -17.5t4 -13.5h-4v4q-2 4 -3 7t-3 7q-4 8 -5 13z M45 51q0 -35 16.5 -67.5t47.5 -55.5q53 -32 127 -32h4q61 0 128.5 18t125.5 47q-57 47 -94.5 115.5t-59.5 144.5q-20 8 -42 13.5t-42 5.5q-37 0 -83 -15.5t-77 -54.5q-51 -51 -51 -119zM332 356q2 -29 5 -61.5t9 -58.5q41 -16 85 -44t87 -59q25 -18 53.5 -36.5t57.5 -37.5 q51 47 97 98.5t87 112.5q-76 0 -125 56q-4 -2 -20 -2h-11q-18 -2 -38.5 -3.5t-38.5 -1.5q-51 0 -108.5 6.5t-106.5 22.5q-2 0 -3.5 1t-3.5 1l-18 6h-8zM332 381q4 -4 7 -5t5 -3l16 -8q35 -2 73 -5.5t73 -9.5l92 -12q2 0 3 -1t3 -1h8q27 0 62 6q-20 28 -30 58q-3 8 -2 18 q0 22 17 45v-2q15 28 53 29q1 0 3 -1q18 0 34.5 -8t22.5 -28q9 -22 9 -41q0 -30 -21 -54q79 27 153 80q16 29 30.5 57.5t29.5 59.5q-23 53 -65 95t-93 63q-55 22 -118 22h-5q-96 0 -182 -48t-133 -134q-23 -41 -32 -85t-13 -87zM350 215q18 -70 55 -133.5t99 -112.5 q6 4 14 8.5t14 8.5q23 12 43.5 28.5t38.5 32.5q-31 18 -58.5 37.5t-51.5 38.5q-86 61 -154 92zM377 356v2q4 0 16 -4q-4 2 -8 1t-8 1zM393 354q37 -10 74 -14t74 -4q-10 2 -16.5 2t-16.5 2q-29 4 -57.5 7t-57.5 7zM545 -61q117 -78 256 -78q12 0 28.5 1t30.5 3q6 2 14.5 2 t12.5 2q16 4 33.5 7t33.5 7q-86 27 -157.5 62t-137.5 75q-53 -43 -114 -81zM616 47l2 2v-4zM657 23h5l-3 -3q-2 0 -2 3zM660 396q8 -30 24 -52l-2 -2q20 4 29 6q8 2 20 4t6 2q18 16 26.5 44t-1.5 51q-8 31 -42 30.5t-52 -24.5q-11 -19 -10 -39q-1 -10 2 -20zM702 326 q23 -23 53.5 -33t61.5 -12q25 35 43.5 63.5t34.5 58.5q-47 -33 -93 -50t-100 -27zM870 291q18 6 39 20q43 29 63 76q17 39 18 81q0 8 -1 17q-10 -10 -18 -19t-19 -17v2q-18 -45 -38.5 -84t-43.5 -76zM895 403q2 2 6 11l4 -2q-6 -6 -10 -9zM958 479l11 10l-6 -12zM969 489 l4 5q4 4 7 8t7 8q-4 8 -4 14q-4 -10 -7 -17t-7 -18zM983 524v2v-2zM989 543q0 -2 1 -2t1 -2t2 -2q0 -8 2 -15q59 74 84 144.5t25 113.5q0 6 -2 14q-1 5 -3 4q-1 0 -3 -1q-4 -8 -12.5 -22t-18.5 -34q-4 -8 -6 -16t-6 -18q-4 -12 -10.5 -28.5t-12.5 -29.5q-8 -23 -17 -50.5 t-24 -55.5zM997 -115q45 -10 92.5 -17t98.5 -7q92 0 189.5 24.5t207.5 81.5l6 6q16 12 28.5 28.5t12.5 35.5v2q4 6 13.5 17.5t19.5 21.5t18.5 15t8.5 -1v-9t-2 -9q0 -2 -1 -3t-1 -3q-8 -31 -25.5 -51.5t-46.5 -43.5q27 4 54.5 14.5t55.5 32.5q38 36 62 86q22 47 22 93v8 q-6 59 -42.5 96t-77.5 51q-37 12 -78 13q-86 0 -152 -60q-29 -29 -51.5 -59.5t-44.5 -61.5q-16 -23 -31.5 -44t-32.5 -42q-53 -74 -133 -130t-170 -85zM1503 -2l4 4q12 -12 37 -18v-4q-23 6 -31 11t-10 7zM1544 -16q4 -2 10 -2q4 0 5.5 -1t5.5 -1l22 -7v-4q-10 2 -21.5 4 t-21.5 7v4z" />
<glyph unicode="M" horiz-adv-x="1310" d="M0 352q0 80 30.5 156t84 134t124 94t152.5 36q49 0 97.5 -13.5t91.5 -39t78.5 -62t60.5 -82.5q27 0 54.5 -9t49 -26.5t36.5 -46t18 -67.5q0 -31 -4.5 -57.5t-26.5 -55.5v2l-4 -8l-2 -2v2q-4 -4 -5 -8t-4 -6q-6 -6 -7 3t0 23.5t3 28.5t4 21l3 2q18 10 21 25.5t3 43.5 q0 33 -12 55.5t-31.5 37t-43 21.5t-44.5 7q14 -29 21.5 -54.5t7.5 -51.5q0 -39 -20.5 -73t-65.5 -34q-31 0 -55.5 21.5t-24.5 74.5q0 55 32.5 88t79.5 41q-47 76 -128.5 124t-178.5 48q-68 0 -134 -29.5t-120.5 -81.5t-87.5 -125t-33 -161q0 -51 12.5 -97t39.5 -97v2 q29 -47 62.5 -74t72.5 -41q-43 57 -43 133q0 70 26.5 119t64.5 79.5t78 44t68 13.5q47 0 83 -15.5t59.5 -42t35 -59t11.5 -65.5q0 -43 -17.5 -85t-53.5 -77t-88 -56.5t-122 -21.5h-28.5t-26.5 4q63 -49 162 -49q98 0 206.5 57.5t211 147.5t191.5 198.5t151 213.5v-2 q14 41 30.5 84t30.5 78.5t26.5 59t20.5 23.5q6 0 10 -4q0 -27 -29.5 -108.5t-93.5 -194.5q-16 -49 -36.5 -111.5t-40 -126t-37 -120t-27.5 -90.5q18 23 39 46t43 52q41 51 86 107.5t92 113.5q14 18 41 64q23 37 49.5 78.5t52 78.5t48 62.5t37.5 29.5q2 0 6 -1t2 -11 q-2 -12 -25.5 -50t-62.5 -87q-41 -66 -84 -137.5t-78 -141t-57.5 -135t-22.5 -121.5q0 -43 18.5 -70.5t59.5 -31.5h22q59 6 101 45q4 0 12 4q8 2 20.5 7t22.5 8.5t15.5 2.5t0.5 -8v2q-2 -4 -2 -5t-4 -5q25 14 47.5 29.5t42.5 32.5q25 20 49.5 42.5t49.5 45.5q45 43 93 85 t99 75.5t105.5 54t113.5 20.5q41 0 84 -12q37 -10 72 -27.5t64.5 -42t52 -56.5t32.5 -73q31 -2 64 -5t63 -7l43 -6q49 -8 97.5 -15.5t95.5 -7.5q23 0 46.5 2t45.5 9q43 8 82 31.5t69.5 57t46.5 77.5q13 35 14 76q0 10 -1 20q-6 51 -48 87t-91 36q-33 0 -53 -15 q-47 -23 -64.5 -53.5t-23.5 -46.5q-2 -4 -3 -8l-4 2q4 4 4 5t3 5q6 18 22 50t57 52h-2q29 23 68 23q53 0 98 -41t51 -102v-10q0 -47 -17 -89q-19 -46 -52 -79t-74 -55.5t-82 -35.5q-25 -8 -49.5 -10t-50.5 -2q-41 0 -81 5t-81 11q-16 4 -32.5 6.5t-33.5 4.5q-31 4 -63.5 8 t-63.5 6q1 -10 1 -21q0 -38 -17 -76q-22 -48 -63 -84q-40 -36 -92 -56q-34 -13 -68 -12q-17 0 -35 3q-41 10 -69 52q-19 29 -19 66q0 16 4 34q14 37 53 57.5t90.5 31.5t105.5 15t97 4q-4 37 -25.5 69t-51 55.5t-64.5 39.5t-68 23q-45 10 -78 10q-57 0 -110 -21.5 t-104.5 -55.5t-99.5 -76t-93 -83q-23 -20 -49.5 -43.5t-48.5 -42.5q-27 -18 -64 -39.5t-78 -44.5q-10 -4 -29.5 -12t-31.5 -10q-25 -8 -51 -8h-15q-43 0 -67.5 13t-36.5 34.5t-15.5 49.5t-3.5 54q0 70 16.5 126t49.5 120q-66 -80 -122 -151.5t-95 -118.5v2q-4 -8 -7 -14.5 t-3 -12.5q-6 -18 -12.5 -30.5t-18.5 -12.5q-10 0 -12 5t0 13.5t6 14.5t6 10q25 31 49.5 104.5t52.5 167.5q16 51 26.5 91.5t27.5 89.5q-45 -72 -101.5 -142.5t-120.5 -130.5q-47 -43 -106 -87t-121.5 -79.5t-126 -58.5t-121.5 -23q-66 0 -123 26t-92 60h2q-47 12 -88 44 t-71.5 76t-48 98.5t-17.5 113.5zM178 174q0 -80 55 -141h-2q31 -8 78 -8q68 0 118 19t83 52t49 72t16 80q0 61 -43 114.5t-131 53.5q-27 0 -64.5 -12.5t-73.5 -40t-60.5 -73.5t-24.5 -116zM606 444q0 -47 19.5 -65.5t44.5 -18.5q35 0 52 27t17 68q0 29 -7 52t-21 52 q-43 -6 -74 -36.5t-31 -78.5zM981 -27h2v-2zM1276 797q2 8 6 17q5 11 6 11t-6 -20h2l-2 -2l-2 -2v-2q-4 -8 -4 -5v3zM1458 606l22.5 31.5t22.5 34.5q-12 -14 -21 -27.5t-20 -30.5q-4 -4 -3 -4t2 1l1 1zM1503 672l6 12l4 -2zM2019 -14q4 -24 15.5 -45t29 -34.5t33.5 -15.5 q11 -2 23 -1q34 0 68 12q46 18 83 51t60.5 78t23.5 94q-16 1 -36 1t-45 -1q-50 -2 -101 -11.5t-93 -28.5t-55 -52q-7 -16 -7 -34q0 -6 1 -13z" />
<glyph unicode="N" horiz-adv-x="1073" d="M14 57q0 49 26 124t69 143.5t99 118t118 49.5q4 0 22.5 -1.5t18.5 -7.5q0 -4 -9.5 -9t-20.5 -10t-23.5 -10t-18.5 -8q-4 2 -19 3q-16 0 -34.5 -9.5t-30.5 -19.5q-45 -43 -79 -92t-57.5 -97.5t-34.5 -93.5t-11 -80q0 -59 27.5 -83.5t74.5 -24.5h14q4 0 6.5 1t6.5 1 q-12 25 -13 51q0 72 20.5 135.5t55.5 122.5q29 45 72 101.5t97 106.5t119.5 87t137.5 47q18 1 35 1q89 1 167 -25q93 -30 191 -86q12 14 22.5 26t20.5 25q4 4 8.5 10t8.5 10v-2q23 74 53.5 124t67.5 52q14 0 10 -10q-4 -18 -32 -59t-75 -99q-8 -14 -21 -43.5t-20 -46.5 q-2 -4 -2 -6t-2 -6q12 -6 29 -18q76 117 164 197.5t166 115.5q10 4 42.5 13t71.5 9q8 0 24.5 -3t31 -8t26 -10.5t11.5 -8.5q0 -6 -20.5 -7.5t-39.5 -1.5q-12 0 -20.5 2.5t-16.5 6.5q-16 6 -30 6q-88 0 -171 -75t-161 -189q27 14 53.5 21t54.5 11q15 2 31 2q37 0 75 -10 q54 -14 99 -40.5t75 -64.5t30 -79q0 -31 -16.5 -61.5t-55.5 -59.5q-39 -22 -73 -22h-3q-53 0 -101 27.5t-77 62.5q-4 4 -7 8t-7 8q-29 31 -62 60.5t-67 56.5q-23 -41 -45.5 -81t-42.5 -81q-12 -29 -29 -57q4 -12 9 -23.5t9 -19.5q14 -31 40 -53.5t55.5 -40t62.5 -27.5 t61 -17q26 -4 51 -4q40 0 80 10q64 16 122.5 49t112.5 75t103 85q10 10 22.5 24.5t22.5 27.5q35 37 74 69q35 29 82 29h12q47 -8 70 -45q59 -4 108.5 -38t92.5 -75q25 -23 49 -45t52 -38q29 -18 59 -26q19 -5 40 -5q13 0 27 2q63 8 120.5 42.5t94.5 94.5q23 37 39 79t16 83 q0 23 -4 43t-14 41q-16 43 -56 79.5t-91 53.5q-21 4 -43 4q-34 1 -70 -9q-60 -16 -94 -59l-4 4q35 47 94 63q37 10 73 11q22 0 44 -4q59 -16 98 -56t59 -83q14 -37 15 -82q0 -47 -15.5 -92t-38.5 -84q-37 -59 -94 -95t-129 -45q-10 -1 -20 -1q-63 0 -112 33q-56 38 -103 85 q-41 41 -86.5 75t-100.5 36v-4q4 -8 6 -16.5t2 -18.5q-4 -23 -26.5 -26t-34.5 7q-23 20 -6.5 41t45.5 25q-23 29 -64 39q-49 -4 -87 -34t-68 -65q-10 -12 -23.5 -27.5t-25.5 -25.5q-47 -43 -102.5 -87t-116.5 -76q-60 -32 -126 -50q-39 -10 -78 -11q-27 0 -55 5 q-66 12 -128 47t-95 94q2 -2 -6 14.5t-12 24.5l-2 -4v-2l-2 -4q-4 -14 -7.5 -28.5t-7.5 -26.5q-16 -68 -28.5 -108t-24.5 -40q-8 0 -11 9.5t-3 15.5q0 45 10 76.5t22 60.5l19 43l12 31q4 8 6 15t6 18q2 35 12.5 74.5t28.5 66.5v-2l13 43q4 10 6 20.5t6 22.5q-4 4 -6 5t-4 3 q-4 2 -8 6q-6 -8 -15.5 -18t-15.5 -19q-8 -10 -15.5 -17t-15.5 -17q-49 -55 -115.5 -126t-145.5 -141.5t-170 -133t-189 -101.5q-23 -8 -46.5 -13.5t-48.5 -5.5q-70 0 -106 50q-10 -2 -17.5 -2.5t-17.5 -0.5q-53 0 -85 27.5t-32 95.5zM170 23q0 -35 16 -68q43 8 105.5 33.5 t131.5 65.5t137.5 89.5t122.5 104.5t88 111.5t34 109.5t-34.5 85t-106.5 34q-88 -8 -175.5 -66.5t-157 -141.5t-114.5 -178.5t-47 -178.5zM195 -59q26 -27 75 -27q76 0 175.5 56.5t205 142.5t205.5 186t180 186q-70 41 -145.5 70t-159.5 39q43 -14 65.5 -47t22.5 -78 q0 -53 -30.5 -109.5t-82 -111.5t-117 -104.5t-134 -90.5t-137 -70.5t-123.5 -41.5zM940 0q0 -7 2 -7q1 0 1 1q3 4 6 14t6.5 22.5t5.5 18.5q8 20 16 55q-18 -45 -27.5 -69.5t-9.5 -34.5zM1008 258q0 4 4 8v-8h-4zM1012 266q8 20 12 39t10 41l4 12q-23 -43 -26 -92zM1040 317 q0 6 2 11.5t7 11.5q-4 -16 -7 -23h-2zM1049 340q18 39 36 74q-12 -12 -18 -21l-8 -8q-2 -8 -4 -15.5t-4 -13.5t-2 -16zM1055 483q4 -4 8 -6l8 -4q6 27 14 47q-4 -4 -6 -7t-6 -7q-4 -6 -9 -11.5t-9 -11.5zM1065 408l35 34q-6 2 -7 3t-3 6q-4 4 -6.5 4t-6.5 4zM1085 414 q4 4 6.5 10t6.5 10l4 -4l-10 -10zM1085 520q0 4 2 6q0 2 1.5 3t1.5 3l4 -2q-6 -6 -9 -10zM1130 600q37 45 58.5 79t25.5 44q-39 -12 -75 -100v-2q-4 -6 -9 -19v-2zM1141 424q41 -31 75.5 -64.5t69.5 -68.5q35 -37 79 -61.5t89 -24.5q37 0 68 16h-2q39 29 55 58.5t16 58.5 q0 41 -28.5 77t-72.5 61.5t-96 37.5q-32 7 -62 7q-20 0 -38 -3q-29 -4 -59 -13.5t-59 -25.5l-10.5 -14t-8.5 -14t-8 -14.5t-8 -12.5zM1957 292q0 -8 9 -16q7 -7 19 -7q5 1 9 1q18 4 21 19q0 10 -4 21.5t-8 19.5q-10 0 -20.5 -5.5t-17.5 -13.5q-8 -10 -8 -19zM2275 401 q-6 16 -6 34q1 22 9 47q16 46 51 85l4 -4q-33 -39 -49 -85q-8 -23 -7 -43q0 -19 7 -34q14 -29 27 -36t18 -9v-4q-2 0 -20 8t-34 41z" />
<glyph unicode="O" d="M14 180q0 53 11.5 119t40.5 139l2 4q-27 35 -41 82q-2 4 -2 11.5v13.5q0 53 43 80.5t104 27.5h12q68 78 140.5 116t134.5 38q117 0 127 -117q23 -18 31 -41.5t12 -58.5l8 8q49 47 109.5 69.5t125.5 22.5q16 0 38 -2t38 -6q82 -10 156 -55t135 -101q68 -57 139.5 -105 t149.5 -77q47 -22 103 -22h5q35 0 70 9t63 27q49 29 79 60t40 43l6 6l4 -4q-6 -6 -12 -13.5l-14 -17.5l-14 -14q-16 -16 -35 -32.5t-45 -33.5q-68 -41 -144 -41q-33 0 -61.5 7.5t-52.5 17.5q-80 35 -155 82t-134 100q-61 53 -132 98.5t-151 55.5q-37 6 -71 6 q-61 0 -121 -20.5t-113 -67.5l-14 -14q2 -10 2 -21.5v-21.5q0 -29 -3 -60t-10 -59q31 8 67 20.5t65 24.5q14 6 31.5 12t31.5 12q45 20 88 21q35 0 70 -12q39 -16 65.5 -55.5t30.5 -84.5q1 -9 1 -18q0 -42 -16 -77q-18 -42 -50.5 -72.5t-72.5 -50t-79 -23.5q-16 -2 -32 -2 q-24 0 -48 4q-41 6 -82 22q-37 18 -65.5 47t-51.5 64q-18 -43 -36.5 -83t-40.5 -75q-45 -68 -99.5 -122t-111.5 -81h2q8 -2 24 -2q41 0 83 19.5t78 49.5t61.5 63.5t33.5 62.5l15 -4q-10 -31 -36 -67t-63 -66.5t-82 -51t-90 -20.5q-33 0 -51 8q-25 -6 -47 -6q-45 0 -84 27.5 t-74 89.5q-14 29 -26.5 76t-12.5 112zM29 170q2 -59 13 -103t26 -69q29 -59 65.5 -84t77.5 -25q14 0 25 2q-63 37 -88 102.5t-25 137.5q0 39 6 76q23 88 57 168q-57 12 -98 47q-20 -39 -35 -94q-20 -74 -24 -158zM39 549q0 -17 2 -21q4 -18 12 -35.5t21 -31.5q23 55 47 100 t47 82q-55 0 -92 -25.5t-37 -68.5zM94 438q18 -16 44 -29.5t52 -19.5q31 57 67 107.5t77 99.5q-29 16 -58.5 27.5t-58.5 15.5q-12 -14 -25.5 -30.5t-21.5 -30.5q-25 -33 -42.5 -67t-33.5 -73zM150 104q0 -59 25.5 -116.5t84.5 -89.5q55 18 113.5 72t105.5 132q23 37 45.5 79 t38.5 85q-10 25 -17 64t-7 65h-19q12 -31 16 -65q1 -6 0 -12q0 -27 -12 -56q-2 -2 -2 -4l-2 -4t-3 -5t-3 -5q-4 -6 -6 3t-5 23.5t-4 29.5t-1 24q10 16 10 34.5t-6 38.5h-4q-25 4 -45 21q-6 -4 -17.5 -9.5t-17.5 -9.5q-40 -21 -94 -29q-29 -5 -57 -4q-22 0 -42 3 q-14 -29 -32.5 -74t-28.5 -78q-6 -27 -10 -56.5t-4 -56.5zM190 387v2h3zM229 653q29 -6 59.5 -18.5t57.5 -26.5q16 20 42 44t55.5 40.5t61.5 22.5q9 2 17 2q23 0 45 -12q-8 45 -34.5 65.5t-61.5 20.5q-33 0 -76 -17q-45 -16 -85 -48t-81 -73zM236 383q22 -5 44 -5t46 5 q47 10 88 29h-2q8 4 14 8t14 8q-12 12 -21 29.5t-13 34.5q-4 10 -5.5 23.5t0.5 27.5q-16 12 -30 26q-76 -84 -135 -186zM369 571h4l-2 -2zM381 578v4q0 -2 2 -2zM383 580q2 -4 10 -9q2 -4 8 -10q4 18 12.5 35.5t18.5 30.5q2 2 0 2l-24.5 -24.5zM410 535q0 -29 11 -55.5 t28 -45.5q4 4 9 6t9 6l6 7q-16 23 -30.5 43t-32.5 39zM410 557q20 -18 40.5 -44t34.5 -48q39 41 63 94q23 49 23 97v8v12q-29 10 -53 3t-49 -24q-14 -8 -31 -34q-10 -12 -17 -30t-11 -34zM461 424q17 -12 35 -14l-6.5 13l-8.5 17q-12 -12 -20 -16zM473 453l4 2l-2 -4 q-2 0 -2 2zM479 444l4 -2l-2 -2q-2 0 -2 4zM494 451q4 -8 12 -20.5t12 -22.5q4 -2 10.5 -2h10.5q6 47 27.5 93t49.5 81q-2 23 -7 43t-15 39v-3l-6 7v-2q0 -59 -24.5 -114.5t-69.5 -98.5zM547 395q0 -27 5 -58.5t17 -53.5q20 59 33 118q-14 -4 -28.5 -5t-26.5 -1zM547 406 q4 0 6 1t6 1q10 2 20.5 4t24.5 2q4 31 8 61.5t4 61.5v28q-57 -74 -69 -159zM567 279q0 2 2 4q0 -2 2 -2zM567 705q2 -2 6 -3l-4 -2q-2 2 -2 5zM580 268q41 -84 108 -118q41 -16 82 -22q24 -3 45 -3q16 0 31 2q37 6 76 24.5t69.5 48t48.5 68.5q15 32 16 71q0 8 -1 17 q-2 41 -28 78t-60 51q-29 12 -62 13q-47 0 -92 -23q-16 -6 -31.5 -12t-31.5 -12q-33 -12 -66 -24.5t-66 -20.5q-8 -35 -17 -70t-21 -68zM604 412v2h2zM616 406l2 2v-2h-2z" />
<glyph unicode="P" horiz-adv-x="686" d="M31 -154q2 16 26 74q4 8 13 29q4 10 8 21.5t10 23.5q6 14 16.5 34.5t18.5 34.5q-18 16 -36.5 44t-25.5 61q-2 4 -2 11v14q0 10 15.5 -8.5t27.5 -34.5q4 -8 11 -15q0 -14 5 -25.5t15 -25.5q31 66 59.5 132.5t59.5 135.5q39 86 82 180.5t90 198.5q20 35 68 57q4 2 11 4.5 t11 4.5q0 -4 -4 -13.5t-10 -21.5t-13.5 -22.5t-13.5 -12.5q-18 -4 -35 -20v2q-47 -92 -83 -171t-81 -182q45 76 87 140.5t88 124.5q49 61 93 99t85 38q39 0 65 -51q10 -20 17.5 -42t11.5 -47q6 -35 6 -73q0 -37 -5 -77t-15 -81q25 16 53 29.5t57 27.5q86 35 174 35 q72 0 137.5 -24.5t112.5 -77.5q18 -23 29.5 -52.5t19.5 -63.5t12.5 -67.5t4.5 -62.5q47 0 107.5 6t98.5 21q35 12 72 33.5t66.5 51t49 64.5t21.5 76h4q0 -39 -19 -77t-49 -68.5t-67 -54t-71 -33.5q-48 -16 -104 -24q-36 -5 -72 -4q-19 0 -37 1q-4 -47 -20.5 -95t-45.5 -83 q-41 -47 -102.5 -73t-126.5 -26q-53 0 -100.5 17.5t-82.5 56.5q-47 49 -47 125q0 53 25 94q25 35 65.5 51.5t85.5 16.5q35 0 66 -11.5t51 -29.5q15 2 30 2q19 0 38 -3q35 -5 69 -15q39 -10 82 -17q-2 68 -12 132.5t-49 103.5q-47 53 -109.5 76.5t-130.5 23.5q-90 0 -176 -35 q-55 -20 -115 -67v2q-18 -72 -51 -140.5t-73 -109.5q-51 -55 -121 -83t-140 -28q-18 0 -39.5 2t-37.5 6q-29 4 -54.5 11.5t-42.5 17.5q-6 -10 -7 -16t-5 -13q-12 -29 -23.5 -52t-21.5 -44q-4 -18 -19 -49t-28 -35q-2 -1 -3 -1q-5 0 -5 11zM51 -127q2 6 10 23l11 22 q-4 -12 -8.5 -23.5t-8.5 -21.5h-4zM72 -82l4 6q4 10 8 21.5t8 23.5q-6 -14 -11 -26.5t-9 -24.5zM92 -31q4 8 7 15.5t7 15.5q2 4 3 4l2 2v-2q-4 -10 -9.5 -17t-9.5 -18zM111 6v2q0 2 2 6q0 -2 -1 -4t-1 -4zM113 14q2 0 2 2zM139 72l2 10q2 2 2 4h4l-3 -6t-1 -8h-4zM152 63 q32 -16 70 -23q29 -5 60 -5h17q66 2 129.5 30.5t110.5 79.5q51 57 84 115q8 18 4 45q-4 -2 -9 -6q-37 -33 -75.5 -64.5t-89.5 -58.5q-25 -10 -53.5 -17t-55.5 3q-29 10 -51.5 32.5t-26.5 51.5q-4 31 9.5 57.5t35 47t50 33.5t55.5 19t61 7q49 0 93 -18.5t61 -65.5 q10 10 20.5 17t20.5 15q16 41 27.5 89.5t11.5 99.5t-17 117q-2 4 -3 8t-3 8t-6 11t0 3q-25 49 -55 49q-25 0 -55.5 -20.5t-64.5 -57t-70 -87t-72 -107.5q-39 -59 -75 -121.5t-71 -128.5l-37 -86q-8 -18 -15 -35.5t-15 -36.5zM276 246q4 -29 23.5 -48.5t44.5 -27.5 q27 -10 53.5 -3t55.5 19q35 18 70.5 47t72.5 62q8 6 15 13t16 14q-14 41 -55.5 59t-86.5 18q-35 0 -69 -10q-25 -6 -51.5 -18.5t-46.5 -30.5q-22 -18 -34 -42q-9 -18 -9 -39q0 -6 1 -13zM629 270l6 13q0 -4 -1 -6.5t-1 -6.5h-4zM635 283q8 14 14 27.5t17 29.5 q-8 -6 -17.5 -15.5l-13.5 -13.5q0 -8 1 -14t-1 -14zM803 -16.5q10 -30.5 33 -53.5q39 -39 86 -56t96 -17q59 0 116.5 25.5t98.5 72.5q31 31 44 80t13 90q-16 4 -33.5 6t-33.5 6q-33 7 -66 13q-24 4 -49 5q-9 0 -18 -1q4 -6 10 -15.5t10 -17.5v2q16 -27 3 -56.5t-40 -41.5 q-14 -7 -27 -7q-18 0 -34 14q-26 23 -21 52q0 31 19.5 50.5t48.5 27.5q-23 14 -50.5 23.5t-56.5 9.5q-37 0 -73.5 -15.5t-59.5 -50.5q-26 -34 -26 -82q0 -33 10 -63.5zM1001 84q1 -27 21 -44q13 -11 28 -11q9 0 19 4q23 10 34 34.5t-1 53.5v-2q-4 8 -15.5 19.5l-15.5 15.5 q-29 -4 -49.5 -22.5t-20.5 -47.5zM1642 547q4 0 16.5 -9.5t27.5 -25.5q-14 18 -25.5 26.5t-13.5 10.5zM1686 512q2 -4 4 -6t4 -6q-2 4 -4 6t-4 6zM1694 500q12 -18 21 -43t11 -58h-4q-2 35 -10 59.5t-18 41.5z" />
<glyph unicode="Q" horiz-adv-x="665" d="M8 168q0 66 16.5 135.5t38.5 130.5q0 8 3 10v-2q2 4 3 6.5t3 6.5q-33 43 -33 104q0 39 12 75t35 60q2 2 3 4t5 4q2 2 4 3.5t6 5.5q4 2 4.5 -7.5t-3 -22.5t-7.5 -28.5t-8 -21.5q-16 -16 -24.5 -38t-8.5 -44q0 -18 5.5 -37.5t13.5 -36.5q37 92 85 156.5t98 105.5 t100.5 59.5t93.5 18.5q45 0 77.5 -20.5t44.5 -55.5q4 -10 6.5 -20t4.5 -23q31 -16 38 -64t7 -91q0 -94 -27 -174q20 -8 33 -13q10 16 17.5 32.5t13.5 27.5q6 10 16 24.5t21 14.5q8 0 8 -13q0 -27 -18.5 -52.5t-39.5 -37.5v2l-2 -4v-2q53 -35 93 -91t40 -128q0 -23 -10 -57 q2 -2 5 -4.5t7 -6.5q0 -4 9 -4q92 -59 180 -98t197 -39q88 0 181 31t171 88t128 140t50 188q0 59 -18.5 105t-50 78t-72.5 48t-86 16q-27 0 -67 -12t-77 -37.5t-63.5 -66.5t-26.5 -99q0 -29 9.5 -49t23.5 -33.5t27.5 -20.5t23.5 -11q2 -2 4 -2t4 -2l4 -5q-37 10 -55 23 q-18 14 -33.5 39.5t-15.5 71.5q0 59 27.5 100t66.5 66.5t80 37t70 11.5q43 0 86 -15.5t76.5 -47.5t54 -80t20.5 -113q0 -111 -53 -198t-133 -145.5t-176.5 -89t-182.5 -30.5q-115 0 -202.5 40t-180.5 101h3q-4 4 -9 6q-10 4 -10 6q-18 -37 -56 -67.5t-81 -30.5 q-35 0 -65.5 15.5t-45.5 48.5q-20 -41 -41.5 -81t-44.5 -83q-25 -45 -50.5 -92.5t-49.5 -98.5l-8 -16q-2 -6 -6 -14q-2 -4 -5 -7q-10 -18 -30.5 -37.5t-48.5 -29.5q-4 0 -11.5 -2t-11.5 -4q-4 0 0 8t11.5 18t16.5 21.5t15 15.5q18 6 41 25q12 12 43 84.5t78 171.5 q25 55 51.5 113.5t53 114.5t51 108.5t45.5 93.5q-10 -4 -17.5 -6t-15.5 -7q-31 -80 -78 -152.5t-102.5 -127.5t-112.5 -88t-111 -33q-90 0 -137 84q-23 37 -32 78t-9 88zM29 166q0 -39 7 -77t27 -79t52 -59.5t71 -18.5q63 0 140 53.5t143 139.5q33 45 58.5 91t43.5 99h-12 q-31 0 -56.5 16.5t-39.5 53.5h-8q-4 0 -6.5 1t-4.5 1h-32.5t-28.5 -2q-53 -16 -104 -16t-102.5 14t-88.5 49q-20 -59 -39.5 -126.5t-19.5 -139.5zM86 434l4 2l-2 -4q-2 0 -2 2zM96 449q29 -35 81 -50.5t102 -15.5q41 0 76.5 8t58.5 21q10 6 19 12t20 14q-2 16 -2 32 q0 30 7 62q11 50 34 97q35 68 77 69q-2 10 -6 27q0 4 -1 5t-1 5q-6 16 -20.5 30.5t-30.5 25.5q-23 4 -51.5 4t-59.5 -13q-66 -23 -125 -76t-100 -116q-23 -35 -42 -72t-36 -69zM412 395h12q6 0 12 1t15 1l8 2q-2 2 -2 11q0 2 -1 4t-1 6q-4 -2 -7.5 -3t-5.5 -3 q-6 -4 -12 -7.5t-12 -7.5h2zM469 451q49 41 76.5 97t27.5 118q0 2 -1 2t-1 4q-10 -6 -26.5 -21.5t-26.5 -38.5q-2 -4 -3 -5t-3 -5q-14 -29 -26.5 -60.5t-16.5 -70.5v-20zM471 430q0 -12 4 -24q0 -2 1 -4.5t1 -6.5q57 -4 115 -26q24 86 24 172q0 33 -3 62.5t-25 53.5 q-2 -66 -33 -126t-84 -101zM481 385q10 -20 29.5 -37.5t48.5 -17.5h19q4 10 6 16l4 12q-25 10 -51.5 16.5t-55.5 10.5zM530 37q14 -27 43 -46.5t60 -19.5q41 0 74.5 30t52.5 65q-8 4 -14.5 9t-14.5 9q-35 23 -67.5 41t-65.5 18q-16 0 -20 -2q-4 -8 -8.5 -18t-8.5 -19 q-6 -14 -11 -25t-11 -24l-2 -4zM582 154h6q4 0 6 1t6 1q41 0 84 -25t80 -53q8 26 8 51q0 66 -36 118t-89 85q-10 -23 -16 -45.5t-17 -46.5q-8 -23 -15 -43.5t-17 -42.5zM592 336h2v-2zM594 336q4 2 10 3t12 5q2 2 2 1t5 1q-6 4 -12.5 6t-10.5 4q-2 -4 -1 -5t-1 -5 q-4 -8 -4 -10zM645 334l4 2q0 -2 -1 -2t-1 -2zM670 383q20 25 26 49q-2 -2 -5 -9t-7 -13q-8 -8 -8 -13q-2 -4 -3 -7t-3 -7zM696 432q2 2 2 4l2 -2l-2 -2h-2z" />
<glyph unicode="R" horiz-adv-x="684" d="M16 336q-2 2 -2 4q0 3 6 3q10 1 24.5 0t31 -4t22.5 -5q15 -17 58 -21q23 0 39 6q10 4 22 13q-18 29 -20 61q-1 8 -1 15q0 34 15 65q18 37 49 65.5t70 48t76 29.5h8q2 0 2 1t4 1q27 55 53.5 105.5t54.5 85.5q12 14 24 15v0q11 0 11 -21q0 -25 -21.5 -72t-56.5 -106h17 q4 4 16 20q45 53 86 85t78 32q43 0 72 -55q10 -23 17 -53.5t9 -67.5v-21q41 33 89.5 63.5t101.5 51.5q57 18 118.5 29.5t124.5 11.5q102 0 194.5 -32t160.5 -107q27 -31 43 -73t26.5 -89t15.5 -95.5t5 -91.5q25 -2 50 -2q65 -1 139 11q102 16 190 59t147.5 115.5t63.5 183.5 v12q-1 44 -13 78q-14 39 -33.5 66.5t-38 43t-24.5 17.5v4q6 0 24.5 -13t40 -41t38 -69t16.5 -98v-7q1 -101 -55 -173q-58 -74 -147 -119t-195 -65q-88 -16 -170 -16q-17 0 -33 1q-4 -70 -23.5 -135.5t-66.5 -114.5q-59 -66 -144.5 -102.5t-177.5 -36.5q-39 0 -82 9t-78 26 q-37 -8 -76.5 -10t-70.5 -2q-80 0 -145.5 19.5t-117.5 51t-93 71.5t-74 83q-20 27 -39.5 52.5t-36.5 47.5q-16 0 -38.5 2t-37.5 6q-45 12 -77 35q-10 -16 -15.5 -33.5t-11.5 -33.5q-2 -4 -5 -10.5t-1 -4.5q-29 -66 -49.5 -112.5t-30.5 -57.5q-4 -4 -8 -4t-8 10q0 14 8 38 t21.5 53.5t27.5 60.5t27 57l26 52l-6 6q-10 10 -19.5 21t-9.5 28q0 8 13 18q-4 4 -5.5 4t-5.5 4q-4 -2 -11 -6t-9 -6q-14 -4 -28.5 -8t-28.5 -6q-25 -4 -57 1t-60 28q-2 2 -3 2t-3 2q-6 4 -13 10zM168 -2q27 51 43 100q4 10 10 23.5t10 23.5h5l-3.5 -7l-3.5 -7q-4 -6 -5 -11 t-3 -7v2q-14 -35 -25.5 -61.5t-19.5 -45.5q-2 -4 -2 -5t-2 -5h-4zM209 393q4 -31 20 -53q27 16 54.5 42t56.5 60v-2q14 33 31.5 74t38.5 86q-2 0 -1 -1t-3 -1q-37 -8 -74 -25.5t-66.5 -43t-45.5 -60.5q-12 -26 -13 -55q0 -10 2 -21zM242 324q2 0 2 -1t2 -1q0 -6 6 -7 q10 4 21.5 3t17.5 -3l31 84q-4 -4 -8.5 -9t-8.5 -9q-14 -16 -30.5 -31.5t-32.5 -25.5zM246 293q0 -12 24 -31q4 8 4 12q0 2 2 5q0 2 1.5 2t1.5 2q-20 10 -27 16zM270 258v4q2 -2 4 -2zM270 303q5 -4 13 -8q2 2 2 6q-8 4 -15 2zM285 301v2l2 -2h-2zM293 250l4 -4 q45 -23 109 -29q-27 33 -52 51q-12 0 -26.5 2t-24.5 6q-2 -4 -2 -7t-2 -7q-6 -10 -6 -12zM307 283q10 -4 16.5 -3t16.5 1l-4 2q-6 4 -11.5 7t-13.5 3q-4 -4 -4 -10zM319 307q10 -4 24.5 -12t23.5 -14q23 2 45 10t45 18q57 31 112.5 75t110.5 95q4 4 11 10.5t11 10.5 q-4 25 -21 46t-40 32q-66 31 -129 32q-16 -23 -34 -47t-34 -49q-37 -55 -67.5 -107.5t-57.5 -99.5zM346 383q8 16 14 25l-10 -25h-4zM360 408q33 57 66 109t63 93h-12q-14 -23 -28.5 -46t-30.5 -46q-2 -2 -2 -3t-2 -3v2q-10 -16 -18.5 -31.5t-18.5 -38.5q-4 -10 -7 -16 t-8 -14zM377 270l24.5 -24.5t24.5 -28.5q70 12 130 47t103 88l3 2q10 10 17 20.5t11 18.5q16 33 16 68q0 9 -1 18q-59 -53 -118 -99t-130 -83q-18 -10 -39 -16.5t-41 -10.5zM430 567l6 8q4 8 9.5 16.5t11.5 16.5h-4q-4 0 -4 -1t-3 -1q-6 -14 -7 -18t-9 -21zM453 625h14 q35 55 56.5 104t25.5 72q0 2 -1 4t-1 4q-4 -2 -5 -5t-3 -5q-20 -35 -38 -71t-34 -73q-4 -6 -5 -10t-3 -8l-3 -6zM455 182q4 -6 7 -10t7 -10q12 -16 24.5 -34.5t28.5 -37.5q33 -41 73 -81t91 -70.5t113.5 -50t140.5 -19.5h55.5t67.5 6q-43 27 -74 62q-33 35 -47 73.5 t-14 81.5q0 76 41 141q39 51 93 76t114 25q88 0 159 -53q37 0 96.5 -7.5t106.5 -17.5q29 -4 54.5 -10t52.5 -10q0 37 -3.5 81.5t-12.5 90t-26.5 87.5t-46.5 74q-66 76 -154.5 107t-184.5 31q-59 0 -125 -11.5t-121 -29.5q-49 -23 -96.5 -52.5t-96.5 -68.5 q-4 -61 -27.5 -120.5t-68.5 -107.5q-45 -49 -100.5 -86.5t-126.5 -48.5zM520 623q70 -4 127 -35q51 -33 64 -84l7 7l7 7q10 10 18 17v-3q6 33 7 72q0 49 -13 103q-22 41 -55 41q-35 0 -75 -33t-87 -92zM662 354l4 4l4 -4l-4 -4zM705 418q2 4 3 8t5 8q-4 -12 -4 -16h-4z M713 434q8 16 15 35.5t11 42.5l-14 -14q-8 -9 -12 -11q4 -25 0 -53zM942 96q0 -39 14.5 -77.5t42.5 -71.5q20 -23 42 -40.5t42 -27.5q41 10 77 27.5t48 52.5q4 6 15.5 14.5t24 14.5t20.5 9t8 1q-2 -4 -4 -9t-4 -9v-5q-23 -43 -67 -68.5t-97 -35.5q66 -29 141 -29 q86 0 170 38t144 106q47 49 65 112.5t21 124.5q-33 2 -67 8.5t-65 14.5q-41 10 -79 17q-24 4 -52 4q-16 0 -32 -1q10 -10 17 -21.5t15 -25.5v2q12 -18 12 -38.5t-8 -40t-22 -35t-33 -23.5q-25 -10 -46 -6t-37.5 17.5t-25 32.5t-5.5 38q0 43 28.5 71.5t69.5 38.5 q-61 43 -139 43q-53 0 -105.5 -23.5t-87.5 -72.5q-41 -57 -41 -127zM1229 162q1 -36 31 -60q18 -14 38 -14q14 0 29 6q35 16 48 52q5 15 5 30q0 21 -10 43q-12 29 -41 47q-39 -4 -69.5 -33.5t-30.5 -70.5z" />
<glyph unicode="S" horiz-adv-x="778" d="M10 156q0 59 19.5 115.5t54.5 99.5q59 72 141 95q65 18 139 18q19 0 39 -1q29 -4 62 -20.5t53 -40.5q4 -4 7 -11.5t5 -11.5q0 -4 -10 -2t-22.5 6.5t-24.5 9.5t-16 9q-8 14 -19.5 22.5t-23.5 14.5q-8 2 -21 6v-2q-27 4 -58.5 -1t-66.5 -34t-53 -69q-15 -33 -15 -65 q0 -7 1 -15q4 -49 34.5 -80t61.5 -43q33 -12 68 -13q35 0 67.5 12.5t56.5 39.5q23 23 41.5 47t36.5 51q14 18 25.5 34.5t28.5 32.5q-31 47 -73 101.5t-89 111.5q-14 14 -29.5 39t-26.5 56q-10 29 7.5 61.5t42.5 42.5h-2q29 16 72.5 25.5t94.5 9.5q43 0 86.5 -7t82 -22.5 t69.5 -38t49 -53.5q0 -4 6 -10q0 -4 4 -12q2 -6 -7 -4t-21.5 8t-24.5 15t-16 15q-20 49 -69.5 62.5t-98.5 17.5h-35q-41 0 -81 -5t-70 -17q-68 -29 -68 -74q0 -39 47 -98t87 -111.5t73 -101.5q63 80 161.5 131t200.5 61q20 2 39 1q70 0 131 -22q78 -30 136.5 -87.5 t94.5 -139.5t42 -176q31 0 65.5 8.5t67.5 22.5t59.5 34.5t40.5 49.5q0 6 2 8q0 6 4 6q0 4 2 6q0 2 1 2t1 5q0 2 1 3t1 5q8 33 8 61q0 12 -1 23h-2q0 8 -5 24q-2 4 -4 9.5t-4 11.5q-4 8 -8 20.5t-6 16.5q-10 20 -23.5 35.5t-17.5 19.5l4 4q6 -6 17.5 -19.5t27.5 -39.5 q0 -4 4 -13h4q2 -4 5 -13t8 -19q0 -4 1 -6.5t1 -6.5q0 -6 2 -10q4 -17 5 -33v-6q0 -14 -3 -31q0 -2 -1 -4t-1 -4q-2 -6 -4 -16t-2 -14q-12 -33 -40 -59.5t-63 -46t-75 -31t-74 -13.5q-2 -39 -11.5 -80t-25.5 -76q-37 -74 -113 -115.5t-160 -41.5q-57 0 -108 22 q-47 23 -86 64t-53 92q-8 27 -7.5 56.5t9 56t25 49t40.5 37.5h-2q14 12 32.5 17t41.5 5q29 0 61.5 -13.5t55.5 -31.5q18 4 34.5 2t38.5 -6q16 -2 29.5 -4t30.5 -6q35 -6 77.5 -10.5t79.5 -6.5q-2 86 -33.5 165t-89 137.5t-135.5 88.5q-55 21 -119 20q-26 0 -53 -3 q-98 -10 -195.5 -57.5t-158.5 -127.5q4 -4 9 -13t11 -19v2q4 -4 5.5 -9.5t5.5 -9.5q29 -47 40 -89t11 -81q0 -90 -53.5 -156.5t-141.5 -105.5q-80 -37 -174 -37q-78 0 -151.5 28t-122.5 85q-35 41 -51.5 92t-16.5 107zM49 162q0 -45 14.5 -89t47.5 -81q41 -53 107.5 -82 t143.5 -29q66 0 134 23q59 18 109 56t79 97q14 41 14 84q0 47 -13 92.5t-34 83.5v-2l-12 19q-4 4 -10 18q-12 -16 -25.5 -33.5t-23.5 -33.5q-18 -27 -37 -51.5t-41 -47.5q-55 -55 -135 -55q-39 0 -78 16q-29 12 -62.5 45t-36.5 87q-1 7 -1 15q1 40 19 74q22 42 54 68 q41 31 86 35h-4q-51 0 -82 -8q-35 -10 -66.5 -26.5t-60.5 -53.5q-41 -43 -63.5 -101.5t-22.5 -119.5zM395 463v4q8 0 13 -2q2 0 3 -1t3 -1l-2 -4q-2 2 -9 2q-4 0 -4 1t-4 1zM885 -4q16 -53 55 -92t86 -58q23 -8 50.5 -13t51.5 -5q76 0 148 40t110 107q14 29 23.5 74t9.5 80 q-53 2 -109.5 9t-103.5 18q-16 4 -33.5 8t-33.5 0q16 -23 25.5 -53.5t-11.5 -57.5l-4 2q12 27 4 54.5t-25 52.5q-6 0 -18 -4q-4 0 -5 -1t-5 -1v4q0 2 2 4l6 2q4 2 12 2q-23 20 -47 28.5t-51 8.5q-41 0 -76 -21q-44 -29 -60 -82q-8 -27 -8 -54q0 -26 7 -52zM1060 116 q9 26 34 42l4 -4q-20 -12 -29.5 -40t0.5 -46q8 -29 36 -28t44 17l4 -2q-5 -12 -19 -18q-12 -5 -25 -5h-4q-15 1 -27.5 9t-16.5 22q-5 14 -5 28q0 13 4 25zM1681 293q2 2 2 6h5q0 -8 -2 -10zM1683 301q2 2 3 4h4q0 -6 -2 -8z" />
<glyph unicode="T" horiz-adv-x="665" d="M12 512v20q0 78 29 130q33 58 85 90t116.5 44.5t124.5 12.5q86 0 156.5 -9t127 -23.5t98.5 -29t70 -26.5q14 -6 26.5 -10t22.5 -9q10 10 27.5 19.5t30.5 7.5q14 -8 14 -22q2 -16 -21.5 -19.5t-37.5 -1.5q-8 -10 -19.5 -26.5t-21.5 -32.5q8 -4 13 -4t13 -2t14.5 -4.5 t16.5 -4.5q53 -16 95 -64t61 -104q8 -25 8 -59q0 -41 -18.5 -81t-55.5 -66q-39 -27 -92 -27q-35 0 -64.5 12.5t-52.5 34.5q-27 -4 -58.5 -1t-57.5 7q-2 0 -5.5 1t-5.5 1q-27 -53 -47 -102t-37 -88q-2 -4 -2 -5t-2 -5q-4 -10 -10 -21.5t-12 -24.5q31 -47 76 -81.5t97 -56.5 q52 -20 108 -30q35 -6 68 -7q21 0 42 3q106 16 213.5 70.5t173.5 147.5q6 10 13 19t14 19q27 39 51 73t59 69q57 63 143 63q18 0 41 -4t41 -12q33 -14 70 -50t39 -89q1 -8 0 -16q0 -42 -18 -82q-22 -46 -58 -74q-35 -28 -78 -38q-20 -4 -37 -5q-20 0 -36 6v4q18 -5 39 -5 q12 0 26 2q36 5 78 40q34 30 56 74q20 41 20 86v8q-6 53 -40 85.5t-71 45.5q-31 12 -65 12q-76 0 -138 -55q-29 -31 -55.5 -66t-50.5 -70q-10 -14 -19.5 -27t-19.5 -28q-68 -92 -171 -145t-220 -68q-24 -3 -47 -3q-33 0 -65 5q-56 8 -109.5 28.5t-98.5 55.5t-75 82 q-27 -53 -73 -91t-124 -38q-76 0 -116 40t-48 87q-6 23 -6 56.5t12 72.5q10 37 40 66.5t69 50t82 32t82 13.5q2 43 11 88t28 82q18 39 53 69.5t78 52t90 34t90 12.5q10 16 22.5 32.5t26.5 26.5q-16 4 -47 19q-29 12 -68 26.5t-89 26.5t-111.5 21.5t-135.5 9.5 q-180 0 -275 -73q-89 -69 -89 -196v-16q2 -41 14.5 -78t35 -65.5t57 -46t81.5 -17.5q51 0 93 19.5t71 50t45 67.5q14 33 13 62v8q-4 29 -17.5 49.5t-30.5 38.5q-16 16 -27.5 35.5t-8.5 48.5q33 -23 53 -48.5t29.5 -49t12.5 -43t3 -31.5v-8q-1 -32 -15 -67 q-16 -40 -47.5 -73.5t-78 -55t-101.5 -21.5q-84 0 -144.5 60.5t-64.5 166.5zM150 147q2 2 2 5q0 2 1 2t1 2l2 -4q0 -6 -2 -9zM176 51q2 20 10.5 46t26.5 47.5t50 38t79 18.5q6 0 15.5 -1t9.5 -5q0 -2 -8.5 -8.5t-19.5 -13.5t-22.5 -13t-17.5 -8h-10q-41 0 -72 -36 q-27 -32 -27 -83v-13q2 -47 36 -86.5t112 -39.5q63 0 103 47t71 112q-23 49 -39 112.5t-18 121.5q-37 -2 -80 -12.5t-80 -30t-65.5 -47t-39.5 -64.5q-8 -23 -12 -44q-3 -14 -3 -26q0 -6 1 -12zM465 287q2 -59 14.5 -117.5t38.5 -106.5q10 25 20.5 51.5t20.5 55.5 q10 27 19.5 52.5t21.5 51.5q-4 0 -5 1t-5 1q-27 4 -60.5 7.5t-64.5 3.5zM471 295q29 0 66.5 -4t66.5 -8q31 66 61.5 129.5t71.5 122.5q12 23 26.5 44t31.5 44h-8q-84 0 -161 -40q-81 -42 -122 -122q-34 -68 -34 -143q0 -11 1 -23zM516 59q0 2 2 4q0 -4 2 -4h-4zM655 276 q29 -6 56.5 -9t58.5 1q-16 20 -24.5 53t8.5 58v-2q6 12 20 19t29.5 7t29 -8t19.5 -24q10 -29 0 -59.5t-43 -47.5q-4 -2 -8 -3t-10 -3q20 -20 46.5 -28.5t55.5 -8.5q47 0 84 25t54.5 61.5t17.5 77.5q0 35 -9 59q-16 53 -58 97.5t-89 60.5q-10 4 -19.5 6t-19.5 4l-18 6 q-41 -66 -90.5 -161t-90.5 -181zM753 324q7 -26 23 -50l6 -6q2 0 3 1t3 1q4 2 12.5 4t10.5 2q23 12 33 41t0 52q-8 29 -37 29t-45 -25q-11 -16 -11 -34q0 -7 2 -15zM895 700h12q14 0 19 5q0 4 -3 6t-5 4q-12 -4 -23 -15zM1509 -37l2 4q4 0 9 -2q12 -8 36 -14v-4 q-37 8 -47 16zM1554 -53l7 -2q-4 0 -7 2z" />
<glyph unicode="U" horiz-adv-x="878" d="M14 311q0 123 50.5 208t128 138.5t171 79t179.5 29.5q41 43 57 58.5t37 15.5q27 0 27 -27q0 -23 -28 -42t-81 -21q-10 -10 -20.5 -23.5t-20.5 -26.5q-6 -6 -8 -10q90 -18 178 -62t166 -98q16 14 39.5 27.5t46.5 24.5h-2q14 18 33 32q6 6 17 13.5t17 3.5h-2q8 -4 9 -19v-6 q16 6 41 10q31 6 69 7q63 0 120.5 -19.5t96.5 -64.5q23 -27 35 -61t12 -70q0 -41 -19.5 -77t-62.5 -59q-39 -22 -74 -22h-3q-33 0 -64 13t-60.5 33.5t-55 45.5t-50.5 49q-14 14 -25.5 26.5t-23.5 22.5q-35 -59 -78 -116.5t-73 -98.5q-4 -8 -9.5 -13t-11.5 -13 q39 -57 107.5 -91t130.5 -45q14 -4 29.5 -4h31.5q66 0 125 20.5t114.5 53.5t106.5 76t101 86q12 10 24 23.5t25 27.5q35 39 78 75t102 36q23 0 43 -15.5t33 -35.5q66 -4 119 -39t100 -80q50 -49 110 -88q52 -34 118 -34q10 0 20 1q70 12 134 47t99 96q27 41 44.5 88t17.5 95 q0 43 -17 86q-23 47 -65.5 89t-96.5 58q-26 6 -53 6q-37 -1 -73 -11q-64 -18 -101 -65l-4 4q35 49 101 67q40 11 80 12q25 0 50 -5q63 -16 105.5 -59t64.5 -90q18 -47 19 -92q0 -51 -18.5 -99.5t-43.5 -89.5q-86 -127 -243 -149q-13 -1 -26 -1q-28 0 -52 6q-35 9 -65.5 26.5 t-57.5 42t-53 48.5q-45 43 -95.5 79t-111.5 40q10 -27 10 -39q0 -27 -26.5 -29.5t-40.5 9.5q-16 16 -10.5 35.5t24.5 27.5q14 6 29 7q-10 18 -29 30.5t-41 12.5q-53 0 -93 -33t-77 -74q-14 -16 -26.5 -29.5t-26.5 -27.5q-47 -43 -99.5 -86t-109 -77t-117.5 -54.5t-129 -20.5 h-30.5t-28.5 4q-70 12 -137.5 46t-104.5 93q-2 -2 -3 -4t-3 -4q-16 -31 -27.5 -64.5t-11.5 -56.5q0 -77 56 -77h1q16 2 39 14t45 41l12 -10q-27 -33 -54 -47.5t-52 -14.5q-29 0 -44 13.5t-22.5 31t-8.5 31.5t-1 16v14.5t2 14.5q0 4 1 9t1 14q-10 -10 -20.5 -22.5 t-20.5 -22.5q-53 -59 -111.5 -81t-117.5 -22q-35 0 -73 10.5t-68.5 36t-51 69.5t-20.5 109q0 68 20.5 133.5t56.5 128t82 123t97 115.5q-14 2 -26.5 3t-26.5 1q-61 0 -124 -19.5t-112 -56.5q-63 -59 -106 -140t-43 -175q4 -23 16 -42t27 -36q14 -16 24.5 -33.5t7.5 -42.5 q-33 14 -51 39t-27.5 49.5t-11.5 45t-2 30.5zM256 672q72 28 156 28h6q14 0 29.5 -1t29.5 -3q4 6 12.5 14.5l14.5 14.5l24 25q-74 -4 -142.5 -21.5t-129.5 -56.5zM260 160q0 -6 1 -12.5t1 -12.5v-14q2 -33 20.5 -57.5t46 -42t58.5 -25.5t57 -8q80 0 135.5 40.5t118.5 110.5 q4 35 14.5 67t22.5 66q-5 24 -5 47q0 51 24 95q34 66 88 108q-74 53 -163 96.5t-177 65.5q-41 -53 -84 -117.5t-78 -134.5t-57.5 -139.5t-22.5 -132.5zM528 750l4 4l3 -4h-7zM569 766q41 2 59.5 18.5t20.5 28.5q-4 8 -12 12h-3q-8 0 -18 -8q-12 -10 -20 -18 q-8 -10 -13 -16.5t-14 -16.5zM739 285q0 2 1 4t1 4q0 -2 1 -4t1 -4h-4zM741 293q23 59 54.5 112.5t66.5 102.5q-8 4 -12 8q-109 -93 -109 -211v-12zM762 215l2 2q2 0 2 -4zM764 217q43 55 86 118.5t74 121.5q-11 10 -27 22q-35 -59 -69.5 -128.5t-63.5 -133.5zM853 521 l-2 -1l5 2q2 -2 10 -6l4 -6q10 12 19.5 24.5t19.5 22.5q-2 -2 -3 -2t-3 -2q-4 -4 -15 -10t-20.5 -12.5t-14.5 -9.5zM870 510h2h-2zM905 487q8 -8 17 -12h-2q4 -2 4 -4t4 -4q23 41 38 72.5t23 52.5l-4 -2q-4 -2 -10 -3t-14 -5h2q-12 -16 -26.5 -41t-31.5 -54zM928 465v2h2z M946 453q4 -6 20.5 -21.5t20.5 -19.5l51.5 -51.5t56 -48t61.5 -35t67 -13.5q33 0 71 17q41 20 60.5 55t19.5 72q0 70 -51 127q-35 43 -90 60t-111 17q-36 0 -73 -6q-12 -2 -22.5 -4t-18.5 -6q-4 -29 -21.5 -65.5t-40.5 -77.5zM973 598l18 6v-2q2 4 2 14q-4 -2 -14 -12l-4 -4 q-2 -2 -1 0t-1 -2zM1006 596l2 2v-2h-2zM1772 368q-1 -4 0 -8q0 -11 10 -18q9 -8 21 -8q3 0 7 1q16 3 21 21q0 18 -16 39q-10 0 -27 -4q-10 -7 -16 -23z" />
<glyph unicode="V" horiz-adv-x="722" d="M2 295q0 119 49 207t127 146.5t174.5 88t192.5 29.5l2 2q2 2 6 10q2 2 7 13.5t7 15.5q10 16 27.5 24.5t26.5 8.5q10 0 20 -7.5t10 -19.5q-2 -18 -23.5 -37.5t-68.5 -23.5q-23 -63 -37 -138t-20 -147q4 -2 10 -2h10q6 57 34 109.5t65 87.5q49 45 110.5 68.5t124.5 23.5 q16 0 37.5 -2t38.5 -7q2 0 4 -1t6 -1q6 -2 20.5 -4t10.5 0q20 23 50 38.5t71 15.5l20 -2q0 -4 -8 -11.5t-19.5 -13.5t-22.5 -12t-17 -9h-9q-20 0 -41 -14q61 -20 116.5 -59t109.5 -82q68 -55 136 -102.5t144 -79.5q51 -23 113 -23q35 0 69.5 9t67.5 32q45 29 75 56.5 t42 39.5l8 8l4 -4q-8 -10 -15 -19t-18 -20q-16 -16 -37.5 -35.5t-50.5 -37.5q-31 -20 -70.5 -30.5t-78.5 -10.5q-59 0 -111 22q-82 37 -151.5 85t-135.5 102q-51 41 -110.5 82t-118.5 61l-20 -20q-43 -59 -82 -117q-4 -4 -6.5 -9.5t-6.5 -11.5q15 3 29 3q29 0 55 -13 q41 -16 67 -56t30 -87q1 -9 1 -18q0 -41 -16 -75q-18 -42 -51 -73t-73 -50.5t-78 -23.5q-16 -2 -32 -2q-24 0 -49 4q-42 6 -85 25q-8 -18 -18.5 -38t-16.5 -36q-31 -66 -49.5 -102.5t-34.5 -36.5q-10 0 -21 22q-12 27 -25.5 66t-24.5 85t-18 97t-7 100q0 23 1 50.5t5 56.5 q-23 10 -42.5 33.5t-27.5 52.5q-5 19 -5 38t4 37q10 38 28 64q20 27 39.5 38t36.5 17q-59 -6 -140.5 -30.5t-156 -73.5t-127 -126t-52.5 -189q0 -23 2 -29q0 -27 18.5 -50.5t35.5 -39.5q16 -14 28.5 -33.5t12.5 -40.5q-35 18 -55.5 40t-32 43.5t-15.5 40.5t-6 30q0 4 -1 5 t-1 3zM397 592q0 -37 17.5 -71t46.5 -46q10 70 29.5 139.5t48.5 135.5h-12.5t-10.5 -2q-2 0 -4 -1.5t-4 -1.5q-16 -4 -39 -20t-45 -45q-27 -41 -27 -88zM496 303q0 -76 10 -159t45 -142q6 6 23.5 42t46.5 91q8 16 16 34.5t18 39.5q-33 20 -59.5 50t-46.5 65v-2 q-15 30 -23 64q-5 22 -5 45q0 12 1 24h-20q-6 -78 -6 -152zM532 455q-2 -13 -1 -26q-1 -21 3 -41q6 -32 23 -58q23 -37 46.5 -65.5t55.5 -49.5q37 74 80 157t97 175q-2 0 -7.5 -2t-7.5 -2l-12 -4l-12 -4q-16 -6 -32.5 -12.5t-33.5 -12.5q-47 -18 -97 -34.5t-102 -20.5z M532 465q47 4 97.5 20.5t97.5 34.5q16 6 34.5 13.5t39.5 15.5q12 4 23.5 8t23.5 6q23 33 45 67.5t47 67.5q6 8 11 14.5t14 16.5q-8 2 -16.5 3t-16.5 3q-37 6 -72 6q-61 0 -118.5 -20.5t-110.5 -67.5q-37 -37 -64.5 -86t-34.5 -102zM549 2h2h-2zM563 766q39 4 55.5 19.5 t16.5 27.5t-10 12q-8 0 -21 -7t-29 -30q0 -4 -2 -6t-2 -4t-2 -2zM657 213q0 2 2 2h3zM674 207q41 -17 84 -21q23 -2 43 -2q18 0 33 2q37 6 74.5 24.5t67.5 47.5t47 68q15 35 15 78v10q-4 43 -28.5 79.5t-59.5 53.5q-23 10 -46 10t-46 -4h2q-63 -100 -108 -188.5t-78 -157.5z " />
<glyph unicode="W" horiz-adv-x="1122" d="M18 268q0 113 60 209q29 45 64.5 81t78.5 63h-2q70 47 159 65.5t181 22.5q6 10 16.5 26.5t16.5 24.5q8 8 20.5 15t24.5 8t20.5 -4t8.5 -23t-24 -38t-71 -24q-12 -33 -21 -74.5t-18 -93.5q-4 -35 -6 -84t-2 -82q2 -16 3 -33.5t1 -33.5q2 -49 5.5 -99.5t17.5 -103.5 q6 -23 13 -45t18 -41v2l4 -4q8 0 16 14q18 20 31 43q20 33 49 86q10 16 20.5 37t22.5 41v-2q16 35 34.5 69t39.5 70q2 2 2 5.5t2 5.5q0 41 3 97t13 97q14 66 41 140.5t84 121.5q31 23 57.5 23t32.5 -25q4 -11 3 -23q0 -20 -10 -46q-17 -40 -34 -70v2q-39 -70 -74.5 -135.5 t-70.5 -128.5q-2 -23 -2 -48.5v-47.5q0 -86 12 -170t41 -152l4 4q18 16 46 56t59.5 93.5t65.5 115t69 122.5q8 16 18 35t19 33v-2q2 10 0 24q-6 -4 -9.5 -9t-9.5 -9q-27 -23 -57.5 -46.5t-65.5 -41.5q-33 -16 -63 -16q-14 0 -27 4q-23 8 -41 27.5t-22 41.5q-4 27 6 48.5 t28.5 37t42 26.5t46.5 17q25 6 52 6t53 -6t45.5 -21.5t25.5 -39.5q10 8 17 14t18 15v-3q25 43 47 81t41 65q25 35 53.5 66.5t50.5 48.5q17 13 61 31q25 10 53 11q20 0 42 -6q4 -2 9 -4t9 -4h4q4 -4 -4 -8t-20.5 -8t-26.5 -7t-22 -3q-23 12 -51.5 4t-51.5 -25 q-43 -35 -82 -90q-16 -23 -31.5 -47.5t-31.5 -50.5q-6 -10 -7 -12.5t-8 -12.5q33 23 86 45q35 10 70 17.5t72 7.5q59 0 110 -18.5t92 -61.5q33 -35 42.5 -85t13.5 -95q0 -16 -2 -23q16 0 39.5 1t47 3t46 5t37.5 10q31 8 59.5 25.5t53 42t40 54t17.5 62.5h4 q0 -33 -16.5 -64.5t-41 -58.5t-54.5 -45t-56 -25q-39 -10 -85 -15q-33 -4 -65 -4q-13 0 -26 1q-4 -41 -16.5 -79t-37.5 -66q-35 -37 -85 -59.5t-103 -22.5q-43 0 -81 15t-66 46q-43 47 -43 105q0 41 24 75q29 34 79 48q22 6 43 7q27 0 52 -10q16 0 26.5 -10t20.5 -16 q25 2 54.5 -2t56.5 -11q16 -2 32.5 -5t32.5 -5v21q0 43 -9 88t-42 82q-39 43 -90 61.5t-106 18.5q-35 0 -71 -7.5t-71 -17.5q-25 -10 -52.5 -26.5t-49.5 -34.5q-18 -35 -32.5 -63t-26.5 -50q-37 -74 -76 -141.5t-75 -124t-63.5 -97.5t-41.5 -57q-10 -10 -21 -10q-2 2 -4 2 q-4 0 -6 2q-16 29 -40 94.5t-36 142.5q-4 27 -6 54.5t-4 54.5q-12 -20 -21.5 -38.5t-19.5 -39.5q-51 -96 -88 -165.5t-60 -92.5q-16 -18 -28 -18q-8 0 -11.5 5t-7.5 9q0 2 -2 4q-14 27 -29.5 68t-27.5 87t-19.5 96t-7.5 97q2 82 18.5 173t51.5 167q-86 -4 -159 -25.5 t-152 -70.5q-63 -39 -122 -107.5t-81 -162.5q-2 -12 -3 -27.5t-1 -32.5v-8v-19.5t4 -19.5q6 -23 19.5 -44t35.5 -30q6 -6 13.5 -17t13.5 -22.5t8 -20.5t0 -9q-6 2 -13.5 4t-11.5 6q-35 23 -59.5 69t-24.5 111zM578 709q41 4 57 19t16 28q0 10 -6 12t-13 -1t-15.5 -9 t-12.5 -10q-18 -18 -26 -39zM850 459q29 59 61.5 118.5t67.5 118.5q17 29 29 62q7 18 6 36q0 14 -4 29v-2q-6 6 -33 -10q-51 -39 -73.5 -101.5t-35.5 -127.5q-6 -29 -10 -58.5t-8 -64.5zM893 438q6 -20 22.5 -37.5t32.5 -23.5q23 -8 45 -2t45 16q29 16 60.5 41t60.5 51 q4 4 10.5 9.5t10.5 9.5q-25 45 -77 57q-24 6 -46 6q-26 0 -49 -8q-39 -10 -76 -43t-39 -76zM1184 469q0 4 4 8v-8h-4zM1186 492q0 -4 1 -7.5t1 -7.5q4 10 7 16.5t7 12.5l-2 -2q-4 -2 -8 -6zM1319 279q0 -53 39 -97q31 -31 67.5 -45t75.5 -14q49 0 94 21.5t80 62.5 q23 27 35 63.5t12 71.5q-14 2 -27.5 4t-27.5 6q-29 4 -54.5 8.5t-51.5 1.5q4 -4 6 -8t6 -8q12 -29 5 -51.5t-30 -34.5q-31 -12 -51 6t-18 41q0 25 16 41.5t39 22.5q-8 6 -11 7t-7 3t-6.5 4t-6.5 4q-25 10 -52 10q-17 0 -35 -4q-46 -10 -75 -49q-10 -14 -16 -32.5t-6 -34.5z M1489 307q-1 -19 17 -33q10 -8 21 -8q8 0 17 4q23 6 28 25.5t-5 42.5v-2q-4 4 -11.5 13t-11.5 13q-20 -4 -37.5 -19t-17.5 -36zM2013 684v4q2 0 12.5 -6t21.5 -20.5t21.5 -37t12.5 -53.5h-4q-2 27 -11.5 48.5t-19.5 36t-20.5 21.5t-12.5 7z" />
<glyph unicode="X" d="M10 326q0 86 37 164.5t105 140.5q68 57 169 94t224 41q29 49 63 68h-2q12 8 26 8h6q18 -2 19 -29q0 -18 -23.5 -38.5t-70.5 -24.5q-10 -25 -17 -53.5t-16 -63.5q-14 -59 -22 -131t-10 -144q4 8 6 11q4 4 5 8t5 8q61 96 131 193.5t129 162.5q4 4 8 13q6 8 17.5 20t28 24.5 t40 21.5t52.5 9h24q6 0 -1 -6t-18.5 -14t-24.5 -16.5t-21 -10.5q-25 4 -46.5 -10t-41.5 -37q-59 -66 -129 -163t-134 -195v2l-30 -53v-35t2 -35q4 -63 14 -121.5t31 -107.5v2q10 -16 27.5 -32.5t33.5 -23.5q2 0 6 -4q14 -3 29 -3q20 0 43 5q45 14 90 41t80 64t56.5 81 t21.5 93q0 29 -10 65q-4 10 -10.5 21.5t-12.5 21.5l-8 -8q-29 -33 -57.5 -64.5t-67.5 -43.5q-15 -4 -29 -4q-19 0 -35 7q-28 13 -43 62q-5 16 -5 30q0 28 18 52q28 35 73 49q21 5 40 5q26 0 49 -9q40 -16 69 -53l8 8q4 4 7 8q70 84 146.5 146.5t180.5 95.5q78 23 164 23 q74 0 149.5 -18.5t142 -57.5t119 -98.5t76.5 -139.5q14 -45 15 -90q0 -88 -53.5 -143.5t-120.5 -77.5q-23 -8 -70 -8q-31 0 -64.5 6t-64.5 23.5t-55.5 45t-36.5 70.5q-8 27 -8 50q0 13 3 24q7 31 21 49q12 18 47 39q0 -4 -8 -12q-8 -6 -19.5 -17.5t-20.5 -29t-13 -40 t4 -51.5q12 -41 38 -69.5t56.5 -46t64.5 -25.5t64 -8q16 0 31.5 2t26.5 6q72 20 117.5 77.5t45.5 139.5q0 41 -12 84q-23 78 -72 135.5t-113.5 94t-139 55t-148.5 18.5q-82 0 -160 -22q-53 -16 -97 -39t-83 -52.5t-73.5 -66.5t-71.5 -80l-17 -16q14 -18 25 -54 q10 -37 10 -65q0 -55 -22.5 -102.5t-59.5 -85t-83 -65.5t-91 -40q-12 -4 -31.5 -5t-29.5 -1q13 -13 25 -31q9 -14 6 -15q-1 0 -3 1q-16 4 -22 6q-39 12 -66.5 46t-47 76t-32 87t-20.5 82l-12 55q-41 -72 -64.5 -127t-23.5 -84q0 -14 -7.5 -16t-7.5 16q0 14 8.5 40t21.5 56.5 t31.5 66.5t39.5 71q-3 35 -5 71q0 8 -1 17q0 27 4 49q4 55 15 113.5t30 113.5q4 8 7 16.5t7 16.5q6 16 13 33.5t16 34.5q-123 -4 -219.5 -40t-162 -95.5t-99 -134t-33.5 -154.5q0 -33 12 -67t47 -50q2 -4 10 -17.5t15.5 -25.5t9.5 -21.5t-6 -5.5q4 -4 -5.5 0t-13.5 8 q-45 27 -61.5 70t-20.5 72q0 4 -1 12t-1 25zM569 766q41 4 57.5 19.5t16.5 27.5q0 10 -6 12q-3 1 -7 1t-8 -1q-8 -2 -16 -8t-10 -10v-2q-4 -8 -12.5 -19.5t-8.5 -7.5zM672 305q12 -35 36 -48q15 -8 33 -8q10 0 21 3q33 8 61.5 41t57.5 65q4 4 5 6.5t5 6.5q-27 35 -65 50 q-23 9 -46 9q-16 0 -32 -4q-38 -14 -62 -47q-16 -23 -17 -50q0 -12 3 -24z" />
<glyph unicode="Y" horiz-adv-x="821" d="M10 317q0 57 17.5 114.5t44.5 103.5q57 92 141 143q43 29 93 46t102 26q63 12 129 16l9 9t7 9q16 18 35.5 37t44.5 19q27 0 26 -27q0 -20 -23.5 -41.5t-76.5 -21.5h-12q-27 -33 -61.5 -79t-69.5 -99.5t-68.5 -113t-56.5 -118.5q-4 -10 -4 -9t-2 -7q18 31 51 54t71.5 40.5 t79.5 27t78 11.5q2 49 13.5 96t31.5 88q43 86 131 135t183 49q35 0 68.5 -6t64.5 -20q53 -25 100 -75t68 -108q10 -35 10 -63q0 -53 -23.5 -99t-64.5 -71q-45 -29 -98 -29q-82 0 -129 54q-4 0 -7.5 -2.5t-7.5 -2.5q-29 -49 -67.5 -106t-79.5 -109q-10 -16 -21.5 -35.5 t-17.5 -31.5q0 2 -6 -10.5t-8 -16.5q37 -37 81.5 -64.5t95 -45t102.5 -24.5q28 -4 55 -4q23 0 46 3q61 6 124 24.5t119 48t104.5 70.5t85.5 95q12 16 24 31.5t23 31.5q23 35 49 67.5t55 59.5q31 29 75 49.5t89 20.5t88 -19q35 -16 76 -55t45 -102v-13q0 -47 -24 -94 q-29 -53 -66 -84q-35 -29 -74 -37q-20 -4 -38 -4t-36 4v4q9 -1 18 -1q22 0 48 6q37 10 76 40q41 33 64 81q21 41 21 83q0 8 -1 15q-4 59 -42 95t-77 52q-37 14 -80 14q-41 0 -80 -15t-68 -48q-29 -27 -52 -58.5t-44 -60.5q-14 -20 -29.5 -38.5t-31.5 -39.5q-37 -49 -87 -90 t-108.5 -70.5t-121 -49t-122.5 -25.5q-18 -1 -36 -1q-33 0 -67 4q-54 7 -105.5 24.5t-98.5 44t-82 61.5q-4 -4 -6 -8q-47 -78 -96 -156t-104 -162q-29 -43 -57.5 -85t-57.5 -87v2q-2 -4 -5 -9t-5 -9q-16 -25 -45 -52.5t-82 -35.5q-4 -2 -11.5 -2h-13.5t0 7t16.5 16 t22.5 18.5t20 11.5q23 -2 43.5 13.5t34.5 33.5q66 113 132.5 227.5t131.5 229.5q-2 0 -2 -1t-2 -1h2q-2 -2 -10 -6h2q-43 -33 -87 -46.5t-87 -13.5q-80 0 -131 37h2q-25 12 -44 41t-23 49q-14 55 -15 115q0 45 8 78q35 135 114 249.5t177 215.5q-18 0 -24 -2 q-59 -8 -132 -30t-133 -63q-66 -39 -123 -107.5t-77 -164.5v-10q-2 -12 -3 -25.5t-1 -38.5q4 -23 13 -44t28 -32q4 -6 9 -18t9 -25.5t5 -23.5t-1 -10q-2 2 -10 6q-10 4 -12 10v-2q-33 27 -45.5 64.5t-12.5 82.5zM264 211q-1 -13 -1 -26q0 -26 3 -52q4 -39 31 -77t68 -48 q41 -14 86 -14q72 0 139 37h-2q27 20 53 47l8 10l17 29q-2 4 -4.5 6t-4.5 6l-12 25v-2q-35 61 -56.5 141t-23.5 151q-41 -2 -82 -11t-79.5 -26.5t-70.5 -42t-50 -59.5q-4 -4 -9 -20q-8 -35 -10 -74zM270 287q2 14 6 18l5 -2q-2 -4 -2 -6q-2 -4 -3 -4v-2l-2 -4h-4zM563 766 q45 2 63.5 18.5t18.5 28.5t-12 12q-14 0 -27.5 -12t-25.5 -27q-4 -4 -8.5 -11t-8.5 -9zM575 444q2 -72 21.5 -146.5t54.5 -129.5q6 -12 9.5 -18.5t7.5 -10.5q0 -4 6 -10q4 8 9 16.5t11 18.5t12.5 20.5t12.5 20.5q29 53 59.5 107.5t59.5 101.5h-2q-25 4 -49.5 7t-49.5 7 q-39 6 -76.5 10t-78.5 6h-7zM575 457h7q45 0 89 -6.5t85 -14.5l80 -12v-2q0 -2 2 -2h4q4 4 8 12t8 14l23 43q0 10 3 25.5t11 26.5l4 -2q-8 -14 -8 -31q8 16 12 20q2 2 5 7.5t5 9.5q2 2 2 3t3 3h-3q-4 -4 -8 -6t-6 -4l-4 4q10 16 31 22q18 31 20 32t8 7t9 10v2q4 4 16 12.5 t20 -5.5v2q2 -2 3 -15q0 -6 -5.5 -21.5t-11.5 -31.5q8 -8 17 -24q8 -29 2.5 -56.5t-27.5 -46.5l-4 4q16 18 24.5 45t-2.5 47q-2 14 -14 21q-12 -29 -27.5 -61.5t-37.5 -67.5q0 2 6 -4q6 0 15 1t15 5v-4q-8 -4 -14 -5t-10 -3h-2q53 -47 116 -48q51 0 95 29q41 29 62.5 71 t21.5 91q0 35 -9 61q-18 59 -62 105.5t-103 68.5q-59 25 -125 25q-92 0 -176 -46t-125 -128q-23 -41 -33 -89t-15 -93zM780 244q8 12 17 20q-4 -6 -6.5 -11t-6.5 -11zM797 264q53 74 94 144q-18 0 -25 2q-4 -8 -8 -18.5t-8 -20.5q-12 -27 -25.5 -52.5t-27.5 -54.5zM868 416 q4 0 6.5 -1t6.5 -1h14q4 4 4 7t4 7q-2 2 -8 18v-2q-4 8 -6 17q-14 -27 -21 -45zM887 465h4l-2 -4q-2 0 -2 4zM895 471q0 -4 3 -10l5 -10q0 -2 2 -7q2 -4 2 -6t2 -4q23 39 38.5 68.5t25.5 52.5q-6 2 -17.5 3t-15.5 1q-4 -4 -6 -10t-6 -10l-13 -25v2q-2 -4 -4 -9t-4 -9 q2 4 -3 -8.5t-9 -18.5zM913 412v2q0 2 2 2h-2q-1 -1 -1 -2t1 -2zM948 571q10 0 27 -6q10 33 8 47q-2 0 -10 -8q-6 -6 -6 -8v-2q-4 -4 -5 -7t-6 -7q-4 -4 -5 -4.5t-3 -4.5zM954 420q0 1 9 6l6 6l4 -4q-19 -19 -19 -8zM1720 80l6 4q4 -4 14.5 -9t22.5 -9v-5q-23 2 -32 13h2 q-4 0 -9 4q-2 2 -4 2zM1763 61v5h11q4 0 6 -1.5t6 -1.5q2 0 3 -1t3 -1q8 -4 12 -4v-4q-4 0 -5 1t-5 1z" />
<glyph unicode="Z" horiz-adv-x="382" d="M-29 281q-1 7 -1 14q0 23 10 41q14 24 35.5 43.5t49 34t54.5 22.5q27 6 63 6q27 0 54.5 -5t54.5 -19q33 -23 43 -60q4 4 9 8.5t9 8.5t9.5 8t15.5 14v-2q31 57 67.5 114.5t73.5 106.5q23 33 48.5 66t54.5 66h-3q-12 -6 -20 -9.5t-16 -7.5q-72 -25 -147 -43 q-48 -12 -97 -12q-27 0 -55 4q-8 0 -27.5 5t-43.5 15.5t-48.5 26.5t-42.5 43q-6 4 -8 14q-2 4 -3 5.5t-4 5.5q-4 6 6.5 2t25 -11.5t28.5 -15.5t20 -12q10 -23 39 -38t51 -24q16 -4 34 -5t34 -1q76 0 150.5 23.5t146.5 58.5q6 10 20.5 27.5t30.5 17.5q12 0 13.5 -11t-9.5 -20 l-9 -6t-7 -6t-9 -6t-9 -4q-27 -31 -46.5 -58.5t-42.5 -62.5q-10 -18 -24 -41.5t-25 -44.5q-14 -27 -26.5 -49.5t-28.5 -50.5q18 10 53 24q39 14 82 22.5t88 8.5q70 0 137.5 -23.5t114.5 -74.5q39 -41 51.5 -101.5t16.5 -113.5q0 -23 -2 -33q47 0 107.5 6t101.5 21 q35 12 71.5 33.5t65 51t48 64.5t21.5 76h5q0 -39 -19.5 -77t-49.5 -68.5t-65.5 -54t-70.5 -34.5q-51 -16 -107 -23q-35 -4 -69 -4q-20 0 -39 1q-4 -47 -20.5 -95.5t-45.5 -82.5q-57 -66 -153 -89q25 -23 47 -65v2q0 -2 2 -4t2 -5t2 -5q0 -4 4 -13q0 -4 -3 -4t-7 2 q-10 4 -21.5 13.5t-24 19.5t-18.5 16q-4 8 -10 18.5t-10 16.5q-14 -1 -28 -1q-44 0 -90 14q-61 18 -101 59q-4 4 -8.5 9t-8.5 9q0 2 -4 7h2q-78 20 -141.5 27t-110.5 7q-53 0 -90 -6h2q-31 -31 -51 -39h2q-6 -4 -18.5 -8t-23.5 -6t-19.5 0t-6.5 12q2 12 15.5 21.5t31 16.5 t35 11t27.5 7h-2q25 33 52.5 82t55.5 102q10 23 27.5 54.5t30.5 53.5v27q-4 -2 -10 -8q-37 -33 -76 -64.5t-90 -58.5q-25 -10 -53.5 -17.5t-55.5 3.5q-29 10 -50.5 32.5t-25.5 51.5zM-16 281q4 -29 22.5 -47.5t40.5 -26.5q27 -10 53.5 -3t55.5 19q37 20 74.5 49t76.5 64 q4 4 10.5 9t10.5 9q-10 33 -41 54h2q-49 26 -101 26h-4q-35 0 -65 -10q-25 -6 -50.5 -18.5t-46 -30t-31.5 -41.5q-8 -17 -8 -37q0 -8 1 -16zM80 -31q18 0 41 15h-2q2 2 4 3t4 3q4 4 4 5t8 5q-51 -16 -59 -31zM195 27q14 2 32.5 3t34.5 1q49 0 109.5 -7.5t132.5 -23.5 q-18 37 -19 74q0 53 29 98q55 68 143 68q31 0 62 -11.5t59 -27.5q31 0 71 -5.5t69 -11.5q20 -4 38.5 -8t40.5 -8v31q0 53 -10 107t-51 97q-45 53 -109.5 76t-132.5 23q-45 0 -89 -8.5t-83 -22.5q-12 -6 -30.5 -15.5t-34.5 -19.5q-4 -4 -6 -9t-7 -9v2q-33 -57 -65.5 -114.5 t-64 -109t-62.5 -95.5t-57 -74zM338 330l10 18q2 6 8 12l-4 -2q-4 -4 -7 -6t-7 -6v-16zM514 -4h-2q41 -10 87 -24.5t97 -32.5q23 -8 44.5 -18.5t39.5 -22.5q45 10 85 34.5t71 59.5q33 33 45 83t12 85q-16 4 -33.5 6t-33.5 6q-33 8 -66 13q-24 4 -48 4q-10 0 -19 -1l10 -15 t10 -17v2q18 -27 5 -57.5t-42 -41.5h2q-16 -10 -32.5 -7t-27.5 13.5t-17.5 25.5t-4.5 28q0 31 18.5 50t47.5 28q-23 14 -49.5 23t-55.5 9q-37 0 -73.5 -15t-59.5 -50q-30 -40 -30 -89q0 -44 20 -79zM524 -23q2 -6 15 -14q45 -45 98 -63q36 -12 75 -11q18 0 36 2 q-16 14 -31 21.5t-31 13.5q-47 16 -85 28.5t-77 22.5zM674 788l2 5q0 -2 6 3t10 9l2 -4l-6 -2h2l-8 -4h2l-3 -3t-7 -4zM707 119q1 -27 21 -47q12 -11 24 -11q10 0 20 7q25 8 35 33.5t-2 54.5v-2q-4 8 -15.5 19t-15.5 15q-29 -4 -48 -22.5t-19 -46.5zM1348 582q4 0 16 -9.5 t27 -25.5q-14 18 -25.5 26.5t-13.5 10.5zM1391 547q2 -4 4 -6t4 -6q-2 4 -4 6t-4 6zM1399 535q29 -41 31 -101h-5q0 35 -8 59.5t-18 41.5z" />
<glyph unicode="\" horiz-adv-x="221" d="M-78 745l15 15q33 -35 68.5 -119t69.5 -184.5t62.5 -203.5t48.5 -177q10 -45 18.5 -75t12.5 -38l-16 -2q0 4 -2 10q-4 12 -4 17q-4 10 -7.5 23.5t-9.5 29.5q-29 82 -55 160q-16 47 -32.5 91t-29.5 87q-16 51 -34.5 110.5t-37 112.5t-35.5 92t-32 51z" />
<glyph unicode="_" horiz-adv-x="581" d="M61 -68l5 17q14 -10 61 -14.5t92 -0.5q16 0 49 -1t72 -1q41 -2 79 -2h56h33v-12h-12.5t-22.5 -2q-37 -4 -102.5 -8t-130.5 -4q-63 0 -112.5 6t-66.5 22z" />
<glyph unicode="`" horiz-adv-x="239" d="M29 524v4q0 4 12 4q25 0 42 -6l34 -12q14 -6 27.5 -10t29.5 -4q8 0 25 4q6 2 20 2q6 0 6 -8q0 -2 -12 -11.5t-68 -9.5q-31 0 -59.5 9.5t-56.5 37.5z" />
<glyph unicode="a" horiz-adv-x="378" d="M-29 104q0 39 14.5 84t43.5 86q27 39 58.5 68t65 46.5t65.5 21.5q8 1 15 1q23 0 41 -10q31 -20 31 -63q0 -11 -2 -23q10 23 18.5 36.5t12.5 23.5q8 16 14 35l1 1l3 -7q2 -10 3 -27t-1 -35t-8 -31q-12 -20 -29.5 -54t-36 -68.5t-35 -66.5t-22.5 -50q-4 -8 -8 -25 q-2 -10 1 -20.5t11 -14.5q8 0 20.5 4t30 17.5t42 39t55.5 68.5q6 6 13 5q4 -1 4 -4q0 -2 -1 -5q-12 -18 -25.5 -35.5t-23.5 -33.5q-23 -25 -51.5 -47.5t-57.5 -22.5q-22 2 -30 12q-10 10 -13.5 26.5t7.5 51.5q-45 -63 -93 -87q-24 -12 -46 -12q-23 0 -44 13q-43 31 -43 102z M18 100q0 -57 33 -77q14 -9 28 -9q24 0 49 24q40 38 87 109q10 16 25.5 44t23.5 45q27 57 27 98q0 37 -25 51q-12 7 -27 7q-28 0 -64 -24q-56 -38 -103 -108q-25 -39 -39.5 -83t-14.5 -77z" />
<glyph unicode="b" horiz-adv-x="356" d="M-37 49q0 20 8.5 47t36.5 86q16 35 31.5 64.5t32.5 58.5q10 20 20 38.5t21 37.5q18 37 37.5 76t35.5 67l23 45l10 21q25 53 33 69.5t12 16.5q6 0 6 -39q0 -33 -4 -49q-2 -2 -2 -6q0 -2 -2 -4q-6 -12 -22.5 -42t-36.5 -65v-2q-18 -31 -30.5 -53.5t-27.5 -46.5 q55 51 109 51q90 0 90 -113q0 -47 -14 -84q10 0 28.5 -3t28.5 -7v-12q-10 4 -28.5 7t-30.5 3q-20 -49 -50 -90t-63 -69.5t-65.5 -45t-59.5 -16.5q-23 0 -33 5t-18 15q-8 -4 -17.5 -7t-15.5 -3h-7t-15.5 4t-14.5 14.5t-6 30.5zM-14 33q0 -17 12 -21q6 0 16.5 2t20.5 6 q-3 15 -3 29q0 28 14 53q20 37 58.5 62.5t87 40t93.5 18.5q14 41 14 82t-17.5 64.5t-45.5 23.5q-29 0 -56.5 -21.5t-56.5 -56.5q-14 -16 -37 -58t-45.5 -88t-38.5 -85t-16 -51zM35 20q0 2 2 3zM45 29q2 2 3 4t3 4q6 10 14.5 22.5t20.5 12.5q4 -2 -6 -22.5t-27 -31.5 q15 -10 31 -10q23 2 50.5 19.5t55 45t51 62.5t38.5 76q-27 -4 -70 -14.5t-82 -32.5t-65 -54q-19 -25 -19 -59q0 -10 2 -22zM279 211q2 0 2 2l2 -2h-4z" />
<glyph unicode="c" horiz-adv-x="280" d="M-25 102q0 59 27 115.5t65.5 99.5t83 71t78.5 30h5q61 0 61 -53q0 -16 -4 -29.5t-8 -24.5q-12 -16 -19 -22q-10 -8 -22.5 -14.5t-30.5 -6.5h-16q0 6 15 14.5t26 10.5q23 0 35 19.5t12 41.5q0 16 -9.5 30.5t-27.5 14.5q-35 0 -74 -26.5t-71.5 -69.5t-55 -96t-22.5 -105 q0 -92 79 -92q41 0 87.5 33t86.5 92q6 6 15 0q0 -10 -2 -12q-43 -68 -100.5 -102.5t-108.5 -34.5t-78 30.5t-27 85.5z" />
<glyph unicode="d" horiz-adv-x="387" d="M-25 100q0 55 25 110.5t62.5 100.5t81.5 74t83 29q80 0 80 -82q0 -10 -1 -19.5t-5 -25.5q51 98 87 170.5t61 120.5q14 29 27 54t24 44q6 0 6 -35q0 -25 -5 -42t-5 -15h4q0 -2 -2 -4t-3 -5.5t-3 -7.5q-8 -12 -19.5 -32.5t-28.5 -49.5q-12 -23 -27.5 -50t-27.5 -50 q-72 -129 -120 -224t-48 -126q0 -23 19 -23q8 0 20 4t29.5 17.5t41 40t54.5 71.5l4 5q2 2 4 2q6 0 4 -13v-2q-12 -18 -23.5 -34.5t-25.5 -32.5q-23 -25 -51.5 -47.5t-52.5 -22.5h-9.5t-15.5 5t-14 15.5t-6 28.5q0 16 10 53q-77 -112 -147 -112h-1q-41 0 -63.5 30.5 t-22.5 79.5zM20 102q0 -56 35 -79q8 -8 27 -9q25 0 61.5 35t69.5 84t56.5 104.5t23.5 96.5q0 59 -51 59q-33 0 -72 -26.5t-71.5 -69.5t-55.5 -94t-23 -101z" />
<glyph unicode="e" horiz-adv-x="284" d="M-29 102q0 86 58 177q49 77 115 115q47 26 86 27q17 0 32 -5q14 -4 22.5 -16.5t9.5 -28t-3.5 -31t-16.5 -23.5q-34 -36 -100 -36h-4q-14 0 -28.5 4t-26.5 16l-6 6q-2 6 15 5t23 -5q6 -10 22.5 -13t27.5 -3q16 4 35.5 11t31.5 24q8 10 13.5 23t3.5 24.5t-11.5 18.5 t-29.5 7q-35 -2 -83 -39.5t-87 -95.5q-25 -39 -38.5 -83t-13.5 -79q0 -59 33 -79q23 -14 51.5 -11.5t59.5 20t62.5 46t58.5 67.5q8 9 14 7q2 -1 2 -3q0 -5 -6 -16q-29 -45 -68 -77.5t-77.5 -49t-73.5 -18.5h-8q-30 0 -52 14h2q-23 14 -34 40t-11 60z" />
<glyph unicode="f" horiz-adv-x="206" d="M-459 -193q-1 2 -1 3q0 3 6 2q10 -2 24 -7.5t28.5 -12.5t20.5 -11q10 -18 33.5 -30.5t32.5 -12.5q8 -4 30.5 -3t52 7t58.5 18.5t49 34.5q33 33 55.5 75t44.5 87q4 8 6.5 12t6.5 13v-2q23 41 41 80.5t39 80.5q8 14 18 36t16 36q12 27 24.5 53.5t23.5 48.5q-31 -43 -74 -99 t-72 -93l-12 10q23 29 46 60.5t48 64.5t48.5 65.5t45.5 61.5v-2q23 51 53.5 109.5t69.5 108.5t84 86t98 42q17 2 35 2q33 0 68 -7q53 -11 90 -58q4 -4 7 -11.5t5 -11.5q0 -4 -9 -2t-21.5 7t-24.5 10.5t-19 9.5q-14 25 -38.5 36t-47.5 13q-8 1 -16 1q-42 0 -70 -18l-12 -8 q-4 -2 -10 -6t-10 -6h2q-55 -45 -95 -114.5t-79 -145.5q10 4 15 5t11 1q10 14 26.5 26.5t35.5 22.5q4 0 11 2t11 4q2 0 -1 -8t-11 -19.5t-16.5 -22.5t-14.5 -17q-27 -8 -44 -35t-21 -51q-4 -4 -9 -4q-6 0 -6 8q4 16 6 26q0 6 5 11v-2q4 10 4 20t10 25q-10 -4 -23 -17 q-6 -6 -5 -6t-1 -4l-12 -25q-2 -2 -2 -4t-2 -6t-3 -7t-3 -7q-14 -29 -34 -71t-40 -87q-8 -16 -14.5 -29.5t-12.5 -27.5t-13 -29t-13 -29q-4 -10 -9.5 -19t-9.5 -19q-23 -45 -48 -91.5t-59 -87.5t-75 -72.5t-92 -45.5q-23 -8 -72 -9q-10 0 -28.5 2.5t-41 9.5t-45 19t-38.5 35 q-4 4 -7.5 9t-7.5 13z" />
<glyph unicode="g" horiz-adv-x="393" d="M-342 -309q0 2 10 0t22.5 -6t25 -10.5t18.5 -10.5q10 -18 28.5 -28.5t34.5 -14.5q12 -2 24 -2q47 0 91 25q55 30 90 77q31 41 54.5 81t45.5 83l23 45q16 43 32.5 78t35.5 66q6 6 11 15t5 11q-47 -68 -99 -94q-27 -14 -52 -14q-21 0 -40 10q-43 31 -43 102q0 39 14.5 84 t43.5 86q27 39 58.5 68t65 46.5t64.5 21.5t55 -9q20 -12 26.5 -36.5t2.5 -55.5q14 29 23.5 51.5t9.5 24.5q2 4 4 9t4 9l4 9q2 4 3 4q2 0 3 -6q2 -9 4 -25t2 -33.5t-2 -23.5q0 -6 -2 -9v3l-4 -9q-4 -4 -4 -6q-8 -12 -28.5 -53t-47.5 -96q-2 -2 -4 -8.5t-2 -8.5 q-16 -39 -26 -67l-9 -33q-2 -12 1.5 -21.5t13.5 -11.5q6 0 17 2t28.5 15.5t41 41t56.5 78.5v-2q2 12 12 13q4 -8 3 -13v-2q-12 -18 -24.5 -36.5t-25.5 -34.5q-23 -29 -50 -50.5t-50 -23.5q-8 -2 -23 4q-12 6 -20 27q-12 -20 -18.5 -33.5t-10.5 -24.5q-4 -8 -6 -13t-4 -9 q-25 -53 -57.5 -107.5t-71.5 -102.5t-82 -82t-86 -46q-25 -6 -53 -6t-58 6q-59 12 -96 59q-6 6 -12 23zM23 100q0 -57 32 -77q14 -9 29 -9q23 0 48 24q40 37 87 109q20 37 37.5 74t27.5 69q7 26 7 48v10q-2 25 -21 37q-12 7 -28 7q-27 0 -64 -24q-57 -36 -102 -108 q-27 -41 -40 -83t-13 -77z" />
<glyph unicode="h" horiz-adv-x="350" d="M-70 12q31 70 67 149t74 156.5t73.5 150.5t66.5 130q16 29 25.5 49.5t9.5 22.5q3 5 5 5q2 1 3 -5q2 -10 3 -27.5t0 -34t-3 -20.5l-4 -8l-10 -21q-10 -18 -18.5 -35.5t-18.5 -36.5q-12 -25 -21.5 -43t-17.5 -36.5t-19.5 -38t-25.5 -43.5q37 39 80 69q23 14 50 24.5 t58 -7.5q20 -23 18.5 -53.5t-12.5 -55.5q0 -4 -5 -12t-11 -19q-20 -33 -53 -90t-54 -110q-4 -8 -8 -25q-2 -10 1 -20.5t12 -14.5q8 0 20 5.5t29.5 18.5t42 38.5t57.5 68.5q8 14 14 9q2 -2 2 -5t-2 -8q-6 -10 -6 -12q-10 -14 -22.5 -29.5t-22.5 -27.5q-23 -25 -51.5 -47.5 t-52.5 -22.5q-29 0 -37 20v-2q-10 16 -5 53.5t44 110.5q8 14 14 27.5t12 26.5l43 83q4 8 10.5 19.5t11.5 22t7 15.5t-2 1q4 14 -10 26h2q-16 10 -42 1t-44 -19q-41 -29 -74 -63.5t-59 -75.5v2q-31 -59 -64 -123t-47 -100q-4 -6 -5 -10.5t-3 -8.5l-8 -8q-2 -2 -4 -2 q-4 0 -9 4q-4 4 -4 12zM299 373q0 2 2 4q-2 -2 -2 -4z" />
<glyph unicode="i" horiz-adv-x="143" d="M-42 74q7 38 42 108q2 4 15.5 33t29.5 64q8 18 19.5 41.5t20.5 43t15 34t6 18.5q2 0 5.5 -12.5t4.5 -28t1 -29.5t-2 -18q-16 -31 -31.5 -61.5t-32.5 -63.5q-16 -33 -31.5 -63.5t-29.5 -59.5q0 -6 -2 -8q-4 -12 -6 -33t10 -27q6 0 18.5 4t30.5 18.5t43 40t57 68.5 q8 8 13 9h2q4 -4 -4 -19q-12 -18 -22.5 -32.5t-25.5 -30.5q-23 -25 -51 -47.5t-53 -22.5q-29 0 -37 20v-2q-8 11 -8 31q0 11 3 25zM166 487q4 10 9 26t5 32q2 6 11.5 18t18.5 23q10 12 18 18q4 3 6 3t2 -3q0 -4 -1.5 -6t-1.5 -6v-12q-4 -37 -22 -62.5t-37 -42.5 q-12 -10 -14 -10h-1q0 3 7 22z" />
<glyph unicode="j" horiz-adv-x="157" d="M-428 -131q0 2 10 1t23.5 -4t27 -7t19.5 -9q12 -20 38.5 -28t51.5 -8q45 14 90 65t87 121t80 147.5t69 145.5q16 35 29.5 65.5t25.5 53.5q4 8 7 -2.5t5 -26.5t1 -33.5t-3 -21.5q-23 -41 -45 -82q-18 -35 -37.5 -76t-36.5 -74q8 10 3 -1t-9 -19q-4 -10 -6 -16.5t-4 -12.5 q-4 -27 14 -35q8 0 19.5 5.5t30 18.5t43 38.5t57.5 68.5q8 14 14 9q4 -4 0 -13q-6 -10 -6 -12q-25 -31 -47 -57q-23 -25 -51.5 -47.5t-53.5 -22.5q-4 -2 -20 4q-6 4 -10 7t-8 16q-6 -16 -13 -23v2q-35 -63 -86 -124.5t-129 -82.5q-12 -4 -28.5 -4t-26.5 2q-25 4 -55.5 14.5 t-53.5 36.5h2q-6 4 -10 11v-2q-4 4 -8 12zM180 489q4 10 10.5 25.5t6.5 30.5q2 6 10 18t17 23.5t16 17.5q4 3 6 3t2 -3v-13t-2 -11q-4 -35 -21.5 -61.5t-36.5 -43.5q-11 -7 -14 -7q-1 0 -1 1q0 4 7 20z" />
<glyph unicode="k" horiz-adv-x="358" d="M-63 14q4 12 17 45t31.5 74t40 85t39 82t29.5 62l12 25v-2q6 10 25 48t39 79q10 23 19.5 42t15.5 30q16 31 28.5 56.5t14.5 29.5q3 7 5 7q1 0 1 -1q2 -4 3 -16.5t0 -28t-1 -27.5v-16q-4 -16 -16.5 -42t-27.5 -55.5t-31.5 -59.5t-30.5 -54q-4 -8 -8.5 -14.5t-8.5 -12.5 q-8 -14 -19.5 -35.5t-25.5 -48.5q-12 -23 0 -45q4 -8 17.5 -8t27.5 4l19 6q2 0 3 1t3 1q33 14 63.5 43t32.5 68q4 10 17.5 25.5t26.5 28.5t24.5 20.5t11.5 1.5q0 -10 -1 -16.5t-3 -16.5q-16 -63 -63.5 -106.5t-108.5 -69.5q0 -16 4 -47t12 -63t17.5 -55.5t19.5 -25.5 q8 0 19.5 2t27.5 14.5t41 39t59 73.5q4 4 4 6q2 12 11 5h-2q4 -3 5 -9q0 -2 -1 -4q-6 -10 -6 -12q-10 -14 -22.5 -29.5t-22.5 -27.5q-23 -25 -51.5 -47.5t-53.5 -22.5q-25 -4 -45 16q-16 16 -33.5 56.5t-25.5 124.5q-10 0 -22.5 3t-18.5 11l-4 8t-2 8q-4 -10 -13 -22v2 q-29 -53 -52 -102.5t-36 -79.5q-4 -10 -8 -19l-8 -8q-2 -2 -4 -2q-3 0 -8 4h2q-6 2 -6 7q0 3 2 7z" />
<glyph unicode="l" horiz-adv-x="139" d="M-44 74q7 40 42 108q29 59 64.5 128t70.5 136l19.5 39t19.5 37q12 25 24.5 48.5t10.5 23.5q1 1 2 1q3 -1 5 -9q3 -12 3 -27.5t-1 -31t-3 -19.5v2q0 2 -4 -10l-4 -8v-3l-4 -4q-8 -14 -15.5 -27.5t-13.5 -25.5q-10 -18 -21.5 -40.5t-27.5 -51.5v2q-47 -84 -86 -161 t-55 -111q-2 -4 -3.5 -10.5t-3.5 -12.5q-4 -27 15 -35q6 0 19.5 4t31.5 17.5t41.5 39t54.5 68.5q2 2 2 3t2 3v-2q4 8 15 5q0 -4 -6 -17q-12 -18 -22.5 -32.5t-25.5 -30.5q-23 -25 -51 -47.5t-53 -22.5q-31 0 -39 20v-2q-6 9 -6 27q0 13 3 29z" />
<glyph unicode="m" horiz-adv-x="548" d="M-76 12q2 10 23.5 63.5t50.5 110.5q0 8 2 11v-2q16 39 32.5 73.5t30.5 63.5q12 29 22.5 52.5t12.5 27.5q4 8 7.5 -1.5t4.5 -25.5t1 -33.5t-2 -23.5q-4 -4 -9 -17q43 49 93 84q23 17 50 27q9 4 19 3q18 0 37 -13q20 -20 21.5 -48t-9.5 -51q37 43 88 82q23 15 51 25 q10 4 20 3q18 0 38 -11q25 -18 21.5 -53t-19.5 -64q0 -2 -2 -4q-6 -6 -8 -12q-10 -16 -24.5 -41t-30 -52.5t-31 -57.5t-23.5 -54q-4 -6 -8 -27q-2 -10 1 -20.5t11 -14.5q8 0 20.5 4t31 18.5t43 40t59.5 70.5q6 6 8 7q5 -4 5 -10q0 -2 -1 -3q-6 -10 -6 -12q-25 -31 -47 -57 q-23 -25 -51.5 -47.5t-53.5 -22.5q-27 0 -34 20v-2q-10 16 -5 53.5t42 110.5q8 14 14 27.5t12 26.5l43 83q4 8 10.5 19.5t11.5 22t7 15.5t-2 -1q2 6 -2 13t-8 15h2q-16 10 -42 1t-44 -19q-35 -25 -69 -59.5t-60 -73.5q-10 -16 -25.5 -44t-32 -59.5t-32 -65.5t-25.5 -58 q-2 -2 -4 -8.5t-6 -12.5q-6 -8 -19 -4q-2 0 -2 12q0 6 11.5 34t27.5 66t35.5 82t38 82.5t32 67.5t17.5 39q0 10 -10 20h2q-16 10 -42 1t-44 -19q-43 -31 -79 -67.5t-61 -77.5l-30 -62q-18 -39 -37 -75.5t-35 -77.5q-4 -8 -4 -9q-2 -2 -2 -4q-4 -4 -6 -8q-5 -4 -9 -8 q-2 -1 -3 -1q-3 0 -7 5q-4 4 -4 12zM299 297q2 2 3 5t3 5q-2 0 -2 -2zM500 373l2 2z" />
<glyph unicode="n" horiz-adv-x="346" d="M-70 12q2 8 17.5 46t38 88.5t46 102.5t40.5 89q10 20 16 35.5t6 13.5l6 12q0 2 1 4.5t1 4.5t2 4q4 8 7.5 -2.5t5.5 -26.5t1 -33.5t-3 -21.5l-9 -17l-4 -6q20 25 44 48.5t53 41.5q23 15 50 25q10 4 20 3q18 0 38 -11q20 -23 18.5 -53.5t-12.5 -55.5q0 -4 -5 -12t-11 -19 q-20 -33 -53 -90t-54 -110q-4 -8 -8 -25q-2 -10 1 -20.5t12 -14.5q8 0 20 4t30.5 18.5t43 40t57.5 70.5q6 6 8 7q4 -4 4 -10v-3q-6 -10 -6 -12q-10 -14 -22.5 -29.5t-22.5 -27.5q-23 -25 -51.5 -47.5t-52.5 -22.5q-29 0 -37 20v-2q-10 16 -5 53.5t44 110.5q8 14 14 27.5 t12 26.5l43 83q4 8 10.5 19.5t11.5 22t7 15.5t-2 1q4 14 -10 26h2q-20 10 -43 2t-43 -20q-53 -35 -88 -78t-64 -92q-4 -4 -7 -13t-5 -14q-20 -41 -39.5 -80.5t-36.5 -82.5q-8 -16 -8 -17q-9 -9 -20 -9q-4 0 -7 1q-2 0 -2 12zM299 373q0 2 2 4q-2 -2 -2 -4z" />
<glyph unicode="o" horiz-adv-x="313" d="M-27 113q0 41 14.5 89t43.5 89q25 39 56.5 67.5t63 46t59.5 22.5q11 2 20 2q15 0 26 -5q33 -13 33 -49v-8q10 0 13 -22.5t1 -39.5v-8q-14 -90 -72 -172q25 -6 46.5 2t37.5 25l17 -5q-43 -35 -84 -35q-12 0 -23 3q-53 -71 -111 -101q-30 -15 -54 -16q-24 0 -44 14 q-43 27 -43 101zM18 113q0 -27 8.5 -48.5t26.5 -31.5q15 -10 32 -11q21 0 43 17q40 29 79 82q-27 20 -27 61q0 27 8.5 53.5t20.5 45.5h-14q-8 2 6 12t24 14q10 12 21.5 24.5t29.5 28.5v-2q4 23 -8 38.5t-24 15.5h-8q-37 -4 -82 -41t-82 -97q-27 -41 -40.5 -84t-13.5 -77z M195 182q0 -39 20 -51q25 41 45.5 82t28.5 90q2 9 2 29q0 18 -3 18h-1q-4 -29 -22.5 -45t-39.5 -22h2q-10 -16 -21 -44t-11 -57zM272 338q2 4 2 8l2 -2v-2v2h3q-2 -2 -3 -2z" />
<glyph unicode="p" horiz-adv-x="350" d="M-524 -176q0 2 10 1t22.5 -6t23.5 -10.5t17 -9.5q14 -25 40 -36t51 -13q31 0 65.5 10.5t69.5 34.5q41 37 70.5 86t52.5 94q20 41 40.5 84t43.5 88q35 68 66.5 134.5t60.5 130.5q4 8 7 -2.5t4 -26.5t1 -33.5t-2 -21.5q-8 -12 -15 -25q23 29 46.5 50.5t52.5 41.5 q23 14 51 25q10 5 20 5q17 0 35 -13q25 -23 24 -54.5t-18 -58.5l-14 -23q-14 -24 -33.5 -58t-40 -73t-32.5 -73q-4 -8 -9 -25q-2 -12 1 -21.5t14 -11.5q6 -2 16 0t28.5 14.5t44 40t60.5 74.5v-2q8 14 10 15q4 -7 4 -12q0 -3 -2 -5q-23 -35 -51 -69q-23 -25 -51.5 -46.5 t-50.5 -21.5q-29 0 -37 21v-3q-12 18 -6 54.5t45 107.5q6 18 16.5 39l18.5 37t16 31.5t14 32.5q4 8 10.5 19t11.5 21.5t7 15.5t-2 -1q0 4 -2 12t-6 14h2q-16 10 -43 1t-43 -19q-80 -53 -135 -143v2q-18 -39 -40 -80t-40 -80q-2 -2 -1 -2t-1 -2v2q-10 -18 -18.5 -34.5 t-16.5 -33.5q-12 -25 -20.5 -43t-12.5 -24q-76 -156 -198 -197q-23 -6 -52 -11q-15 -3 -31 -3q-12 0 -24 2q-27 2 -65.5 15.5t-67.5 47.5q-4 4 -7 11.5t-5 11.5zM301 375l2 2z" />
<glyph unicode="q" horiz-adv-x="374" d="M-360 -307q0 2 9 1t21.5 -6t24.5 -10.5t18 -9.5q12 -29 42 -40t55 -9q47 0 90 22.5t71 61.5q41 45 69 97.5t56 105.5q4 4 3 6t3 6v-2q16 35 29.5 61.5t30.5 59.5q-41 -35 -81 -45q-14 -4 -27 -4q-24 0 -44 12q-43 27 -43 100q0 41 14.5 89.5t43.5 89.5q47 74 103 107 q53 30 106 30h6q29 -2 47 -20.5t22 -47.5q4 4 6 13.5t7 15.5q4 4 6 12t6 14q4 8 8 15q2 0 5 -13.5t4 -30t0 -30.5t-3 -18q-8 -10 -21.5 -37t-25.5 -53q-20 -41 -37.5 -81t-27.5 -57q-6 -6 -11 -24q-10 -16 -10 -27q-2 -10 1 -20.5t11 -14.5q8 0 19.5 4t30 18.5t43 40 t59.5 70.5v-2q4 14 10 9h-2q5 -1 5 -7q0 -2 -1 -6q-6 -10 -6 -12q-25 -31 -47 -57q-23 -25 -51.5 -47.5t-50.5 -22.5q-8 -2 -17 2q-18 4 -22 21q-10 -27 -21.5 -48.5t-15.5 -27.5q-23 -47 -56.5 -108.5t-78.5 -115t-103 -89.5q-53 -31 -115 -31h-14q-25 2 -67.5 14t-73.5 53 q-6 6 -12 23zM14 106q0 -29 8.5 -51t24.5 -32h-2q17 -10 34.5 -10t34.5 10q35 20 72 67q8 8 24.5 46t37.5 81q14 35 27.5 66.5t23.5 48.5q-2 25 -21.5 46t-41.5 21q-37 0 -84.5 -37.5t-83.5 -97.5q-29 -41 -41.5 -82t-12.5 -76z" />
<glyph unicode="r" horiz-adv-x="313" d="M-25 115q27 33 71 109.5t95 174.5q-12 0 -28.5 6.5t-14.5 24.5t24 36q11 9 22 10q10 0 20 -9q6 -10 6 -27q0 -10 -2 -16h19.5t19.5 -2q2 0 3 -1t3 -1q39 -10 45 -25v2q2 -4 4 -17t3 -27.5t0 -28t-3 -17.5l-12 -23q-12 -24 -28.5 -57.5t-35 -74.5t-32.5 -74q-4 -10 -9 -31 q-2 -10 1.5 -20.5t11.5 -14.5q8 0 20 4t30.5 18.5t43 40t59.5 70.5v-2q4 14 11 9h-3q6 -4 6 -8q0 -3 -3 -7q-27 -41 -52 -67q-23 -25 -51.5 -47.5t-52.5 -22.5q-4 -1 -8 -1q-22 0 -29 19v-2q-10 16 -6 54.5t39 111.5q2 6 6 17.5t8 17.5q2 6 6 17.5t8 17.5q4 10 10.5 23.5 t10.5 23.5q8 18 14 34.5t13 33.5q-2 23 -22.5 28.5t-43.5 3.5h-12q-16 -29 -32.5 -59.5t-31.5 -56.5q-2 -2 -6 -11q-27 -47 -53.5 -95t-48.5 -75zM121 428q-2 -2 8 -3t21 -1q3 8 3 15q0 9 -6 14q-1 1 -3 1q-4 0 -11 -6q-10 -10 -12 -20zM150 422v2h2z" />
<glyph unicode="s" horiz-adv-x="290" d="M-25 115q16 23 38 55.5t43.5 68t41 70.5t31.5 64q0 2 -1 4t-1 6q-2 6 -3 15.5t-5 19.5t4 32q6 17 23 17q6 0 14 -2q23 -14 14.5 -35.5t-18.5 -38.5q-4 -4 -4 -6q2 -12 10 -27q4 -10 7 -18t7 -18t7 -20.5t7 -20.5q14 -37 28.5 -82t21.5 -84q2 -10 2 -20q0 -38 -26 -62 q-32 -31 -69 -33h-6q-39 0 -63 22q-26 24 -27 66v12q2 6 12.5 -8t12.5 -24q0 -12 2 -17q10 -25 47 -35q29 2 53 27q20 21 20 49q0 5 -1 10q0 31 -12.5 81t-24.5 91q-2 8 -4 14.5t-4 12.5q-4 16 -8.5 27.5t-8.5 25.5q-14 -29 -33.5 -63.5t-39 -69.5t-39 -65.5t-35.5 -51.5z M145 403v5l2 2l3 -7h-5z" />
<glyph unicode="t" horiz-adv-x="149" d="M-549 498q4 16 21 39q28 35 70 51q38 14 79 14h10q74 -4 153 -15.5t163 -25.5q27 -4 53.5 -8t52.5 -8l127 -25l10 21q4 4 5.5 9t5.5 9v-2q10 20 19 38.5t18 35.5q8 16 12 25.5t6 13.5q2 5 3 5q2 -1 3 -7q2 -12 2 -28.5t-1 -34t-3 -21.5q-10 -16 -21.5 -38t-15.5 -34 q41 -10 83 -15t104 -5q25 2 51 13t37 34q6 4 18 10t25.5 11t21.5 6t6 -5q-4 -4 -4 -6q-6 -10 -6 -12q-23 -29 -52.5 -43.5t-60.5 -20.5q-12 -4 -27.5 -4h-33.5h-25q-37 2 -74.5 7t-74.5 12q-16 -33 -36.5 -73t-43.5 -81q-20 -41 -41.5 -81t-41 -77t-34 -66.5t-22.5 -45.5 q-2 -4 -3 -10.5t-3 -12.5q-2 -10 1 -20.5t11 -14.5q35 2 67.5 34t59.5 67q6 8 11 15t11 15q2 6 5.5 10.5t9.5 -1.5h-2q6 -4 4 -13q-6 -10 -6 -12q-25 -31 -47 -57q-23 -25 -51.5 -47.5t-53.5 -22.5q-29 0 -37 20v-2q-10 16 -3 55.5t42 108.5q14 25 30.5 57.5t29.5 57.5 q25 49 52 103.5t50 99.5q-27 4 -50.5 9t-49.5 9q-4 0 -8.5 1t-8.5 1q-18 4 -35.5 7t-35.5 8q-49 10 -98.5 18t-100.5 16q-10 2 -19.5 3t-19.5 3q-55 8 -119 13q-25 -2 -51.5 -13.5t-40.5 -35.5q-10 -10 -36.5 -27.5t-43.5 -26.5q-4 -1 -4 4q0 3 2 9z" />
<glyph unicode="u" horiz-adv-x="362" d="M-35 18q-7 10 -7 27q0 44 46 137q37 74 59.5 118t35 68.5t16.5 33t4 12.5q1 2 3 2t3 -6q2 -10 4 -27.5t1 -34t-3 -20.5q-27 -45 -51 -90q-23 -39 -44.5 -81t-35.5 -75q-2 -4 -6 -15.5t-5 -22.5t0 -20.5t11 -11.5h4q18 0 68 27q56 31 116 113q4 4 5 8t6 10l8 16l53 109 q10 20 19.5 39.5t17.5 36.5l20 41q3 7 6 7q3 -1 5 -13q4 -22 2 -48q0 -14 -1 -22t-3 -14q-12 -18 -29 -47t-34 -62t-34.5 -66.5t-29.5 -60.5q-4 -8 -9.5 -19.5t-8.5 -22.5t-1 -20.5t14 -11.5q6 0 21.5 3t38 16.5t50.5 39t60 70.5l5 4q6 6 8 7h2q2 -4 2 -8.5t-4 -12.5 q-10 -16 -22.5 -30.5t-24.5 -30.5q-25 -27 -57.5 -48.5t-69.5 -23.5q-27 0 -35 12q-10 10 -12 33v5q0 22 14 58q-14 -14 -34.5 -32.5t-43 -34.5t-45.5 -27.5t-39 -11.5q-31 0 -39 20v-2z" />
<glyph unicode="v" horiz-adv-x="286" d="M-27 72q4 38 33 110q6 16 12.5 35t12.5 33q4 10 8 22.5t8 22.5q14 37 25.5 71.5t17.5 51.5q-2 -10 -1 -24.5t4 -29t6 -23.5t5 -9q-2 -4 -3 -10.5t-5 -10.5q-8 -18 -21.5 -46.5t-28.5 -61.5t-29.5 -66t-22.5 -59q-4 -10 -8 -31q-2 -12 1 -22.5t13 -12.5q12 -2 53 22.5 t90 84.5q23 29 49.5 67.5t49.5 75.5q10 20 12 44t-10 42q0 6 2 22.5t4 31t5 22.5q2 5 4 5t3 -3v2q6 -6 10 -22q9 -28 9 -55q0 -19 -4 -37q-11 -44 -33 -78q-16 -27 -30.5 -48.5t-29.5 -40.5q-8 -8 -12 -16q-6 -10 -24.5 -32.5t-41 -44t-48 -38t-50.5 -16.5h-4q-20 0 -27 18 q-5 11 -5 31q0 10 1 23zM104 332q2 0 2 2z" />
<glyph unicode="w" horiz-adv-x="460" d="M-27 72q4 38 33 110q6 16 12.5 35t12.5 33q4 10 8 22.5t8 22.5q14 37 25.5 71.5t17.5 51.5q-2 -10 -1 -25.5t4 -29t7 -22.5t6 -9q-2 -4 -3 -10.5t-5 -10.5q-8 -18 -21.5 -46.5t-28.5 -61.5t-29.5 -66t-22.5 -59q-6 -18 -6 -33q-2 -12 2 -21.5t14 -11.5q16 -2 56 23.5 t100 103.5v-2q16 59 43.5 140t56.5 141q0 -23 4 -53.5t8 -34.5q-4 -6 -16 -34t-28.5 -65.5t-34 -78.5t-29.5 -74q-6 -16 -6 -31q0 -12 4 -21.5t14 -11.5q16 -4 53 20.5t86 84.5q20 27 46 66.5t49 76.5q10 20 12 44t-10 42q0 6 2 22.5t4 31t5 22.5q2 5 4 5t3 -3q2 -4 3 -5 t3 -5q2 -2 2 -3t4 -5q10 -28 10 -53q0 -27 -8 -51q-6 -22 -14 -39t-14 -23v2q-23 -41 -36 -59.5t-24 -34.5q-4 -4 -7 -9.5t-7 -9.5q-6 -10 -23.5 -31.5t-40 -44t-49 -39t-51.5 -16.5h-6q-14 0 -20 8q-8 12 -11.5 31.5t7.5 60.5q-25 -31 -62 -65.5t-78 -34.5h-4q-21 0 -29 18 q-5 11 -5 31q0 10 1 23zM106 332q2 0 3 2zM274 330l2 2z" />
<glyph unicode="x" horiz-adv-x="260" d="M-115 -86v10q-1 18 5 38q8 24 20 45.5t24.5 36.5t22.5 26q10 12 23.5 25.5t21.5 23.5q20 25 45 51q0 20 1 50t2 59.5t2 56t1 43.5v27q0 10 6.5 5t14.5 -15.5t14 -23t6 -16.5q-2 -29 -2 -55q-2 -23 -2 -50.5t-2 -49.5q16 16 25.5 28.5t19.5 22.5t14 16q14 20 23.5 43 t1.5 43q2 6 8 20.5t12.5 28t12.5 21.5q4 5 5 5t1 -1q2 -6 3 -12t3 -10q1 -9 1 -19q0 -47 -26 -85q-32 -46 -69 -85q-10 -10 -17.5 -18.5t-15.5 -18.5q-4 -20 -4 -28q-4 -25 -4 -40.5t-2 -41.5q0 -16 4 -29q10 -25 27 -31q6 -2 18 1t30.5 15.5t41 38t51.5 68.5q6 10 12 10 q7 0 7 -4q0 -3 -5 -10q-27 -41 -49 -66q-23 -25 -49.5 -46t-52.5 -19q-25 -2 -41 10q-14 10 -22 40q-6 20 -6 53q0 15 1 34v10q-10 -12 -24.5 -27.5t-24.5 -29.5l-43 -49q-12 -16 -20.5 -39t-2.5 -37q-2 -8 -9 -22.5t-14 -27.5t-13 -21q-4 -4 -6 -4q-1 0 -1 3l-2 5 q-2 6 -2 18z" />
<glyph unicode="y" horiz-adv-x="337" d="M-254 -131q0 2 10.5 1t23.5 -4t25.5 -7t18.5 -9q16 -23 43 -30.5t55 -3.5q31 8 62.5 36.5t60.5 67.5t56.5 85t50.5 93q-27 -31 -70 -64.5t-84 -33.5q-31 0 -39 20v-2q-7 10 -7 27q0 44 46 137q53 106 76.5 154.5t31.5 62.5q2 4 4.5 8.5t2.5 6.5l1 1q2 0 4 -9q3 -11 4 -26 t1 -30.5t-2 -21.5q-12 -29 -31.5 -63t-36.5 -62v2q-23 -41 -43 -76t-26 -55q-4 -6 -9 -27q-4 -27 15 -35q8 0 26.5 5.5t42 18.5t52 38.5t59.5 66.5v-2q4 10 16.5 38t28.5 61.5t32.5 69.5t30 62.5t20.5 39.5q4 8 4.5 8t-1.5 -4q2 -4 4 -15.5t2 -26v-26.5t-2 -18 q0 -2 -11 -24.5t-32 -63.5q-16 -29 -34.5 -68t-41.5 -84q0 -6 -2 -8l-10 -40t12 -28q6 0 17.5 2t29 14.5t42 39t59.5 75.5q8 8 14 9q1 -1 1 -4q0 -5 -5 -15q-12 -18 -22.5 -32.5t-24.5 -30.5q-23 -25 -50 -47.5t-52 -22.5q-6 0 -19 4q-20 8 -24 25q-35 -66 -76 -122.5 t-99 -90.5h-2q-4 -4 -13 -6.5t-15 -4.5l-19 -6q-17 -4 -35 -4q-12 0 -24 2q-25 4 -54.5 14.5t-52.5 36.5h2q-6 4 -10 11v-2q-4 4 -8 12z" />
<glyph unicode="z" horiz-adv-x="299" d="M-336 -317q0 2 10.5 1t22.5 -5.5t24.5 -9.5t18.5 -9q16 -25 43 -34t59 -7q37 2 70 20.5t61.5 47t51 62.5t38.5 67q23 41 42.5 83t39.5 85q16 37 35 73.5t39 77.5v4q-4 0 -8 -10t-10 -23q-4 -8 -7.5 -14t-7.5 -12q-4 -8 -6 -14q-4 -4 -14 -10.5t-21 10.5q-6 12 0 40 q2 4 13 35q8 23 19 53.5t22.5 62.5t22.5 61.5t18 48.5q0 4 -1 14t-6 14q-8 6 -21 2t-28.5 -14t-30 -25.5t-24.5 -29.5v2l-31 -56q-25 -41 -50 -86t-54 -86l-14 11q31 37 55 78.5t43 76.5q6 16 10 21q4 6 7 13t7 13q10 20 12.5 43t-8.5 39q0 6 2.5 21.5t5.5 29t6 22.5 q2 6 5 6q1 0 2 -1q0 -4 6 -10q0 -4 4 -12q10 -20 9 -40t-6 -38q16 18 36.5 32.5t50.5 16.5q23 0 30 -15.5t7 -52.5v-34q0 -4 -1 -6.5t-1 -6.5q-29 -55 -51 -102q-18 -41 -32.5 -78t-10.5 -49q6 6 10 22q6 16 13.5 29.5t11.5 18.5v-3q10 16 21.5 22.5t21.5 -3.5h-2 q14 -6 14 -31.5t-8 -42.5q-4 -4 -12.5 -20.5t-24.5 -48.5q-8 -14 -15.5 -30t-13.5 -26l-10 -20q-25 -53 -57.5 -109.5t-71.5 -104.5t-84 -82t-92 -42q-23 -3 -50 -3q-23 0 -47 2q-54 5 -94 52q-2 2 -4 6l-4 8q-6 6 -6 9z" />
<glyph unicode="&#xa1;" horiz-adv-x="172" d="M47 -172q0 49 3 104.5t7 110.5t8.5 106.5t8.5 92.5q4 35 6 62.5t2 37.5h14v-12t-2 -17q-2 -10 -2 -19t-2 -24q-2 -35 -3 -75.5t-1 -75.5v-74t-4 -70q-4 -51 -7 -107t-3 -106q0 -39 2 -67.5t10 -42.5l-16 -4q-10 27 -15.5 74t-5.5 106zM92 432q0 2 4 13.5t9.5 23.5 t12.5 22.5t13 10.5q6 -4 6 -25.5t-2 -38.5q-2 -8 -7 -15t-11 -15q-19 -23 -19 -25q0 -6 -1 -2t-2 13t-2 20.5t-1 17.5z" />
<glyph unicode="&#xa2;" horiz-adv-x="430" d="M57 326q0 55 24.5 107t60.5 95t78 73t77 40q14 23 25 33l10 -12q-8 -8 -13 -17q-2 -2 -1 0t-1 -2q57 0 58 -53q0 -16 -3 -29.5t-7 -23.5q-12 -16 -19 -23q-10 -8 -22.5 -14t-30.5 -6h-17q0 6 15.5 14t25.5 10q23 0 35.5 19.5t12.5 42.5q0 16 -9.5 30.5t-27.5 14.5 q-10 0 -23 -4q-12 -25 -22.5 -59t-22.5 -68q-4 -14 -10 -32t-10 -32q-8 -25 -16.5 -50.5t-18.5 -51.5q-18 -43 -35 -92h14q41 0 87 31.5t87 90.5q6 6 13 0q0 -10 -2 -12q-41 -59 -100.5 -95t-108.5 -40q-4 -6 -4 -11t-2 -10q-4 -6 -7.5 -14t-3.5 -10l-8 2q2 8 12 43 q-90 10 -90 115zM104 326q0 -70 50 -86q10 37 25.5 86t31.5 100t34.5 100t37.5 86q-31 -16 -63 -45.5t-57.5 -69.5t-42 -84t-16.5 -87zM143 166q0 -2 2 0h-2z" />
<glyph unicode="&#xa8;" horiz-adv-x="182" d="M26 427q1 5 7 22q4 10 9 25.5t5 31.5q2 6 11.5 18.5t18.5 23.5t17 17t8 0q0 -4 -1 -6t-1 -6v-12q-4 -37 -22.5 -62.5t-36.5 -42.5q-16 -14 -15 -9zM87 427q1 5 7 22q4 10 9.5 25.5t5.5 31.5q2 6 11 18.5t18 23.5t17.5 17t8.5 0q0 -4 -1 -6t-1 -6v-12q-4 -37 -22.5 -62.5 t-37.5 -42.5q-16 -14 -15 -9z" />
<glyph unicode="&#xad;" horiz-adv-x="468" d="M66 256v12h13t21 2q29 4 73 7.5t89 3.5t81 -5.5t52 -19.5l-4 -16q-14 8 -60 13t-91 1h-34t-34 2q-18 0 -36.5 1t-37.5 -1h-32z" />
<glyph unicode="&#xb4;" horiz-adv-x="241" d="M23 502q0 8 6 8q14 0 20 -2q16 -4 25 -4q16 0 29.5 4t27.5 10q16 6 33.5 12.5t42.5 6.5q12 0 12 -5v-4q-29 -29 -57.5 -38t-59.5 -9q-55 0 -67 9.5t-12 11.5z" />
<glyph unicode="&#xb8;" horiz-adv-x="178" d="M45 -67.5q0 12.5 7 24.5t20 23q4 4 10 4t2 -8.5t-10 -16.5q-14 -23 -15 -29q0 -12 17 -12q16 0 28 14q12 12 5 26.5t-23 25.5q-4 4 -4 10q0 8 8 16l10 10l15 -10l-11 -10q-2 -2 -4 -2t-4 -2q18 -10 29.5 -32.5t-8.5 -43.5q-16 -16 -41 -16q-16 0 -23.5 8t-7.5 20.5z" />
<glyph unicode="&#xbf;" horiz-adv-x="503" d="M47 -41q0 51 14.5 92t38 73t53 59.5t60.5 52.5q57 45 105.5 97t60.5 138l8 -4q-4 -47 -19.5 -85t-39 -68.5t-51 -56.5t-56.5 -50q-29 -25 -55.5 -50.5t-48 -54t-33.5 -62.5t-12 -75q0 -37 16 -68.5t43 -56t60.5 -38t70.5 -13.5q37 6 72 23.5t62.5 42t45 55.5t17.5 65 q0 20 -7.5 45t-21.5 44.5t-36.5 33t-53.5 13.5q-6 2 -17.5 7t-22.5 12t-19.5 12t-8.5 8q0 4 12.5 4h16.5q33 -2 57.5 -12.5t40.5 -22.5q41 -31 58.5 -67t17.5 -72q0 -41 -19.5 -78t-50 -66t-68.5 -46t-75 -19q-41 -4 -79 7t-67.5 34.5t-48 60.5t-20.5 86zM358 569 q0 12 1 27.5t6 26.5q0 -14 13 -40t15 -26l2 2q0 -14 -2 -26.5t-6 -24.5l-6 -4q0 6 -8 22q-4 10 -9.5 22.5t-5.5 20.5z" />
<glyph unicode="&#xc0;" horiz-adv-x="1200" d="M10 143q0 72 20.5 125.5t55.5 89t81 53t95 17.5q41 0 90 -17.5t82 -56.5q4 -4 7 -12t3 -16q-23 0 -41 12t-34 24q-18 16 -38 31t-44 19q-49 0 -96.5 -12.5t-84 -43t-59 -81t-22.5 -125.5q0 -72 28.5 -129.5t75.5 -97.5t106.5 -61.5t122.5 -21.5t130 17.5t134.5 45 t137 62.5t137.5 72q41 23 81 42t79 40q0 29 3 66.5t9 66.5q-4 0 -8 1t-8 1q-6 0 -17.5 1t-21.5 2t-17.5 1t-5.5 0q-68 -68 -142.5 -131.5t-151 -113.5t-149.5 -81.5t-136 -33.5q-61 0 -106.5 31.5t-45.5 99.5q0 43 20.5 83t55.5 81q59 70 139 94t172 24q66 0 131.5 -8 t130.5 -18q20 -4 38 -5t38 -6q31 33 75 78t73 80v-2q31 72 73.5 141.5t84.5 124t76 89t46 36.5q10 0 10 -10q0 -12 -16 -42t-46 -73t-72 -97t-91 -114v2q-25 -53 -45 -109t-35 -112q41 2 84 11.5t74 29.5l10 -12q-35 -23 -82 -32t-90 -11q-8 -29 -10 -56.5t-4 -56.5 q72 29 137.5 49.5t124.5 20.5q4 0 8 -1t8 -1h21q2 39 11 80t26 75q37 76 111.5 116t154.5 40q27 0 54.5 -5t51.5 -15q47 -20 87 -60.5t57 -89.5q14 -55 -1.5 -111.5t-62.5 -84.5q-35 -25 -78 -25q-70 0 -110 45q-33 -8 -74 2q-18 2 -38.5 4t-39.5 6q-29 4 -50 7.5t-50 5.5 q80 -23 126 -77t46 -120q0 -37 -15.5 -73t-37.5 -66q57 -37 131 -55.5t143 -12.5q100 14 199.5 65.5t159.5 137.5q12 16 24 31.5t23 31.5q18 29 37.5 54.5t44.5 48.5q27 29 60.5 42t70.5 13q35 0 73 -14q31 -12 65 -45t38 -84q4 -47 -16.5 -90t-53.5 -70q-35 -27 -75 -33 t-64 0q-31 4 -43 13h2q-12 2 -12 12q6 -4 29.5 -14.5t56.5 -10.5q23 0 47 8.5t51 30.5q33 29 53.5 70t16.5 84q-4 47 -35 78.5t-66 42.5q-31 12 -65 12q-70 0 -125 -51q-20 -23 -39 -46.5t-35 -48.5q-12 -18 -27.5 -38.5t-29.5 -36.5q-59 -86 -159.5 -138.5t-205.5 -64.5 q-70 -8 -145.5 12.5t-134.5 59.5q-37 -39 -88.5 -67t-104.5 -28q-74 0 -130 32t-95 81t-60.5 109.5t-23.5 119.5q-29 -16 -77 -40.5t-81 -41.5q-68 -37 -138.5 -73.5t-143 -65t-144.5 -47t-143 -18.5q-98 0 -181 51t-118 145q-14 33 -18.5 67t-4.5 64zM274 29 q0 -33 12.5 -55.5t31 -36t41 -18.5t42.5 -5q61 0 132 28.5t146 77t149.5 111t144.5 131.5q-29 2 -62 10q-66 10 -134 17.5t-130 7.5q-86 0 -162.5 -24.5t-136.5 -92.5q-35 -39 -54.5 -78t-19.5 -73zM1001 272v2q-4 0 0 -2zM1001 272h5l-2 -2zM1006 272q10 -2 25.5 -3 t25.5 -1q4 0 8 -1t8 -1q2 4 4 11.5t4 11.5q8 27 14.5 48t16.5 44q-29 -29 -54.5 -56.5t-51.5 -52.5zM1098 123l2 2v-2h-2zM1100 123q0 -41 9 -90t32 -96q-2 10 -3 22t-1 25q0 33 12 73q16 49 56 82t91 49q-94 -16 -196 -65zM1141 -63q0 -2 1 -2.5t1 -2.5q0 2 -1 2t-1 3z M1143 -22q-2 -39 33 -97q0 -2 8 -10q31 -39 76 -63.5t104 -24.5q53 0 100 24.5t80 59.5q-23 20 -41 41.5t-35 46.5v-2q-33 53 -51 112.5t-18 124.5q-4 0 -5 1.5t-3 1.5q-8 2 -23 2q-63 -8 -124.5 -35t-82.5 -84q0 -4 -10 -29q0 -8 -2 -12q-4 -18 -6 -57zM1319 970v4 q0 4 12 4q25 0 42 -6l34 -12q14 -6 27.5 -10t29.5 -4q8 0 25 4q6 2 20 2q6 0 6 -8q0 -2 -12 -11.5t-68 -9.5q-31 0 -59.5 9.5t-56.5 37.5zM1399 190v3l2 -3h-2zM1407 190q4 -59 22.5 -120.5t47.5 -114.5v2q31 -49 75 -82q52 62 52 125q0 31 -14.5 61.5t-40 56t-62.5 45 t-80 27.5zM1407 207h6q41 2 80 -4t78 -13q14 -2 27.5 -4t27.5 -4q39 -6 68 -4q0 2 -2 6v-2q-16 23 -21.5 52.5t6.5 52.5q8 10 21.5 15t28 4t25.5 -8t15 -19q10 -31 1 -58.5t-35 -40.5l-4 -2q-4 -2 -8.5 -3t-10.5 -3q20 -18 45 -27.5t49 -9.5q41 0 78 25q45 29 60.5 83 t-0.5 103t-51.5 88t-86.5 55q-47 20 -100 21q-78 0 -149.5 -40t-108.5 -110q-18 -35 -27.5 -73.5t-11.5 -79.5zM1677.5 233.5q5.5 -24.5 20.5 -45.5v-2l6 -6q4 2 8 2t8 2q8 4 11 4q18 10 28 37t0 49q-8 25 -32.5 26t-40.5 -19q-14 -23 -8.5 -47.5z" />
<glyph unicode="&#xc1;" horiz-adv-x="1200" d="M10 143q0 72 20.5 125.5t55.5 89t81 53t95 17.5q41 0 90 -17.5t82 -56.5q4 -4 7 -12t3 -16q-23 0 -41 12t-34 24q-18 16 -38 31t-44 19q-49 0 -96.5 -12.5t-84 -43t-59 -81t-22.5 -125.5q0 -72 28.5 -129.5t75.5 -97.5t106.5 -61.5t122.5 -21.5t130 17.5t134.5 45 t137 62.5t137.5 72q41 23 81 42t79 40q0 29 3 66.5t9 66.5q-4 0 -8 1t-8 1q-6 0 -17.5 1t-21.5 2t-17.5 1t-5.5 0q-68 -68 -142.5 -131.5t-151 -113.5t-149.5 -81.5t-136 -33.5q-61 0 -106.5 31.5t-45.5 99.5q0 43 20.5 83t55.5 81q59 70 139 94t172 24q66 0 131.5 -8 t130.5 -18q20 -4 38 -5t38 -6q31 33 75 78t73 80v-2q31 72 73.5 141.5t84.5 124t76 89t46 36.5q10 0 10 -10q0 -12 -16 -42t-46 -73t-72 -97t-91 -114v2q-25 -53 -45 -109t-35 -112q41 2 84 11.5t74 29.5l10 -12q-35 -23 -82 -32t-90 -11q-8 -29 -10 -56.5t-4 -56.5 q72 29 137.5 49.5t124.5 20.5q4 0 8 -1t8 -1h21q2 39 11 80t26 75q37 76 111.5 116t154.5 40q27 0 54.5 -5t51.5 -15q47 -20 87 -60.5t57 -89.5q14 -55 -1.5 -111.5t-62.5 -84.5q-35 -25 -78 -25q-70 0 -110 45q-33 -8 -74 2q-18 2 -38.5 4t-39.5 6q-29 4 -50 7.5t-50 5.5 q80 -23 126 -77t46 -120q0 -37 -15.5 -73t-37.5 -66q57 -37 131 -55.5t143 -12.5q100 14 199.5 65.5t159.5 137.5q12 16 24 31.5t23 31.5q18 29 37.5 54.5t44.5 48.5q27 29 60.5 42t70.5 13q35 0 73 -14q31 -12 65 -45t38 -84q4 -47 -16.5 -90t-53.5 -70q-35 -27 -75 -33 t-64 0q-31 4 -43 13h2q-12 2 -12 12q6 -4 29.5 -14.5t56.5 -10.5q23 0 47 8.5t51 30.5q33 29 53.5 70t16.5 84q-4 47 -35 78.5t-66 42.5q-31 12 -65 12q-70 0 -125 -51q-20 -23 -39 -46.5t-35 -48.5q-12 -18 -27.5 -38.5t-29.5 -36.5q-59 -86 -159.5 -138.5t-205.5 -64.5 q-70 -8 -145.5 12.5t-134.5 59.5q-37 -39 -88.5 -67t-104.5 -28q-74 0 -130 32t-95 81t-60.5 109.5t-23.5 119.5q-29 -16 -77 -40.5t-81 -41.5q-68 -37 -138.5 -73.5t-143 -65t-144.5 -47t-143 -18.5q-98 0 -181 51t-118 145q-14 33 -18.5 67t-4.5 64zM274 29 q0 -33 12.5 -55.5t31 -36t41 -18.5t42.5 -5q61 0 132 28.5t146 77t149.5 111t144.5 131.5q-29 2 -62 10q-66 10 -134 17.5t-130 7.5q-86 0 -162.5 -24.5t-136.5 -92.5q-35 -39 -54.5 -78t-19.5 -73zM1001 272v2q-4 0 0 -2zM1001 272h5l-2 -2zM1006 272q10 -2 25.5 -3 t25.5 -1q4 0 8 -1t8 -1q2 4 4 11.5t4 11.5q8 27 14.5 48t16.5 44q-29 -29 -54.5 -56.5t-51.5 -52.5zM1098 123l2 2v-2h-2zM1100 123q0 -41 9 -90t32 -96q-2 10 -3 22t-1 25q0 33 12 73q16 49 56 82t91 49q-94 -16 -196 -65zM1141 -63q0 -2 1 -2.5t1 -2.5q0 2 -1 2t-1 3z M1143 -22q-2 -39 33 -97q0 -2 8 -10q31 -39 76 -63.5t104 -24.5q53 0 100 24.5t80 59.5q-23 20 -41 41.5t-35 46.5v-2q-33 53 -51 112.5t-18 124.5q-4 0 -5 1.5t-3 1.5q-8 2 -23 2q-63 -8 -124.5 -35t-82.5 -84q0 -4 -10 -29q0 -8 -2 -12q-4 -18 -6 -57zM1319 948q0 8 6 8 q14 0 20 -2q16 -4 25 -4q16 0 29.5 4t27.5 10q16 6 33.5 12.5t42.5 6.5q12 0 12 -5v-4q-29 -29 -57.5 -38t-59.5 -9q-55 0 -67 9.5t-12 11.5zM1399 190v3l2 -3h-2zM1407 190q4 -59 22.5 -120.5t47.5 -114.5v2q31 -49 75 -82q52 62 52 125q0 31 -14.5 61.5t-40 56t-62.5 45 t-80 27.5zM1407 207h6q41 2 80 -4t78 -13q14 -2 27.5 -4t27.5 -4q39 -6 68 -4q0 2 -2 6v-2q-16 23 -21.5 52.5t6.5 52.5q8 10 21.5 15t28 4t25.5 -8t15 -19q10 -31 1 -58.5t-35 -40.5l-4 -2q-4 -2 -8.5 -3t-10.5 -3q20 -18 45 -27.5t49 -9.5q41 0 78 25q45 29 60.5 83 t-0.5 103t-51.5 88t-86.5 55q-47 20 -100 21q-78 0 -149.5 -40t-108.5 -110q-18 -35 -27.5 -73.5t-11.5 -79.5zM1677.5 233.5q5.5 -24.5 20.5 -45.5v-2l6 -6q4 2 8 2t8 2q8 4 11 4q18 10 28 37t0 49q-8 25 -32.5 26t-40.5 -19q-14 -23 -8.5 -47.5z" />
<glyph unicode="&#xc2;" horiz-adv-x="1200" d="M10 143q0 72 20.5 125.5t55.5 89t81 53t95 17.5q41 0 90 -17.5t82 -56.5q4 -4 7 -12t3 -16q-23 0 -41 12t-34 24q-18 16 -38 31t-44 19q-49 0 -96.5 -12.5t-84 -43t-59 -81t-22.5 -125.5q0 -72 28.5 -129.5t75.5 -97.5t106.5 -61.5t122.5 -21.5t130 17.5t134.5 45 t137 62.5t137.5 72q41 23 81 42t79 40q0 29 3 66.5t9 66.5q-4 0 -8 1t-8 1q-6 0 -17.5 1t-21.5 2t-17.5 1t-5.5 0q-68 -68 -142.5 -131.5t-151 -113.5t-149.5 -81.5t-136 -33.5q-61 0 -106.5 31.5t-45.5 99.5q0 43 20.5 83t55.5 81q59 70 139 94t172 24q66 0 131.5 -8 t130.5 -18q20 -4 38 -5t38 -6q31 33 75 78t73 80v-2q31 72 73.5 141.5t84.5 124t76 89t46 36.5q10 0 10 -10q0 -12 -16 -42t-46 -73t-72 -97t-91 -114v2q-25 -53 -45 -109t-35 -112q41 2 84 11.5t74 29.5l10 -12q-35 -23 -82 -32t-90 -11q-8 -29 -10 -56.5t-4 -56.5 q72 29 137.5 49.5t124.5 20.5q4 0 8 -1t8 -1h21q2 39 11 80t26 75q37 76 111.5 116t154.5 40q27 0 54.5 -5t51.5 -15q47 -20 87 -60.5t57 -89.5q14 -55 -1.5 -111.5t-62.5 -84.5q-35 -25 -78 -25q-70 0 -110 45q-33 -8 -74 2q-18 2 -38.5 4t-39.5 6q-29 4 -50 7.5t-50 5.5 q80 -23 126 -77t46 -120q0 -37 -15.5 -73t-37.5 -66q57 -37 131 -55.5t143 -12.5q100 14 199.5 65.5t159.5 137.5q12 16 24 31.5t23 31.5q18 29 37.5 54.5t44.5 48.5q27 29 60.5 42t70.5 13q35 0 73 -14q31 -12 65 -45t38 -84q4 -47 -16.5 -90t-53.5 -70q-35 -27 -75 -33 t-64 0q-31 4 -43 13h2q-12 2 -12 12q6 -4 29.5 -14.5t56.5 -10.5q23 0 47 8.5t51 30.5q33 29 53.5 70t16.5 84q-4 47 -35 78.5t-66 42.5q-31 12 -65 12q-70 0 -125 -51q-20 -23 -39 -46.5t-35 -48.5q-12 -18 -27.5 -38.5t-29.5 -36.5q-59 -86 -159.5 -138.5t-205.5 -64.5 q-70 -8 -145.5 12.5t-134.5 59.5q-37 -39 -88.5 -67t-104.5 -28q-74 0 -130 32t-95 81t-60.5 109.5t-23.5 119.5q-29 -16 -77 -40.5t-81 -41.5q-68 -37 -138.5 -73.5t-143 -65t-144.5 -47t-143 -18.5q-98 0 -181 51t-118 145q-14 33 -18.5 67t-4.5 64zM274 29 q0 -33 12.5 -55.5t31 -36t41 -18.5t42.5 -5q61 0 132 28.5t146 77t149.5 111t144.5 131.5q-29 2 -62 10q-66 10 -134 17.5t-130 7.5q-86 0 -162.5 -24.5t-136.5 -92.5q-35 -39 -54.5 -78t-19.5 -73zM1001 272v2q-4 0 0 -2zM1001 272h5l-2 -2zM1006 272q10 -2 25.5 -3 t25.5 -1q4 0 8 -1t8 -1q2 4 4 11.5t4 11.5q8 27 14.5 48t16.5 44q-29 -29 -54.5 -56.5t-51.5 -52.5zM1098 123l2 2v-2h-2zM1100 123q0 -41 9 -90t32 -96q-2 10 -3 22t-1 25q0 33 12 73q16 49 56 82t91 49q-94 -16 -196 -65zM1141 -63q0 -2 1 -2.5t1 -2.5q0 2 -1 2t-1 3z M1143 -22q-2 -39 33 -97q0 -2 8 -10q31 -39 76 -63.5t104 -24.5q53 0 100 24.5t80 59.5q-23 20 -41 41.5t-35 46.5v-2q-33 53 -51 112.5t-18 124.5q-4 0 -5 1.5t-3 1.5q-8 2 -23 2q-63 -8 -124.5 -35t-82.5 -84q0 -4 -10 -29q0 -8 -2 -12q-4 -18 -6 -57zM1293 968q2 -2 9 -5 t11 -5l12 -6q12 -2 23.5 2t23.5 8t24.5 8t27.5 4h4q16 -6 23 -13t18 -17q10 -10 19 -17.5t20 -11.5h2q-20 -4 -38 -7t-7 -7q-12 4 -23.5 13t-21.5 30q-23 -16 -44.5 -18.5t-37.5 1.5q-29 6 -41.5 22.5t-3.5 18.5zM1399 190v3l2 -3h-2zM1407 190q4 -59 22.5 -120.5 t47.5 -114.5v2q31 -49 75 -82q52 62 52 125q0 31 -14.5 61.5t-40 56t-62.5 45t-80 27.5zM1407 207h6q41 2 80 -4t78 -13q14 -2 27.5 -4t27.5 -4q39 -6 68 -4q0 2 -2 6v-2q-16 23 -21.5 52.5t6.5 52.5q8 10 21.5 15t28 4t25.5 -8t15 -19q10 -31 1 -58.5t-35 -40.5l-4 -2 q-4 -2 -8.5 -3t-10.5 -3q20 -18 45 -27.5t49 -9.5q41 0 78 25q45 29 60.5 83t-0.5 103t-51.5 88t-86.5 55q-47 20 -100 21q-78 0 -149.5 -40t-108.5 -110q-18 -35 -27.5 -73.5t-11.5 -79.5zM1465 901q2 -2 8 -2q-6 0 -8 2zM1473 899q2 -2 8 -2q-6 0 -8 2zM1510 915h20 q6 0 10 2q-4 0 -12 -1t-18 -1zM1677.5 233.5q5.5 -24.5 20.5 -45.5v-2l6 -6q4 2 8 2t8 2q8 4 11 4q18 10 28 37t0 49q-8 25 -32.5 26t-40.5 -19q-14 -23 -8.5 -47.5z" />
<glyph unicode="&#xc3;" horiz-adv-x="1200" d="M10 143q0 72 20.5 125.5t55.5 89t81 53t95 17.5q41 0 90 -17.5t82 -56.5q4 -4 7 -12t3 -16q-23 0 -41 12t-34 24q-18 16 -38 31t-44 19q-49 0 -96.5 -12.5t-84 -43t-59 -81t-22.5 -125.5q0 -72 28.5 -129.5t75.5 -97.5t106.5 -61.5t122.5 -21.5t130 17.5t134.5 45 t137 62.5t137.5 72q41 23 81 42t79 40q0 29 3 66.5t9 66.5q-4 0 -8 1t-8 1q-6 0 -17.5 1t-21.5 2t-17.5 1t-5.5 0q-68 -68 -142.5 -131.5t-151 -113.5t-149.5 -81.5t-136 -33.5q-61 0 -106.5 31.5t-45.5 99.5q0 43 20.5 83t55.5 81q59 70 139 94t172 24q66 0 131.5 -8 t130.5 -18q20 -4 38 -5t38 -6q31 33 75 78t73 80v-2q31 72 73.5 141.5t84.5 124t76 89t46 36.5q10 0 10 -10q0 -12 -16 -42t-46 -73t-72 -97t-91 -114v2q-25 -53 -45 -109t-35 -112q41 2 84 11.5t74 29.5l10 -12q-35 -23 -82 -32t-90 -11q-8 -29 -10 -56.5t-4 -56.5 q72 29 137.5 49.5t124.5 20.5q4 0 8 -1t8 -1h21q2 39 11 80t26 75q37 76 111.5 116t154.5 40q27 0 54.5 -5t51.5 -15q47 -20 87 -60.5t57 -89.5q14 -55 -1.5 -111.5t-62.5 -84.5q-35 -25 -78 -25q-70 0 -110 45q-33 -8 -74 2q-18 2 -38.5 4t-39.5 6q-29 4 -50 7.5t-50 5.5 q80 -23 126 -77t46 -120q0 -37 -15.5 -73t-37.5 -66q57 -37 131 -55.5t143 -12.5q100 14 199.5 65.5t159.5 137.5q12 16 24 31.5t23 31.5q18 29 37.5 54.5t44.5 48.5q27 29 60.5 42t70.5 13q35 0 73 -14q31 -12 65 -45t38 -84q4 -47 -16.5 -90t-53.5 -70q-35 -27 -75 -33 t-64 0q-31 4 -43 13h2q-12 2 -12 12q6 -4 29.5 -14.5t56.5 -10.5q23 0 47 8.5t51 30.5q33 29 53.5 70t16.5 84q-4 47 -35 78.5t-66 42.5q-31 12 -65 12q-70 0 -125 -51q-20 -23 -39 -46.5t-35 -48.5q-12 -18 -27.5 -38.5t-29.5 -36.5q-59 -86 -159.5 -138.5t-205.5 -64.5 q-70 -8 -145.5 12.5t-134.5 59.5q-37 -39 -88.5 -67t-104.5 -28q-74 0 -130 32t-95 81t-60.5 109.5t-23.5 119.5q-29 -16 -77 -40.5t-81 -41.5q-68 -37 -138.5 -73.5t-143 -65t-144.5 -47t-143 -18.5q-98 0 -181 51t-118 145q-14 33 -18.5 67t-4.5 64zM274 29 q0 -33 12.5 -55.5t31 -36t41 -18.5t42.5 -5q61 0 132 28.5t146 77t149.5 111t144.5 131.5q-29 2 -62 10q-66 10 -134 17.5t-130 7.5q-86 0 -162.5 -24.5t-136.5 -92.5q-35 -39 -54.5 -78t-19.5 -73zM1001 272v2q-4 0 0 -2zM1001 272h5l-2 -2zM1006 272q10 -2 25.5 -3 t25.5 -1q4 0 8 -1t8 -1q2 4 4 11.5t4 11.5q8 27 14.5 48t16.5 44q-29 -29 -54.5 -56.5t-51.5 -52.5zM1098 123l2 2v-2h-2zM1100 123q0 -41 9 -90t32 -96q-2 10 -3 22t-1 25q0 33 12 73q16 49 56 82t91 49q-94 -16 -196 -65zM1141 -63q0 -2 1 -2.5t1 -2.5q0 2 -1 2t-1 3z M1143 -22q-2 -39 33 -97q0 -2 8 -10q31 -39 76 -63.5t104 -24.5q53 0 100 24.5t80 59.5q-23 20 -41 41.5t-35 46.5v-2q-33 53 -51 112.5t-18 124.5q-4 0 -5 1.5t-3 1.5q-8 2 -23 2q-63 -8 -124.5 -35t-82.5 -84q0 -4 -10 -29q0 -8 -2 -12q-4 -18 -6 -57zM1319.5 953 q-6.5 9 3.5 15h-2q27 23 54 23q25 0 40 -11.5t27 -21.5q10 -10 18.5 -16.5t14.5 -6.5q10 0 20.5 5.5t28.5 21.5q10 10 10 -8q0 -16 -8 -25.5t-19 -14.5t-21.5 -7t-12.5 -2q-27 0 -38 10t-21 20q-8 10 -17.5 17.5t-25.5 7.5q-18 0 -35 -8h2q-12 -8 -18.5 1zM1399 190v3l2 -3 h-2zM1407 190q4 -59 22.5 -120.5t47.5 -114.5v2q31 -49 75 -82q52 62 52 125q0 31 -14.5 61.5t-40 56t-62.5 45t-80 27.5zM1407 207h6q41 2 80 -4t78 -13q14 -2 27.5 -4t27.5 -4q39 -6 68 -4q0 2 -2 6v-2q-16 23 -21.5 52.5t6.5 52.5q8 10 21.5 15t28 4t25.5 -8t15 -19 q10 -31 1 -58.5t-35 -40.5l-4 -2q-4 -2 -8.5 -3t-10.5 -3q20 -18 45 -27.5t49 -9.5q41 0 78 25q45 29 60.5 83t-0.5 103t-51.5 88t-86.5 55q-47 20 -100 21q-78 0 -149.5 -40t-108.5 -110q-18 -35 -27.5 -73.5t-11.5 -79.5zM1677.5 233.5q5.5 -24.5 20.5 -45.5v-2l6 -6 q4 2 8 2t8 2q8 4 11 4q18 10 28 37t0 49q-8 25 -32.5 26t-40.5 -19q-14 -23 -8.5 -47.5z" />
<glyph unicode="&#xc4;" horiz-adv-x="1200" d="M10 143q0 72 20.5 125.5t55.5 89t81 53t95 17.5q41 0 90 -17.5t82 -56.5q4 -4 7 -12t3 -16q-23 0 -41 12t-34 24q-18 16 -38 31t-44 19q-49 0 -96.5 -12.5t-84 -43t-59 -81t-22.5 -125.5q0 -72 28.5 -129.5t75.5 -97.5t106.5 -61.5t122.5 -21.5t130 17.5t134.5 45 t137 62.5t137.5 72q41 23 81 42t79 40q0 29 3 66.5t9 66.5q-4 0 -8 1t-8 1q-6 0 -17.5 1t-21.5 2t-17.5 1t-5.5 0q-68 -68 -142.5 -131.5t-151 -113.5t-149.5 -81.5t-136 -33.5q-61 0 -106.5 31.5t-45.5 99.5q0 43 20.5 83t55.5 81q59 70 139 94t172 24q66 0 131.5 -8 t130.5 -18q20 -4 38 -5t38 -6q31 33 75 78t73 80v-2q31 72 73.5 141.5t84.5 124t76 89t46 36.5q10 0 10 -10q0 -12 -16 -42t-46 -73t-72 -97t-91 -114v2q-25 -53 -45 -109t-35 -112q41 2 84 11.5t74 29.5l10 -12q-35 -23 -82 -32t-90 -11q-8 -29 -10 -56.5t-4 -56.5 q72 29 137.5 49.5t124.5 20.5q4 0 8 -1t8 -1h21q2 39 11 80t26 75q37 76 111.5 116t154.5 40q27 0 54.5 -5t51.5 -15q47 -20 87 -60.5t57 -89.5q14 -55 -1.5 -111.5t-62.5 -84.5q-35 -25 -78 -25q-70 0 -110 45q-33 -8 -74 2q-18 2 -38.5 4t-39.5 6q-29 4 -50 7.5t-50 5.5 q80 -23 126 -77t46 -120q0 -37 -15.5 -73t-37.5 -66q57 -37 131 -55.5t143 -12.5q100 14 199.5 65.5t159.5 137.5q12 16 24 31.5t23 31.5q18 29 37.5 54.5t44.5 48.5q27 29 60.5 42t70.5 13q35 0 73 -14q31 -12 65 -45t38 -84q4 -47 -16.5 -90t-53.5 -70q-35 -27 -75 -33 t-64 0q-31 4 -43 13h2q-12 2 -12 12q6 -4 29.5 -14.5t56.5 -10.5q23 0 47 8.5t51 30.5q33 29 53.5 70t16.5 84q-4 47 -35 78.5t-66 42.5q-31 12 -65 12q-70 0 -125 -51q-20 -23 -39 -46.5t-35 -48.5q-12 -18 -27.5 -38.5t-29.5 -36.5q-59 -86 -159.5 -138.5t-205.5 -64.5 q-70 -8 -145.5 12.5t-134.5 59.5q-37 -39 -88.5 -67t-104.5 -28q-74 0 -130 32t-95 81t-60.5 109.5t-23.5 119.5q-29 -16 -77 -40.5t-81 -41.5q-68 -37 -138.5 -73.5t-143 -65t-144.5 -47t-143 -18.5q-98 0 -181 51t-118 145q-14 33 -18.5 67t-4.5 64zM274 29 q0 -33 12.5 -55.5t31 -36t41 -18.5t42.5 -5q61 0 132 28.5t146 77t149.5 111t144.5 131.5q-29 2 -62 10q-66 10 -134 17.5t-130 7.5q-86 0 -162.5 -24.5t-136.5 -92.5q-35 -39 -54.5 -78t-19.5 -73zM1001 272v2q-4 0 0 -2zM1001 272h5l-2 -2zM1006 272q10 -2 25.5 -3 t25.5 -1q4 0 8 -1t8 -1q2 4 4 11.5t4 11.5q8 27 14.5 48t16.5 44q-29 -29 -54.5 -56.5t-51.5 -52.5zM1098 123l2 2v-2h-2zM1100 123q0 -41 9 -90t32 -96q-2 10 -3 22t-1 25q0 33 12 73q16 49 56 82t91 49q-94 -16 -196 -65zM1141 -63q0 -2 1 -2.5t1 -2.5q0 2 -1 2t-1 3z M1143 -22q-2 -39 33 -97q0 -2 8 -10q31 -39 76 -63.5t104 -24.5q53 0 100 24.5t80 59.5q-23 20 -41 41.5t-35 46.5v-2q-33 53 -51 112.5t-18 124.5q-4 0 -5 1.5t-3 1.5q-8 2 -23 2q-63 -8 -124.5 -35t-82.5 -84q0 -4 -10 -29q0 -8 -2 -12q-4 -18 -6 -57zM1396 873q1 5 7 22 q4 10 9 25.5t5 31.5q2 6 11.5 18.5t18.5 23.5t17 17t8 0q0 -4 -1 -6t-1 -6v-12q-4 -37 -22.5 -62.5t-36.5 -42.5q-16 -14 -15 -9zM1399 190v3l2 -3h-2zM1407 190q4 -59 22.5 -120.5t47.5 -114.5v2q31 -49 75 -82q52 62 52 125q0 31 -14.5 61.5t-40 56t-62.5 45t-80 27.5z M1407 207h6q41 2 80 -4t78 -13q14 -2 27.5 -4t27.5 -4q39 -6 68 -4q0 2 -2 6v-2q-16 23 -21.5 52.5t6.5 52.5q8 10 21.5 15t28 4t25.5 -8t15 -19q10 -31 1 -58.5t-35 -40.5l-4 -2q-4 -2 -8.5 -3t-10.5 -3q20 -18 45 -27.5t49 -9.5q41 0 78 25q45 29 60.5 83t-0.5 103 t-51.5 88t-86.5 55q-47 20 -100 21q-78 0 -149.5 -40t-108.5 -110q-18 -35 -27.5 -73.5t-11.5 -79.5zM1457 873q1 5 7 22q4 10 9.5 25.5t5.5 31.5q2 6 11 18.5t18 23.5t17.5 17t8.5 0q0 -4 -1 -6t-1 -6v-12q-4 -37 -22.5 -62.5t-37.5 -42.5q-16 -14 -15 -9zM1677.5 233.5 q5.5 -24.5 20.5 -45.5v-2l6 -6q4 2 8 2t8 2q8 4 11 4q18 10 28 37t0 49q-8 25 -32.5 26t-40.5 -19q-14 -23 -8.5 -47.5z" />
<glyph unicode="&#xc5;" horiz-adv-x="1200" d="M10 143q0 72 20.5 125.5t55.5 89t81 53t95 17.5q41 0 90 -17.5t82 -56.5q4 -4 7 -12t3 -16q-23 0 -41 12t-34 24q-18 16 -38 31t-44 19q-49 0 -96.5 -12.5t-84 -43t-59 -81t-22.5 -125.5q0 -72 28.5 -129.5t75.5 -97.5t106.5 -61.5t122.5 -21.5t130 17.5t134.5 45 t137 62.5t137.5 72q41 23 81 42t79 40q0 29 3 66.5t9 66.5q-4 0 -8 1t-8 1q-6 0 -17.5 1t-21.5 2t-17.5 1t-5.5 0q-68 -68 -142.5 -131.5t-151 -113.5t-149.5 -81.5t-136 -33.5q-61 0 -106.5 31.5t-45.5 99.5q0 43 20.5 83t55.5 81q59 70 139 94t172 24q66 0 131.5 -8 t130.5 -18q20 -4 38 -5t38 -6q31 33 75 78t73 80v-2q31 72 73.5 141.5t84.5 124t76 89t46 36.5q10 0 10 -10q0 -12 -16 -42t-46 -73t-72 -97t-91 -114v2q-25 -53 -45 -109t-35 -112q41 2 84 11.5t74 29.5l10 -12q-35 -23 -82 -32t-90 -11q-8 -29 -10 -56.5t-4 -56.5 q72 29 137.5 49.5t124.5 20.5q4 0 8 -1t8 -1h21q2 39 11 80t26 75q37 76 111.5 116t154.5 40q27 0 54.5 -5t51.5 -15q47 -20 87 -60.5t57 -89.5q14 -55 -1.5 -111.5t-62.5 -84.5q-35 -25 -78 -25q-70 0 -110 45q-33 -8 -74 2q-18 2 -38.5 4t-39.5 6q-29 4 -50 7.5t-50 5.5 q80 -23 126 -77t46 -120q0 -37 -15.5 -73t-37.5 -66q57 -37 131 -55.5t143 -12.5q100 14 199.5 65.5t159.5 137.5q12 16 24 31.5t23 31.5q18 29 37.5 54.5t44.5 48.5q27 29 60.5 42t70.5 13q35 0 73 -14q31 -12 65 -45t38 -84q4 -47 -16.5 -90t-53.5 -70q-35 -27 -75 -33 t-64 0q-31 4 -43 13h2q-12 2 -12 12q6 -4 29.5 -14.5t56.5 -10.5q23 0 47 8.5t51 30.5q33 29 53.5 70t16.5 84q-4 47 -35 78.5t-66 42.5q-31 12 -65 12q-70 0 -125 -51q-20 -23 -39 -46.5t-35 -48.5q-12 -18 -27.5 -38.5t-29.5 -36.5q-59 -86 -159.5 -138.5t-205.5 -64.5 q-70 -8 -145.5 12.5t-134.5 59.5q-37 -39 -88.5 -67t-104.5 -28q-74 0 -130 32t-95 81t-60.5 109.5t-23.5 119.5q-29 -16 -77 -40.5t-81 -41.5q-68 -37 -138.5 -73.5t-143 -65t-144.5 -47t-143 -18.5q-98 0 -181 51t-118 145q-14 33 -18.5 67t-4.5 64zM274 29 q0 -33 12.5 -55.5t31 -36t41 -18.5t42.5 -5q61 0 132 28.5t146 77t149.5 111t144.5 131.5q-29 2 -62 10q-66 10 -134 17.5t-130 7.5q-86 0 -162.5 -24.5t-136.5 -92.5q-35 -39 -54.5 -78t-19.5 -73zM1001 272v2q-4 0 0 -2zM1001 272h5l-2 -2zM1006 272q10 -2 25.5 -3 t25.5 -1q4 0 8 -1t8 -1q2 4 4 11.5t4 11.5q8 27 14.5 48t16.5 44q-29 -29 -54.5 -56.5t-51.5 -52.5zM1098 123l2 2v-2h-2zM1100 123q0 -41 9 -90t32 -96q-2 10 -3 22t-1 25q0 33 12 73q16 49 56 82t91 49q-94 -16 -196 -65zM1141 -63q0 -2 1 -2.5t1 -2.5q0 2 -1 2t-1 3z M1143 -22q-2 -39 33 -97q0 -2 8 -10q31 -39 76 -63.5t104 -24.5q53 0 100 24.5t80 59.5q-23 20 -41 41.5t-35 46.5v-2q-33 53 -51 112.5t-18 124.5q-4 0 -5 1.5t-3 1.5q-8 2 -23 2q-63 -8 -124.5 -35t-82.5 -84q0 -4 -10 -29q0 -8 -2 -12q-4 -18 -6 -57zM1399 190v3l2 -3h-2 zM1407 190q4 -59 22.5 -120.5t47.5 -114.5v2q31 -49 75 -82q52 62 52 125q0 31 -14.5 61.5t-40 56t-62.5 45t-80 27.5zM1407 207h6q41 2 80 -4t78 -13q14 -2 27.5 -4t27.5 -4q39 -6 68 -4q0 2 -2 6v-2q-16 23 -21.5 52.5t6.5 52.5q8 10 21.5 15t28 4t25.5 -8t15 -19 q10 -31 1 -58.5t-35 -40.5l-4 -2q-4 -2 -8.5 -3t-10.5 -3q20 -18 45 -27.5t49 -9.5q41 0 78 25q45 29 60.5 83t-0.5 103t-51.5 88t-86.5 55q-47 20 -100 21q-78 0 -149.5 -40t-108.5 -110q-18 -35 -27.5 -73.5t-11.5 -79.5zM1428.5 873q0.5 5 7.5 22q4 10 9 25.5t5 31.5 q2 6 11 18.5t18.5 23.5t17.5 17t8 0q0 -4 -1 -6t-1 -6v-12q0 -37 -20.5 -62.5t-38.5 -42.5q-16 -14 -15.5 -9zM1458 919q12 16 14 25q0 2 1.5 3t1.5 5q-2 0 -6.5 -7.5t-6.5 -11.5q0 -6 -4 -14zM1677.5 233.5q5.5 -24.5 20.5 -45.5v-2l6 -6q4 2 8 2t8 2q8 4 11 4q18 10 28 37 t0 49q-8 25 -32.5 26t-40.5 -19q-14 -23 -8.5 -47.5z" />
<glyph unicode="&#xc6;" horiz-adv-x="1853" d="M16 184q0 72 20.5 125t55.5 89t80 53.5t94 17.5q41 0 91.5 -17.5t82.5 -58.5q4 -4 7.5 -12t3.5 -16q-23 0 -41.5 12t-34.5 26q-18 16 -38 31t-46 19q-49 0 -95 -13.5t-83 -44t-59.5 -81t-22.5 -124.5q0 -72 28.5 -129t74.5 -97t106.5 -61.5t124.5 -21.5q63 0 129.5 17.5 t134 45t136.5 62.5t136 72q41 23 81 42t81 40q0 29 3 66.5t9 66.5q-4 0 -8 1t-8 1q-6 0 -17.5 1t-22.5 2t-18.5 1t-5.5 0q-66 -68 -140.5 -131.5t-151 -113.5t-149.5 -81.5t-136 -33.5q-61 0 -107.5 31.5t-46.5 99.5q0 43 21.5 83t56.5 80q59 70 139 94.5t172 24.5 q66 0 131.5 -8t128.5 -18q20 -4 38 -5.5t38 -5.5q33 33 77 78t73 80v-2q16 39 35.5 78t39.5 72q-10 20 -17 46.5t-7 49.5q0 68 42 109.5t97 41.5q16 0 34.5 -5t37.5 -11q4 4 9 6t9 4q10 0 11 -10q0 -4 -2.5 -9l-4.5 -9q18 -16 36 -38t26 -51q4 -12 4 -20q0 -4 -8 0t-19.5 11 t-21.5 17.5t-15 18.5q-4 10 -7 18.5t-7 18.5q-20 -39 -60 -95.5t-94 -123.5q57 -53 141.5 -91t162.5 -38q37 0 74.5 5t74.5 15h-2q16 23 38.5 48.5t41.5 43.5q33 35 71.5 70t79.5 57h-2q23 12 41.5 18.5t28.5 8.5q8 2 17.5 0t7.5 -20q0 -10 -9 -23q-43 -72 -118.5 -126 t-167.5 -83h2q-12 -16 -25.5 -35.5t-40.5 -54.5q2 -2 4 -2q4 -4 8.5 -8t0.5 -13q-6 -8 -14.5 -7t-16.5 5h2q-10 2 -15 13q-55 12 -118 12q-59 0 -120 -12.5t-116 -38.5h2l-16 -8q-4 -2 -7 -4.5t-7 -4.5q-4 -4 -10.5 -8t-12.5 -8q-4 -2 -8 -6l-6 -6q-23 -20 -40.5 -43 t-27.5 -45q57 23 109.5 36t103.5 13q49 0 92 -14.5t78 -36.5q23 10 47.5 16t46.5 6q35 2 64.5 -12t51 -39t34 -57.5t12.5 -65.5q0 -41 -18.5 -80t-49 -70.5t-71.5 -57t-86 -38.5q-31 -10 -61.5 -15t-65.5 -5q-68 0 -131 20q4 -27 17 -51t30 -47q16 -16 34.5 -29.5 t39.5 -11.5q6 -2 19 -10t25.5 -16.5t18.5 -15.5t-2 -7h-23q-72 8 -116.5 67.5t-57.5 129.5q-51 16 -82 40h3q-12 2 -13 7q-4 4 -10 9t-10 9q-53 49 -83 123t-36 145q-31 -16 -79 -40.5t-81 -41.5q-68 -37 -138.5 -73.5t-142 -65t-143 -47t-143.5 -18.5q-98 0 -180 52 t-119 144q-12 31 -17.5 67t-5.5 64zM279 70q0 -33 12 -55.5t31.5 -36t42.5 -18.5t43 -5q61 0 131.5 28.5t144.5 77t148.5 110.5t144.5 132q-29 2 -62 10q-63 10 -131.5 17.5t-130.5 7.5q-86 0 -162.5 -24.5t-136.5 -92.5q-35 -39 -55 -78t-20 -73zM1006 313v2q-4 0 0 -2z M1006 313h4l-2 -2zM1010 313q10 -2 26.5 -3t26.5 -1q4 0 8 -1t8 -1q2 4 4 11.5t4 11.5q8 25 14.5 47t16.5 45q-55 -59 -108 -109zM1106 195q20 57 55 98h-41q-8 -29 -10 -50.5t-4 -47.5zM1120 293l2 2zM1124 307h13h23t22 4h-2l6 6q59 53 131 73t147 20q45 0 91.5 -5.5 t89.5 -11.5q8 14 24 37q4 6 11.5 15.5t11.5 17.5q-70 -16 -131 -17q-92 0 -173 33t-141 99l-2 -5q-10 -10 -20.5 -22t-20.5 -25v2q-25 -53 -45 -110.5t-35 -110.5zM1130 82q0 -59 26 -116.5t85 -98.5h-2q4 -2 7 -4t7 -4q14 -12 37 -19q2 45 20.5 97.5t49.5 100.5t72 88 t88 64q-64 46 -152 46q-51 0 -108.5 -15.5t-112.5 -38.5q-16 -53 -17 -100zM1204 717q0 -41 21 -82q39 59 84 115.5t73 87.5q-27 16 -53 16q-47 0 -86 -39t-39 -98zM1223 633q2 0 2 2q0 -4 2 -4zM1231 582l2 2q2 2 2 3t2 3l-2 2zM1245 600v2q2 -2 4 -2h-4zM1245 602 q59 72 99 129t59 88q-4 4 -7 6t-5 4q-18 -18 -38 -45.5t-39.5 -58.5t-36.5 -62.5t-32 -58.5v-2zM1309 -166q2 0 4 -2t4 -2q2 -2 6 -2q10 -2 22.5 -3t24.5 -1q51 0 95 20.5t76 51t49.5 69.5t17.5 76q0 35 -21.5 74t-56.5 67q-45 -23 -85 -64.5t-71 -91t-48 -99.5t-17 -93z M1407 844l2 -2q0 -2 2 -2q0 2 2 6zM1419 -193q12 -2 24.5 -2h24.5q70 0 131 23q74 33 127.5 93.5t53.5 125.5q0 31 -11.5 59.5t-31 51t-46 36t-59.5 13.5q-41 0 -84 -17q35 -31 55.5 -69.5t20.5 -79.5q0 -39 -17.5 -77t-46 -69.5t-65.5 -55t-76 -32.5zM1663 371l2 4 q4 -4 8 -4l-2 -4l-2 2q-4 4 -6 2zM1755 496q80 29 147.5 82t108.5 114q2 4 3 10.5t-3 8.5q-63 -23 -129.5 -83.5t-126.5 -131.5z" />
<glyph unicode="&#xc7;" horiz-adv-x="831" d="M6 178q-4 121 50.5 215t144.5 158.5t204.5 98.5t231.5 34q23 0 45.5 -1t44.5 -3q86 41 184.5 77t182.5 36q25 0 50 -2.5t44.5 -8.5t33 -19t13.5 -34q0 -31 -21.5 -50.5t-54.5 -29.5t-69.5 -13t-69.5 -3q-61 0 -100 5t-70 11q-35 6 -74 10q-76 -41 -157.5 -93t-149.5 -109 q45 -41 45 -113q0 -49 -15.5 -101.5t-44 -99.5t-68.5 -85t-89 -60q25 -47 80 -71.5t117 -24.5q92 0 179 47t148 135q10 12 13 22q2 2 2 5q0 2 2 4q2 4 9 -1t5 -10q-14 -29 -27 -43q-63 -80 -151 -127t-180 -47q-31 0 -59.5 5.5t-53.5 15.5q-2 0 -3 -2t-3 -2h2q-4 -4 -6 -4 q18 -10 29.5 -33t-9.5 -43q-16 -16 -41 -17q-16 0 -23.5 8.5t-7.5 20.5t7.5 24.5t19.5 22.5q4 4 10 4t2 -8t-10 -16q-14 -23 -14 -29q0 -12 16 -12t29 14q12 12 5 26.5t-24 24.5q-4 4 -4 11q0 8 6 14l5 4q-29 12 -50.5 33.5t-35.5 46.5q-18 -4 -39 -8t-41 -4 q-84 0 -138.5 53t-56.5 141zM20 186q6 -98 61.5 -136t141.5 -38h23.5t23.5 4q-14 41 -14 90t14.5 100.5t39 98.5t54 88t60.5 74q-14 8 -27.5 10t-29.5 2q-31 0 -59.5 -12t-52.5 -31.5t-37 -45t-13 -52.5q0 -16 6 -31q0 -6 -2 -19.5t-6 -25.5t-8.5 -22.5t-6.5 -10.5 q-4 0 -7 9.5t-5 21.5t-3 22.5t-1 14.5q0 39 15.5 75t42 62.5t61.5 43t76 18.5q16 0 33.5 -5.5t33.5 -13.5q57 57 128 105.5t136 83.5q-16 2 -30.5 3t-30.5 1q-104 0 -214 -31t-199 -92.5t-146.5 -151.5t-57.5 -209zM276 92q0 -16 2.5 -33.5t8.5 -35.5q47 20 87 57t67.5 80 t43 89t15.5 87q0 72 -41 108q-31 -27 -62.5 -65.5t-58.5 -84.5t-44.5 -97.5t-17.5 -104.5zM799 674q10 -2 24.5 -4t24.5 -6q31 -6 68.5 -11.5t103.5 -5.5q33 0 68.5 3t64.5 12.5t48.5 24.5t19.5 40q0 29 -30 38t-65 9q-72 0 -153.5 -26.5t-173.5 -73.5z" />
<glyph unicode="&#xc8;" horiz-adv-x="780" d="M23 96q0 59 22.5 116.5t69.5 104.5q59 53 130.5 73t147.5 20q45 0 92 -5.5t90 -11.5q8 14 25 37q4 6 11 15.5t12 17.5q-70 -16 -134 -17q-98 0 -183 36t-144 114q-43 57 -43 121q0 68 42 109.5t97 41.5q49 0 94 -34.5t62 -88.5q4 -12 4 -20q0 -4 -8.5 0t-19.5 12 t-21.5 18.5t-14.5 18.5q-4 33 -32.5 56.5t-63.5 23.5q-47 0 -86 -39t-39 -98q0 -53 41 -111q57 -76 140 -110.5t175 -34.5q82 0 152 20h-2q16 23 38.5 48.5t41.5 43.5q33 35 70.5 70t78.5 57h-2q23 12 41.5 18.5t28.5 8.5q8 2 17.5 0t7.5 -20q0 -10 -9 -23 q-43 -72 -117.5 -126t-166.5 -83h2q-12 -16 -25.5 -35.5t-40.5 -54.5q2 -2 4 -2q4 -4 8.5 -8t-0.5 -13q-6 -8 -14 -7t-16 5h2q-10 2 -15 13q-29 6 -60.5 9t-61.5 3q-78 0 -156 -21.5t-143 -74.5q-45 -37 -69 -92.5t-24 -114.5t26 -116.5t85 -98.5h-2q4 -2 7 -4t7 -4 q14 -12 37 -19q2 47 23.5 101.5t56.5 105.5t80 93t94 63q2 2 5 3t1 -1q35 10 75 18t114 4q4 47 18 89t45 75q39 43 96.5 66.5t116.5 23.5q49 0 92 -15t76 -50q47 -47 47 -115q0 -49 -26 -88q-25 -33 -61 -48t-77 -15q-29 0 -59 10q-31 10 -53 26q-35 -4 -68 2.5t-63 14.5 q-29 8 -72 14v-21.5t2 -31.5v2q43 -53 43 -119v-9t-2 -9q0 -4 -1 -6.5t-1 -6.5q0 -6 6 -8l12 -12q41 -47 101.5 -67.5t124.5 -20.5q41 0 81.5 7t77.5 19q45 16 88 48t82 67q-4 27 6.5 52.5t26.5 41.5q23 18 48.5 20.5t47.5 -7.5q2 2 8.5 5t10.5 5q2 2 22 12q23 10 49.5 16.5 t53.5 -1.5t46 -30t23 -50q4 -61 -41 -97t-98 -53q-35 -6 -78 -4t-92 31q-20 14 -31 45q-41 -35 -79.5 -61.5t-92.5 -47.5q-37 -12 -78.5 -20t-84.5 -8q-66 0 -126.5 21.5t-103.5 68.5l-5 5t-5 7l-2 2q-18 -68 -81 -122t-140 -79q-31 -10 -61.5 -15t-65.5 -5q-68 0 -131 20 q4 -27 17 -51t30 -47q16 -16 34.5 -29.5t38.5 -11.5q6 -2 19.5 -10t26 -16.5t18.5 -15.5t-2 -7h-23q-72 8 -115.5 67.5t-58.5 126.5q-94 33 -148 115t-54 174zM238 -168q76 -29 159 -29q33 0 68 7.5t65 17.5q66 29 116 80t63 110q-14 29 -24.5 66t-14.5 70q-20 23 -46 38 t-61 15q-66 0 -124 -39t-102 -95.5t-71.5 -122t-27.5 -118.5zM580 217v4q4 -2 9 -2t9 -2h-18zM594 371l2 4q4 -4 8 -4l-2 -4l-2 2q-4 4 -6 2zM600 217q33 -8 68 -37v37q-31 4 -68 0zM680 227q18 -4 35.5 -7t36.5 -7q29 -8 58.5 -13t59.5 -3q-12 14 -18 32q-10 25 0 51.5 t37 36.5q33 14 55.5 -6t18.5 -49q0 -25 -20.5 -45t-43.5 -29q10 -6 20.5 -11t16.5 -9q16 -4 29.5 -7t29.5 -3q37 0 71 16t56 47q14 18 20.5 41t6.5 45q0 57 -41 99q-35 35 -77 52t-87 17q-53 0 -109.5 -27.5t-95.5 -66.5q-27 -33 -41 -75t-18 -79zM684 135q2 -27 8 -50.5 t17 -45.5q0 2 1 3t1 5q0 47 -27 88zM686 496q78 29 145.5 82t108.5 114q2 4 3 10.5t-3 8.5q-63 -23 -129 -83.5t-125 -131.5zM858 843v4q0 4 12 4q25 0 42 -6l34 -12q14 -6 27.5 -10t29.5 -4q8 0 25 4q6 2 20 2q6 0 6 -8q0 -2 -12 -11.5t-68 -9.5q-31 0 -59.5 9.5 t-56.5 37.5zM860 229q4 -8 13.5 -17t17.5 -15q25 4 44 23.5t19 41.5q0 27 -19.5 42t-41.5 5q-23 -10 -33 -32.5t0 -47.5zM1300 55q4 2 7.5 6.5t7.5 6.5q23 20 49.5 41.5t54.5 42.5q-51 16 -84 -13q-16 -16 -27.5 -38.5t-7.5 -45.5zM1303 41q6 -29 38 -49h-2q51 -27 103 -27 q33 0 55 8q49 12 92 49t39 91q-4 25 -21.5 44t-39.5 25q-25 8 -52.5 3t-50.5 -15l-12 -8q-10 -4 -12 -6l-4 -4q2 -2 5 -4.5t7 -6.5q-16 0 -14 1t0 3l-4 2q-29 -18 -54.5 -39.5t-48.5 -44.5q-6 -6 -12 -11t-12 -11zM1427 150h5q-2 -2 -2 -3q-2 0 -3 3zM1442 141l4 4l4 -4v-4 q-4 0 -8 4z" />
<glyph unicode="&#xc9;" horiz-adv-x="780" d="M23 96q0 59 22.5 116.5t69.5 104.5q59 53 130.5 73t147.5 20q45 0 92 -5.5t90 -11.5q8 14 25 37q4 6 11 15.5t12 17.5q-70 -16 -134 -17q-98 0 -183 36t-144 114q-43 57 -43 121q0 68 42 109.5t97 41.5q49 0 94 -34.5t62 -88.5q4 -12 4 -20q0 -4 -8.5 0t-19.5 12 t-21.5 18.5t-14.5 18.5q-4 33 -32.5 56.5t-63.5 23.5q-47 0 -86 -39t-39 -98q0 -53 41 -111q57 -76 140 -110.5t175 -34.5q82 0 152 20h-2q16 23 38.5 48.5t41.5 43.5q33 35 70.5 70t78.5 57h-2q23 12 41.5 18.5t28.5 8.5q8 2 17.5 0t7.5 -20q0 -10 -9 -23 q-43 -72 -117.5 -126t-166.5 -83h2q-12 -16 -25.5 -35.5t-40.5 -54.5q2 -2 4 -2q4 -4 8.5 -8t-0.5 -13q-6 -8 -14 -7t-16 5h2q-10 2 -15 13q-29 6 -60.5 9t-61.5 3q-78 0 -156 -21.5t-143 -74.5q-45 -37 -69 -92.5t-24 -114.5t26 -116.5t85 -98.5h-2q4 -2 7 -4t7 -4 q14 -12 37 -19q2 47 23.5 101.5t56.5 105.5t80 93t94 63q2 2 5 3t1 -1q35 10 75 18t114 4q4 47 18 89t45 75q39 43 96.5 66.5t116.5 23.5q49 0 92 -15t76 -50q47 -47 47 -115q0 -49 -26 -88q-25 -33 -61 -48t-77 -15q-29 0 -59 10q-31 10 -53 26q-35 -4 -68 2.5t-63 14.5 q-29 8 -72 14v-21.5t2 -31.5v2q43 -53 43 -119v-9t-2 -9q0 -4 -1 -6.5t-1 -6.5q0 -6 6 -8l12 -12q41 -47 101.5 -67.5t124.5 -20.5q41 0 81.5 7t77.5 19q45 16 88 48t82 67q-4 27 6.5 52.5t26.5 41.5q23 18 48.5 20.5t47.5 -7.5q2 2 8.5 5t10.5 5q2 2 22 12q23 10 49.5 16.5 t53.5 -1.5t46 -30t23 -50q4 -61 -41 -97t-98 -53q-35 -6 -78 -4t-92 31q-20 14 -31 45q-41 -35 -79.5 -61.5t-92.5 -47.5q-37 -12 -78.5 -20t-84.5 -8q-66 0 -126.5 21.5t-103.5 68.5l-5 5t-5 7l-2 2q-18 -68 -81 -122t-140 -79q-31 -10 -61.5 -15t-65.5 -5q-68 0 -131 20 q4 -27 17 -51t30 -47q16 -16 34.5 -29.5t38.5 -11.5q6 -2 19.5 -10t26 -16.5t18.5 -15.5t-2 -7h-23q-72 8 -115.5 67.5t-58.5 126.5q-94 33 -148 115t-54 174zM238 -168q76 -29 159 -29q33 0 68 7.5t65 17.5q66 29 116 80t63 110q-14 29 -24.5 66t-14.5 70q-20 23 -46 38 t-61 15q-66 0 -124 -39t-102 -95.5t-71.5 -122t-27.5 -118.5zM580 217v4q4 -2 9 -2t9 -2h-18zM594 371l2 4q4 -4 8 -4l-2 -4l-2 2q-4 4 -6 2zM600 217q33 -8 68 -37v37q-31 4 -68 0zM680 227q18 -4 35.5 -7t36.5 -7q29 -8 58.5 -13t59.5 -3q-12 14 -18 32q-10 25 0 51.5 t37 36.5q33 14 55.5 -6t18.5 -49q0 -25 -20.5 -45t-43.5 -29q10 -6 20.5 -11t16.5 -9q16 -4 29.5 -7t29.5 -3q37 0 71 16t56 47q14 18 20.5 41t6.5 45q0 57 -41 99q-35 35 -77 52t-87 17q-53 0 -109.5 -27.5t-95.5 -66.5q-27 -33 -41 -75t-18 -79zM684 135q2 -27 8 -50.5 t17 -45.5q0 2 1 3t1 5q0 47 -27 88zM686 496q78 29 145.5 82t108.5 114q2 4 3 10.5t-3 8.5q-63 -23 -129 -83.5t-125 -131.5zM860 229q4 -8 13.5 -17t17.5 -15q25 4 44 23.5t19 41.5q0 27 -19.5 42t-41.5 5q-23 -10 -33 -32.5t0 -47.5zM865 805q0 8 6 8q14 0 20 -2 q16 -4 25 -4q16 0 29.5 4t27.5 10q16 6 33.5 12.5t42.5 6.5q12 0 12 -5v-4q-29 -29 -57.5 -38t-59.5 -9q-55 0 -67 9.5t-12 11.5zM1300 55q4 2 7.5 6.5t7.5 6.5q23 20 49.5 41.5t54.5 42.5q-51 16 -84 -13q-16 -16 -27.5 -38.5t-7.5 -45.5zM1303 41q6 -29 38 -49h-2 q51 -27 103 -27q33 0 55 8q49 12 92 49t39 91q-4 25 -21.5 44t-39.5 25q-25 8 -52.5 3t-50.5 -15l-12 -8q-10 -4 -12 -6l-4 -4q2 -2 5 -4.5t7 -6.5q-16 0 -14 1t0 3l-4 2q-29 -18 -54.5 -39.5t-48.5 -44.5q-6 -6 -12 -11t-12 -11zM1427 150h5q-2 -2 -2 -3q-2 0 -3 3z M1442 141l4 4l4 -4v-4q-4 0 -8 4z" />
<glyph unicode="&#xca;" horiz-adv-x="780" d="M23 96q0 59 22.5 116.5t69.5 104.5q59 53 130.5 73t147.5 20q45 0 92 -5.5t90 -11.5q8 14 25 37q4 6 11 15.5t12 17.5q-70 -16 -134 -17q-98 0 -183 36t-144 114q-43 57 -43 121q0 68 42 109.5t97 41.5q49 0 94 -34.5t62 -88.5q4 -12 4 -20q0 -4 -8.5 0t-19.5 12 t-21.5 18.5t-14.5 18.5q-4 33 -32.5 56.5t-63.5 23.5q-47 0 -86 -39t-39 -98q0 -53 41 -111q57 -76 140 -110.5t175 -34.5q82 0 152 20h-2q16 23 38.5 48.5t41.5 43.5q33 35 70.5 70t78.5 57h-2q23 12 41.5 18.5t28.5 8.5q8 2 17.5 0t7.5 -20q0 -10 -9 -23 q-43 -72 -117.5 -126t-166.5 -83h2q-12 -16 -25.5 -35.5t-40.5 -54.5q2 -2 4 -2q4 -4 8.5 -8t-0.5 -13q-6 -8 -14 -7t-16 5h2q-10 2 -15 13q-29 6 -60.5 9t-61.5 3q-78 0 -156 -21.5t-143 -74.5q-45 -37 -69 -92.5t-24 -114.5t26 -116.5t85 -98.5h-2q4 -2 7 -4t7 -4 q14 -12 37 -19q2 47 23.5 101.5t56.5 105.5t80 93t94 63q2 2 5 3t1 -1q35 10 75 18t114 4q4 47 18 89t45 75q39 43 96.5 66.5t116.5 23.5q49 0 92 -15t76 -50q47 -47 47 -115q0 -49 -26 -88q-25 -33 -61 -48t-77 -15q-29 0 -59 10q-31 10 -53 26q-35 -4 -68 2.5t-63 14.5 q-29 8 -72 14v-21.5t2 -31.5v2q43 -53 43 -119v-9t-2 -9q0 -4 -1 -6.5t-1 -6.5q0 -6 6 -8l12 -12q41 -47 101.5 -67.5t124.5 -20.5q41 0 81.5 7t77.5 19q45 16 88 48t82 67q-4 27 6.5 52.5t26.5 41.5q23 18 48.5 20.5t47.5 -7.5q2 2 8.5 5t10.5 5q2 2 22 12q23 10 49.5 16.5 t53.5 -1.5t46 -30t23 -50q4 -61 -41 -97t-98 -53q-35 -6 -78 -4t-92 31q-20 14 -31 45q-41 -35 -79.5 -61.5t-92.5 -47.5q-37 -12 -78.5 -20t-84.5 -8q-66 0 -126.5 21.5t-103.5 68.5l-5 5t-5 7l-2 2q-18 -68 -81 -122t-140 -79q-31 -10 -61.5 -15t-65.5 -5q-68 0 -131 20 q4 -27 17 -51t30 -47q16 -16 34.5 -29.5t38.5 -11.5q6 -2 19.5 -10t26 -16.5t18.5 -15.5t-2 -7h-23q-72 8 -115.5 67.5t-58.5 126.5q-94 33 -148 115t-54 174zM238 -168q76 -29 159 -29q33 0 68 7.5t65 17.5q66 29 116 80t63 110q-14 29 -24.5 66t-14.5 70q-20 23 -46 38 t-61 15q-66 0 -124 -39t-102 -95.5t-71.5 -122t-27.5 -118.5zM580 217v4q4 -2 9 -2t9 -2h-18zM594 371l2 4q4 -4 8 -4l-2 -4l-2 2q-4 4 -6 2zM600 217q33 -8 68 -37v37q-31 4 -68 0zM680 227q18 -4 35.5 -7t36.5 -7q29 -8 58.5 -13t59.5 -3q-12 14 -18 32q-10 25 0 51.5 t37 36.5q33 14 55.5 -6t18.5 -49q0 -25 -20.5 -45t-43.5 -29q10 -6 20.5 -11t16.5 -9q16 -4 29.5 -7t29.5 -3q37 0 71 16t56 47q14 18 20.5 41t6.5 45q0 57 -41 99q-35 35 -77 52t-87 17q-53 0 -109.5 -27.5t-95.5 -66.5q-27 -33 -41 -75t-18 -79zM684 135q2 -27 8 -50.5 t17 -45.5q0 2 1 3t1 5q0 47 -27 88zM686 496q78 29 145.5 82t108.5 114q2 4 3 10.5t-3 8.5q-63 -23 -129 -83.5t-125 -131.5zM834 844q2 -2 9 -5t11 -5l12 -6q12 -2 23.5 2t23.5 8t24.5 8t27.5 4h4q16 -6 23 -13t18 -17q10 -10 19 -17.5t20 -11.5h2q-20 -4 -38 -7t-7 -7 q-12 4 -23.5 13t-21.5 30q-23 -16 -44.5 -18.5t-37.5 1.5q-29 6 -41.5 22.5t-3.5 18.5zM860 229q4 -8 13.5 -17t17.5 -15q25 4 44 23.5t19 41.5q0 27 -19.5 42t-41.5 5q-23 -10 -33 -32.5t0 -47.5zM1006 777q2 -2 8 -2q-6 0 -8 2zM1014 775q2 -2 8 -2q-6 0 -8 2zM1051 791 h20q6 0 10 2q-4 0 -12 -1t-18 -1zM1300 55q4 2 7.5 6.5t7.5 6.5q23 20 49.5 41.5t54.5 42.5q-51 16 -84 -13q-16 -16 -27.5 -38.5t-7.5 -45.5zM1303 41q6 -29 38 -49h-2q51 -27 103 -27q33 0 55 8q49 12 92 49t39 91q-4 25 -21.5 44t-39.5 25q-25 8 -52.5 3t-50.5 -15 l-12 -8q-10 -4 -12 -6l-4 -4q2 -2 5 -4.5t7 -6.5q-16 0 -14 1t0 3l-4 2q-29 -18 -54.5 -39.5t-48.5 -44.5q-6 -6 -12 -11t-12 -11zM1427 150h5q-2 -2 -2 -3q-2 0 -3 3zM1442 141l4 4l4 -4v-4q-4 0 -8 4z" />
<glyph unicode="&#xcb;" horiz-adv-x="780" d="M23 96q0 59 22.5 116.5t69.5 104.5q59 53 130.5 73t147.5 20q45 0 92 -5.5t90 -11.5q8 14 25 37q4 6 11 15.5t12 17.5q-70 -16 -134 -17q-98 0 -183 36t-144 114q-43 57 -43 121q0 68 42 109.5t97 41.5q49 0 94 -34.5t62 -88.5q4 -12 4 -20q0 -4 -8.5 0t-19.5 12 t-21.5 18.5t-14.5 18.5q-4 33 -32.5 56.5t-63.5 23.5q-47 0 -86 -39t-39 -98q0 -53 41 -111q57 -76 140 -110.5t175 -34.5q82 0 152 20h-2q16 23 38.5 48.5t41.5 43.5q33 35 70.5 70t78.5 57h-2q23 12 41.5 18.5t28.5 8.5q8 2 17.5 0t7.5 -20q0 -10 -9 -23 q-43 -72 -117.5 -126t-166.5 -83h2q-12 -16 -25.5 -35.5t-40.5 -54.5q2 -2 4 -2q4 -4 8.5 -8t-0.5 -13q-6 -8 -14 -7t-16 5h2q-10 2 -15 13q-29 6 -60.5 9t-61.5 3q-78 0 -156 -21.5t-143 -74.5q-45 -37 -69 -92.5t-24 -114.5t26 -116.5t85 -98.5h-2q4 -2 7 -4t7 -4 q14 -12 37 -19q2 47 23.5 101.5t56.5 105.5t80 93t94 63q2 2 5 3t1 -1q35 10 75 18t114 4q4 47 18 89t45 75q39 43 96.5 66.5t116.5 23.5q49 0 92 -15t76 -50q47 -47 47 -115q0 -49 -26 -88q-25 -33 -61 -48t-77 -15q-29 0 -59 10q-31 10 -53 26q-35 -4 -68 2.5t-63 14.5 q-29 8 -72 14v-21.5t2 -31.5v2q43 -53 43 -119v-9t-2 -9q0 -4 -1 -6.5t-1 -6.5q0 -6 6 -8l12 -12q41 -47 101.5 -67.5t124.5 -20.5q41 0 81.5 7t77.5 19q45 16 88 48t82 67q-4 27 6.5 52.5t26.5 41.5q23 18 48.5 20.5t47.5 -7.5q2 2 8.5 5t10.5 5q2 2 22 12q23 10 49.5 16.5 t53.5 -1.5t46 -30t23 -50q4 -61 -41 -97t-98 -53q-35 -6 -78 -4t-92 31q-20 14 -31 45q-41 -35 -79.5 -61.5t-92.5 -47.5q-37 -12 -78.5 -20t-84.5 -8q-66 0 -126.5 21.5t-103.5 68.5l-5 5t-5 7l-2 2q-18 -68 -81 -122t-140 -79q-31 -10 -61.5 -15t-65.5 -5q-68 0 -131 20 q4 -27 17 -51t30 -47q16 -16 34.5 -29.5t38.5 -11.5q6 -2 19.5 -10t26 -16.5t18.5 -15.5t-2 -7h-23q-72 8 -115.5 67.5t-58.5 126.5q-94 33 -148 115t-54 174zM238 -168q76 -29 159 -29q33 0 68 7.5t65 17.5q66 29 116 80t63 110q-14 29 -24.5 66t-14.5 70q-20 23 -46 38 t-61 15q-66 0 -124 -39t-102 -95.5t-71.5 -122t-27.5 -118.5zM580 217v4q4 -2 9 -2t9 -2h-18zM594 371l2 4q4 -4 8 -4l-2 -4l-2 2q-4 4 -6 2zM600 217q33 -8 68 -37v37q-31 4 -68 0zM680 227q18 -4 35.5 -7t36.5 -7q29 -8 58.5 -13t59.5 -3q-12 14 -18 32q-10 25 0 51.5 t37 36.5q33 14 55.5 -6t18.5 -49q0 -25 -20.5 -45t-43.5 -29q10 -6 20.5 -11t16.5 -9q16 -4 29.5 -7t29.5 -3q37 0 71 16t56 47q14 18 20.5 41t6.5 45q0 57 -41 99q-35 35 -77 52t-87 17q-53 0 -109.5 -27.5t-95.5 -66.5q-27 -33 -41 -75t-18 -79zM684 135q2 -27 8 -50.5 t17 -45.5q0 2 1 3t1 5q0 47 -27 88zM686 496q78 29 145.5 82t108.5 114q2 4 3 10.5t-3 8.5q-63 -23 -129 -83.5t-125 -131.5zM860 229q4 -8 13.5 -17t17.5 -15q25 4 44 23.5t19 41.5q0 27 -19.5 42t-41.5 5q-23 -10 -33 -32.5t0 -47.5zM911 740q1 5 7 22q4 10 9 25.5t5 31.5 q2 6 11.5 18.5t18.5 23.5t17 17t8 0q0 -4 -1 -6t-1 -6v-12q-4 -37 -22.5 -62.5t-36.5 -42.5q-16 -14 -15 -9zM972 740q1 5 7 22q4 10 9.5 25.5t5.5 31.5q2 6 11 18.5t18 23.5t17.5 17t8.5 0q0 -4 -1 -6t-1 -6v-12q-4 -37 -22.5 -62.5t-37.5 -42.5q-16 -14 -15 -9zM1300 55 q4 2 7.5 6.5t7.5 6.5q23 20 49.5 41.5t54.5 42.5q-51 16 -84 -13q-16 -16 -27.5 -38.5t-7.5 -45.5zM1303 41q6 -29 38 -49h-2q51 -27 103 -27q33 0 55 8q49 12 92 49t39 91q-4 25 -21.5 44t-39.5 25q-25 8 -52.5 3t-50.5 -15l-12 -8q-10 -4 -12 -6l-4 -4q2 -2 5 -4.5t7 -6.5 q-16 0 -14 1t0 3l-4 2q-29 -18 -54.5 -39.5t-48.5 -44.5q-6 -6 -12 -11t-12 -11zM1427 150h5q-2 -2 -2 -3q-2 0 -3 3zM1442 141l4 4l4 -4v-4q-4 0 -8 4z" />
<glyph unicode="&#xcc;" horiz-adv-x="169" d="M19 -38q1 -21 11.5 -38.5t30 -29t54.5 -11.5q41 0 67.5 13.5t40.5 23.5l2 2q2 0 2 1t2 1v2q-18 -12 -47.5 -21t-56.5 -9q-33 0 -56.5 15t-23.5 56q0 49 23.5 118t59.5 144.5t78 150.5t79 138q29 51 51 90t31 56q10 23 13 42t3 33q0 2 -1 14.5t-4 26t-6 24.5t-10 11 q-4 0 -7 -25.5t-3 -44.5q0 -8 4 -20q2 -4 4 -10t2 -13q0 -20 -8 -38q-29 -47 -54.5 -87t-53.5 -81q-41 -59 -78 -115.5t-67.5 -117t-51 -124t-29.5 -133.5q-2 -23 -1 -44zM311 889v4q0 4 13 4q25 0 42 -6t33 -12q14 -6 27.5 -10.5t30.5 -4.5q8 0 24 4q6 2 19 2q6 0 6 -8 q0 -2 -12.5 -11t-65.5 -9q-31 0 -59.5 9t-57.5 38z" />
<glyph unicode="&#xcd;" horiz-adv-x="169" d="M15 -38.5q-1 22.5 1 44.5q16 139 82 260t144 234q29 41 55.5 84t54.5 88v-2q6 14 6 32q0 6 -2 12.5t-4 10.5q-4 12 -4 20q0 18 4 46t10 28t11.5 -11t8.5 -25.5t4 -28t1 -15.5q0 -14 -3 -33.5t-13 -41.5q-14 -33 -35 -70t-47 -80q-37 -63 -79 -138t-78 -150.5 t-59.5 -143.5t-23.5 -115q0 -37 23.5 -52t52.5 -15t57.5 10t48.5 22l2 -12q-2 -2 -3 -2t-3 -2q-14 -10 -41.5 -23.5t-70.5 -13.5q-37 0 -57.5 11.5t-31 30t-11.5 41zM330 864q0 8 6 8q14 0 20 -2q16 -4 25 -4q16 0 29.5 4t27.5 11q16 6 33.5 12t40.5 6q12 0 12 -4v-4 q-29 -29 -56.5 -38t-57.5 -9q-55 0 -67.5 9t-12.5 11z" />
<glyph unicode="&#xce;" horiz-adv-x="169" d="M19 -38q1 -21 11.5 -38.5t30 -29t54.5 -11.5q41 0 67.5 13.5t40.5 23.5l2 2q2 0 2 1t2 1v2q-18 -12 -47.5 -21t-56.5 -9q-33 0 -56.5 15t-23.5 56q0 49 23.5 118t59.5 144.5t78 150.5t79 138q29 51 51 90t31 56q10 23 13 42t3 33q0 2 -1 14.5t-4 26t-6 24.5t-10 11 q-4 0 -7 -25.5t-3 -44.5q0 -8 4 -20q2 -4 4 -10t2 -13q0 -20 -8 -38q-29 -47 -54.5 -87t-53.5 -81q-41 -59 -78 -115.5t-67.5 -117t-51 -124t-29.5 -133.5q-2 -23 -1 -44zM299 903q2 -2 9 -5t11 -5l13 -6q12 -2 23.5 2t23.5 8t24.5 8t26.5 4h4q16 -6 23.5 -13t17.5 -17 t18.5 -17.5t18.5 -11.5h2q-18 -4 -35.5 -7t-7.5 -7q-12 4 -23.5 13t-21.5 30q-23 -16 -44.5 -18.5t-37.5 1.5q-29 6 -41 22.5t-4 18.5zM471 836q2 -2 8 -2q-6 0 -8 2zM479 834q2 -3 8 -3q-6 0 -8 3zM514 850h21q6 0 10 2q-4 0 -12.5 -1t-18.5 -1z" />
<glyph unicode="&#xcf;" horiz-adv-x="169" d="M15 -38.5q-1 22.5 1 44.5q16 139 82 260t144 234q29 41 55.5 84t54.5 88v-2q6 14 6 32q0 6 -2 12.5t-4 10.5q-4 12 -4 20q0 18 4 46t10 28t11.5 -11t8.5 -25.5t4 -28t1 -15.5q0 -14 -3 -33.5t-13 -41.5q-14 -33 -35 -70t-47 -80q-37 -63 -79 -138t-78 -150.5 t-59.5 -143.5t-23.5 -115q0 -37 23.5 -52t52.5 -15t57.5 10t48.5 22l2 -12q-2 -2 -3 -2t-3 -2q-14 -10 -41.5 -23.5t-70.5 -13.5q-37 0 -57.5 11.5t-31 30t-11.5 41zM374 804q1 5 7 21q4 10 9 26t5 32q2 6 11.5 18t18.5 23.5t17.5 17.5t8.5 0q0 -4 -1 -6t-1 -6v-12 q-4 -37 -22.5 -63t-37.5 -42q-16 -14 -15 -9zM435.5 804q0.5 5 6.5 21q4 10 9.5 26t5.5 32q2 6 11 18t18.5 23.5t16.5 17.5t7 0q0 -4 -1 -6t-1 -6v-12q-4 -37 -21.5 -63t-35.5 -42q-16 -14 -15.5 -9z" />
<glyph unicode="&#xd0;" horiz-adv-x="1226" d="M2 272q0 127 65.5 226.5t168 168t225.5 104.5t239 36q139 0 236.5 -40t158 -103.5t88 -139t27.5 -149.5q0 -68 -18 -135q-29 -109 -78 -183.5t-110.5 -122t-131 -68t-141.5 -20.5q-59 0 -106 7.5t-82 13.5q-45 10 -76 10l-8 -8q-10 -10 -22.5 -24.5t-26.5 -18.5 q-27 -2 -27 20q2 16 17.5 28.5t50.5 16.5q20 33 41.5 72t44.5 78q16 31 35.5 63.5t35.5 63.5q4 6 5 11t5 9q4 8 7 11q2 2 2 4h-23q-6 0 -12 1t-12 1h-25q-35 -45 -90 -77t-109 -46q6 -16 21.5 -29.5t34.5 -27.5q18 -16 32.5 -29.5t14.5 -36.5q-23 0 -41.5 11.5t-32.5 28.5 t-24.5 35.5t-16.5 33.5q-4 4 -4 10q-25 -4 -49 -7t-47 -3q-49 0 -92 11t-77 35.5t-53.5 63.5t-19.5 94zM16 272q0 -98 68 -144t160 -46q41 0 92 10q-8 23 -8 49q0 37 12 78q-16 0 -28.5 1t-28.5 3t-30.5 2t-31.5 2q-25 2 -49.5 2h-34.5l-2 17q8 -2 28.5 -2h51.5h137 q27 51 70 83.5t90 32.5q35 0 56.5 -16t21.5 -43q0 -16 -4 -30.5t-13 -30.5q16 0 38 -1t36 -3q8 8 12.5 18t8.5 18q39 63 82 135t75 144q4 12 9.5 29.5t5.5 33.5q0 10 -2 18.5t-7 16.5q-6 14 -6 35q0 18 1 38.5t8 20.5q8 0 14 -14t10 -31.5t6 -32t2 -16.5q0 -27 -6 -49 t-12 -35q-35 -86 -76 -172t-80 -160q94 -6 170 -17t117 -34l-14 -14q-12 6 -42 11t-70 10.5t-87 8.5t-94 5q-4 -4 -7 -11.5t-3 -11.5l-13 -24q-39 -72 -83 -139.5t-87 -122.5q23 0 56 -9q8 -2 28 -6q43 -10 75 -14t79 -4q98 0 182 41t146.5 111.5t98.5 168t36 207.5 q0 78 -32 155t-99 140q-57 53 -149.5 75.5t-182.5 22.5q-135 0 -239.5 -28.5t-182.5 -75.5t-131 -104.5t-86 -114t-47.5 -106.5t-14.5 -81zM348 133q0 -21 2 -31q0 -4 2 -6q49 12 99.5 41t83.5 68q-82 4 -170 12q-16 -37 -17 -84zM350 96h2v-2zM381 244q41 0 80 -1t84 -3h14 q8 16 12 30.5t4 30.5q-4 14 -13 25.5t-30 15.5q-37 -2 -79.5 -27.5t-71.5 -70.5zM399 -154q0 -6 9 -6q4 0 28 33q-23 -4 -30 -13.5t-7 -13.5z" />
<glyph unicode="&#xd1;" horiz-adv-x="1073" d="M14 57q0 49 26 124t69 143.5t99 118t118 49.5q4 0 22.5 -1.5t18.5 -7.5q0 -4 -9.5 -9t-20.5 -10t-23.5 -10t-18.5 -8q-4 2 -19 3q-16 0 -34.5 -9.5t-30.5 -19.5q-45 -43 -79 -92t-57.5 -97.5t-34.5 -93.5t-11 -80q0 -59 27.5 -83.5t74.5 -24.5h14q4 0 6.5 1t6.5 1 q-12 25 -13 51q0 72 20.5 135.5t55.5 122.5q29 45 72 101.5t97 106.5t119.5 87t137.5 47q109 6 202 -24.5t191 -85.5q12 14 22.5 26t20.5 25q4 4 8.5 10t8.5 10v-2q23 74 53.5 124t67.5 52q14 0 10 -10q-4 -18 -32 -59t-75 -99q-8 -14 -21 -43.5t-20 -46.5q-2 -4 -2 -6 t-2 -6q12 -6 29 -18q76 117 164 197.5t166 115.5q10 4 42.5 13t71.5 9q8 0 24.5 -3t31 -8t26 -10t11.5 -9q0 -6 -20.5 -7.5t-39.5 -1.5q-12 0 -20.5 2.5t-16.5 6.5q-16 6 -30 6q-88 0 -171 -75t-161 -189q27 14 53.5 21t54.5 11q51 6 105.5 -8t99.5 -40.5t75 -64.5t30 -79 q0 -31 -16.5 -61.5t-55.5 -59.5q-41 -23 -76 -22q-53 0 -101 27.5t-77 62.5q-4 4 -7 8t-7 8q-29 31 -62 60.5t-67 56.5q-23 -41 -45.5 -81t-42.5 -81q-12 -29 -29 -57q4 -12 9 -23.5t9 -19.5q14 -31 40 -53.5t55.5 -40t62.5 -27.5t61 -17q68 -10 131.5 6.5t122 49 t112.5 74.5t103 85q10 10 22.5 24.5t22.5 27.5q35 37 74 69.5t94 28.5q47 -8 70 -45q59 -4 108.5 -38t92.5 -75q25 -23 49 -45t52 -38.5t58.5 -25t67.5 -3.5q63 8 120.5 42.5t94.5 94.5q23 37 39 79t16 83q0 23 -4 43t-14 41q-16 43 -56 79.5t-91 53.5q-53 10 -113 -5.5 t-94 -58.5l-4 4q35 47 94 63.5t117 6.5q59 -16 98 -56t59 -83q14 -37 15 -82q0 -47 -15.5 -92t-38.5 -84q-37 -59 -94 -95t-129 -45q-76 -6 -132 32t-103 85q-41 41 -86.5 75t-100.5 36v-4q4 -8 6 -16.5t2 -18.5q-4 -23 -26.5 -26t-34.5 7q-23 20 -6.5 41t45.5 25 q-23 29 -64 39q-49 -4 -87 -34t-68 -65q-10 -12 -23.5 -27.5t-25.5 -25.5q-47 -43 -102.5 -87t-116 -76.5t-126 -50t-133.5 -5.5q-66 12 -128 47t-95 94q2 -2 -6 14.5t-12 24.5l-2 -4v-2l-2 -4q-4 -14 -7.5 -28.5t-7.5 -26.5q-16 -68 -28.5 -108t-24.5 -40q-8 0 -11 9.5 t-3 15.5q0 45 10 76.5t22 60.5l19 43l12 31q4 8 6 15t6 18q2 35 12.5 74.5t28.5 66.5v-2l13 43q4 10 6 20.5t6 22.5q-4 4 -6 5t-4 3q-4 2 -8 6q-6 -8 -15.5 -18t-15.5 -19q-8 -10 -15.5 -17t-15.5 -17q-49 -55 -115.5 -126t-145.5 -141.5t-170 -133t-189 -101.5 q-23 -8 -46.5 -13.5t-48.5 -5.5q-70 0 -106 50q-10 -2 -17.5 -2.5t-17.5 -0.5q-53 0 -85 27.5t-32 95.5zM170 23q0 -35 16 -68q43 8 105.5 33.5t131.5 65.5t137.5 89.5t122.5 104.5t88 111.5t34 109.5t-34.5 85t-106.5 34q-88 -8 -175.5 -66.5t-157 -141.5t-114.5 -178.5 t-47 -178.5zM195 -59q26 -27 75 -27q76 0 175.5 56.5t205 142.5t205.5 186t180 186q-70 41 -145.5 70t-159.5 39q43 -14 65.5 -47t22.5 -78q0 -53 -30.5 -109.5t-82 -111.5t-117 -104.5t-134 -90.5t-137 -70.5t-123.5 -41.5zM940 0q0 -10 3 -6t6 14t6.5 22.5t5.5 18.5 q8 20 16 55q-18 -45 -27.5 -69.5t-9.5 -34.5zM1008 258q0 4 4 8v-8h-4zM1012 266q8 20 12 39t10 41l4 12q-23 -43 -26 -92zM1040 317q0 6 2 11.5t7 11.5q-4 -16 -7 -23h-2zM1049 340q18 39 36 74q-12 -12 -18 -21l-8 -8q-2 -8 -4 -15.5t-4 -13.5t-2 -16zM1055 483q4 -4 8 -6 l8 -4q6 27 14 47q-4 -4 -6 -7t-6 -7q-4 -6 -9 -11.5t-9 -11.5zM1065 408l35 34q-6 2 -7 3t-3 6q-4 4 -6.5 4t-6.5 4zM1085 414q4 4 6.5 10t6.5 10l4 -4l-10 -10zM1085 520q0 4 2 6q0 2 1.5 3t1.5 3l4 -2q-6 -6 -9 -10zM1130 600q37 45 58.5 79t25.5 44q-39 -12 -75 -100v-2 q-4 -6 -9 -19v-2zM1141 424q41 -31 75.5 -64.5t69.5 -68.5q35 -37 79 -61.5t89 -24.5q37 0 68 16h-2q39 29 55 58.5t16 58.5q0 41 -28.5 77t-72.5 61.5t-96.5 37.5t-99.5 4q-29 -4 -59 -13.5t-59 -25.5l-10.5 -14t-8.5 -14t-8 -14.5t-8 -12.5zM1192.5 841q-6.5 9 3.5 15h-2 q27 23 54 23q25 0 40 -11.5t27 -21.5q10 -10 18.5 -16.5t14.5 -6.5q10 0 20.5 5.5t28.5 21.5q10 10 10 -8q0 -16 -8 -25.5t-19 -14.5t-21.5 -7t-12.5 -2q-27 0 -38 10t-21 20q-8 10 -17.5 17.5t-25.5 7.5q-18 0 -35 -8h2q-12 -8 -18.5 1zM1957 294q-1 -9 9 -18 q10 -10 27.5 -6.5t21.5 19.5q0 10 -4 21.5t-8 19.5q-10 0 -20.5 -5.5t-17.5 -13.5t-8 -17zM2275 401q-14 35 2.5 81t51.5 85l4 -4q-33 -39 -48.5 -85t-0.5 -77q14 -29 27 -36t18 -9v-4q-2 0 -20 8t-34 41z" />
<glyph unicode="&#xd2;" d="M14 180q0 53 11.5 119t40.5 139l2 4q-27 35 -41 82q-2 4 -2 11.5v13.5q0 53 43 80.5t104 27.5h12q68 78 140.5 116t134.5 38q117 0 127 -117q23 -18 31 -41.5t12 -58.5l8 8q49 47 109.5 69.5t125.5 22.5q16 0 38 -2t38 -6q82 -10 156 -55t135 -101q68 -57 139.5 -105 t149.5 -77q49 -23 108 -22q35 0 70 9t63 27q49 29 79 60t40 43l6 6l4 -4q-6 -6 -12 -13.5l-14 -17.5l-14 -14q-16 -16 -35 -32.5t-45 -33.5q-68 -41 -144 -41q-33 0 -61.5 7.5t-52.5 17.5q-80 35 -155 82t-134 100q-61 53 -132 98.5t-151 55.5q-37 6 -71 6q-61 0 -121 -20.5 t-113 -67.5l-14 -14q2 -10 2 -21.5v-21.5q0 -29 -3 -60t-10 -59q31 8 67 20.5t65 24.5q14 6 31.5 12t31.5 12q45 20 88 21q35 0 70 -12q39 -16 65.5 -55.5t30.5 -84.5q4 -53 -14.5 -95t-51 -72.5t-72.5 -50t-79 -23.5t-80 2t-82 22q-37 18 -65.5 47t-51.5 64 q-18 -43 -36.5 -83t-40.5 -75q-45 -68 -99.5 -122t-111.5 -81h2q8 -2 24 -2q41 0 83 19.5t78 49.5t61.5 63.5t33.5 62.5l15 -4q-10 -31 -36 -67t-63 -66.5t-82 -51t-90 -20.5q-33 0 -51 8q-25 -6 -47 -6q-45 0 -84 27.5t-74 89.5q-14 29 -26.5 76t-12.5 112zM29 170 q2 -59 13 -103t26 -69q29 -59 65.5 -84t77.5 -25q14 0 25 2q-63 37 -88 102.5t-25 137.5q0 39 6 76q23 88 57 168q-57 12 -98 47q-20 -39 -35 -94q-20 -74 -24 -158zM39 549q0 -17 2 -21q4 -18 12 -35.5t21 -31.5q23 55 47 100t47 82q-55 0 -92 -25.5t-37 -68.5zM94 438 q18 -16 44 -29.5t52 -19.5q31 57 67 107.5t77 99.5q-29 16 -58.5 27.5t-58.5 15.5q-12 -14 -25.5 -30.5t-21.5 -30.5q-25 -33 -42.5 -67t-33.5 -73zM150 104q0 -59 25.5 -116.5t84.5 -89.5q55 18 113.5 72t105.5 132q23 37 45.5 79t38.5 85q-10 25 -17 64t-7 65h-19 q12 -31 15.5 -64.5t-11.5 -68.5q-2 -2 -2 -4l-2 -4t-3 -5t-3 -5q-4 -6 -6 3t-5 23.5t-4 29.5t-1 24q10 16 10 34.5t-6 38.5h-4q-25 4 -45 21q-6 -4 -17.5 -9.5t-17.5 -9.5q-41 -20 -94.5 -28.5t-98.5 -1.5q-14 -29 -32.5 -74t-28.5 -78q-6 -27 -10 -56.5t-4 -56.5zM190 387 v2h3zM229 653q29 -6 59.5 -18.5t57.5 -26.5q16 20 42 44t55.5 40.5t61.5 22.5t62 -10q-8 45 -34.5 65.5t-61.5 20.5q-33 0 -76 -17q-45 -16 -85 -48t-81 -73zM236 383q43 -10 90 0t88 29h-2q8 4 14 8t14 8q-12 12 -21 29.5t-13 34.5q-4 10 -5.5 23.5t0.5 27.5q-16 12 -30 26 q-76 -84 -135 -186zM369 571h4l-2 -2zM381 578v4q0 -2 2 -2zM383 580q2 -4 10 -9q2 -4 8 -10q4 18 12.5 35.5t18.5 30.5q2 2 0 2l-24.5 -24.5zM410 535q0 -29 11 -55.5t28 -45.5q4 4 9 6t9 6l6 7q-16 23 -30.5 43t-32.5 39zM410 557q20 -18 40.5 -44t34.5 -48q39 41 63.5 94 t22.5 105v12q-29 10 -53 3t-49 -24q-14 -8 -31 -34q-10 -12 -17 -30t-11 -34zM447 891v4q0 4 12 4q25 0 42 -6l34 -12q14 -6 27.5 -10t29.5 -4q8 0 25 4q6 2 20 2q6 0 6 -8q0 -2 -12 -11.5t-68 -9.5q-31 0 -59.5 9.5t-56.5 37.5zM461 424q17 -12 35 -14l-6.5 13l-8.5 17 q-12 -12 -20 -16zM473 453l4 2l-2 -4q-2 0 -2 2zM479 444l4 -2l-2 -2q-2 0 -2 4zM494 451q4 -8 12 -20.5t12 -22.5q4 -2 10.5 -2h10.5q6 47 27.5 93t49.5 81q-2 23 -7 43t-15 39v-3l-6 7v-2q0 -59 -24.5 -114.5t-69.5 -98.5zM547 395q0 -27 5 -58.5t17 -53.5q20 59 33 118 q-14 -4 -28.5 -5t-26.5 -1zM547 406q4 0 6 1t6 1q10 2 20.5 4t24.5 2q4 31 8 61.5t4 61.5v28q-57 -74 -69 -159zM567 279q0 2 2 4q0 -2 2 -2zM567 705q2 -2 6 -3l-4 -2q-2 2 -2 5zM580 268q41 -84 108 -118q41 -16 82 -21.5t76 -1.5q37 6 76 24.5t69.5 48t49 68.5t14.5 88 q-2 41 -28 78t-60 51q-29 12 -62 13q-47 0 -92 -23q-16 -6 -31.5 -12t-31.5 -12q-33 -12 -66 -24.5t-66 -20.5q-8 -35 -17 -70t-21 -68zM604 412v2h2zM616 406l2 2v-2h-2z" />
<glyph unicode="&#xd3;" d="M14 180q0 53 11.5 119t40.5 139l2 4q-27 35 -41 82q-2 4 -2 11.5v13.5q0 53 43 80.5t104 27.5h12q68 78 140.5 116t134.5 38q117 0 127 -117q23 -18 31 -41.5t12 -58.5l8 8q49 47 109.5 69.5t125.5 22.5q16 0 38 -2t38 -6q82 -10 156 -55t135 -101q68 -57 139.5 -105 t149.5 -77q49 -23 108 -22q35 0 70 9t63 27q49 29 79 60t40 43l6 6l4 -4q-6 -6 -12 -13.5l-14 -17.5l-14 -14q-16 -16 -35 -32.5t-45 -33.5q-68 -41 -144 -41q-33 0 -61.5 7.5t-52.5 17.5q-80 35 -155 82t-134 100q-61 53 -132 98.5t-151 55.5q-37 6 -71 6q-61 0 -121 -20.5 t-113 -67.5l-14 -14q2 -10 2 -21.5v-21.5q0 -29 -3 -60t-10 -59q31 8 67 20.5t65 24.5q14 6 31.5 12t31.5 12q45 20 88 21q35 0 70 -12q39 -16 65.5 -55.5t30.5 -84.5q4 -53 -14.5 -95t-51 -72.5t-72.5 -50t-79 -23.5t-80 2t-82 22q-37 18 -65.5 47t-51.5 64 q-18 -43 -36.5 -83t-40.5 -75q-45 -68 -99.5 -122t-111.5 -81h2q8 -2 24 -2q41 0 83 19.5t78 49.5t61.5 63.5t33.5 62.5l15 -4q-10 -31 -36 -67t-63 -66.5t-82 -51t-90 -20.5q-33 0 -51 8q-25 -6 -47 -6q-45 0 -84 27.5t-74 89.5q-14 29 -26.5 76t-12.5 112zM29 170 q2 -59 13 -103t26 -69q29 -59 65.5 -84t77.5 -25q14 0 25 2q-63 37 -88 102.5t-25 137.5q0 39 6 76q23 88 57 168q-57 12 -98 47q-20 -39 -35 -94q-20 -74 -24 -158zM39 549q0 -17 2 -21q4 -18 12 -35.5t21 -31.5q23 55 47 100t47 82q-55 0 -92 -25.5t-37 -68.5zM94 438 q18 -16 44 -29.5t52 -19.5q31 57 67 107.5t77 99.5q-29 16 -58.5 27.5t-58.5 15.5q-12 -14 -25.5 -30.5t-21.5 -30.5q-25 -33 -42.5 -67t-33.5 -73zM150 104q0 -59 25.5 -116.5t84.5 -89.5q55 18 113.5 72t105.5 132q23 37 45.5 79t38.5 85q-10 25 -17 64t-7 65h-19 q12 -31 15.5 -64.5t-11.5 -68.5q-2 -2 -2 -4l-2 -4t-3 -5t-3 -5q-4 -6 -6 3t-5 23.5t-4 29.5t-1 24q10 16 10 34.5t-6 38.5h-4q-25 4 -45 21q-6 -4 -17.5 -9.5t-17.5 -9.5q-41 -20 -94.5 -28.5t-98.5 -1.5q-14 -29 -32.5 -74t-28.5 -78q-6 -27 -10 -56.5t-4 -56.5zM190 387 v2h3zM229 653q29 -6 59.5 -18.5t57.5 -26.5q16 20 42 44t55.5 40.5t61.5 22.5t62 -10q-8 45 -34.5 65.5t-61.5 20.5q-33 0 -76 -17q-45 -16 -85 -48t-81 -73zM236 383q43 -10 90 0t88 29h-2q8 4 14 8t14 8q-12 12 -21 29.5t-13 34.5q-4 10 -5.5 23.5t0.5 27.5q-16 12 -30 26 q-76 -84 -135 -186zM369 571h4l-2 -2zM381 578v4q0 -2 2 -2zM383 580q2 -4 10 -9q2 -4 8 -10q4 18 12.5 35.5t18.5 30.5q2 2 0 2l-24.5 -24.5zM410 535q0 -29 11 -55.5t28 -45.5q4 4 9 6t9 6l6 7q-16 23 -30.5 43t-32.5 39zM410 557q20 -18 40.5 -44t34.5 -48q39 41 63.5 94 t22.5 105v12q-29 10 -53 3t-49 -24q-14 -8 -31 -34q-10 -12 -17 -30t-11 -34zM443 871q0 8 6 8q14 0 20 -2q16 -4 25 -4q16 0 29.5 4t27.5 10q16 6 33.5 12.5t42.5 6.5q12 0 12 -5v-4q-29 -29 -57.5 -38t-59.5 -9q-55 0 -67 9.5t-12 11.5zM461 424q17 -12 35 -14l-6.5 13 l-8.5 17q-12 -12 -20 -16zM473 453l4 2l-2 -4q-2 0 -2 2zM479 444l4 -2l-2 -2q-2 0 -2 4zM494 451q4 -8 12 -20.5t12 -22.5q4 -2 10.5 -2h10.5q6 47 27.5 93t49.5 81q-2 23 -7 43t-15 39v-3l-6 7v-2q0 -59 -24.5 -114.5t-69.5 -98.5zM547 395q0 -27 5 -58.5t17 -53.5 q20 59 33 118q-14 -4 -28.5 -5t-26.5 -1zM547 406q4 0 6 1t6 1q10 2 20.5 4t24.5 2q4 31 8 61.5t4 61.5v28q-57 -74 -69 -159zM567 279q0 2 2 4q0 -2 2 -2zM567 705q2 -2 6 -3l-4 -2q-2 2 -2 5zM580 268q41 -84 108 -118q41 -16 82 -21.5t76 -1.5q37 6 76 24.5t69.5 48 t49 68.5t14.5 88q-2 41 -28 78t-60 51q-29 12 -62 13q-47 0 -92 -23q-16 -6 -31.5 -12t-31.5 -12q-33 -12 -66 -24.5t-66 -20.5q-8 -35 -17 -70t-21 -68zM604 412v2h2zM616 406l2 2v-2h-2z" />
<glyph unicode="&#xd4;" d="M14 180q0 53 11.5 119t40.5 139l2 4q-27 35 -41 82q-2 4 -2 11.5v13.5q0 53 43 80.5t104 27.5h12q68 78 140.5 116t134.5 38q117 0 127 -117q23 -18 31 -41.5t12 -58.5l8 8q49 47 109.5 69.5t125.5 22.5q16 0 38 -2t38 -6q82 -10 156 -55t135 -101q68 -57 139.5 -105 t149.5 -77q49 -23 108 -22q35 0 70 9t63 27q49 29 79 60t40 43l6 6l4 -4q-6 -6 -12 -13.5l-14 -17.5l-14 -14q-16 -16 -35 -32.5t-45 -33.5q-68 -41 -144 -41q-33 0 -61.5 7.5t-52.5 17.5q-80 35 -155 82t-134 100q-61 53 -132 98.5t-151 55.5q-37 6 -71 6q-61 0 -121 -20.5 t-113 -67.5l-14 -14q2 -10 2 -21.5v-21.5q0 -29 -3 -60t-10 -59q31 8 67 20.5t65 24.5q14 6 31.5 12t31.5 12q45 20 88 21q35 0 70 -12q39 -16 65.5 -55.5t30.5 -84.5q4 -53 -14.5 -95t-51 -72.5t-72.5 -50t-79 -23.5t-80 2t-82 22q-37 18 -65.5 47t-51.5 64 q-18 -43 -36.5 -83t-40.5 -75q-45 -68 -99.5 -122t-111.5 -81h2q8 -2 24 -2q41 0 83 19.5t78 49.5t61.5 63.5t33.5 62.5l15 -4q-10 -31 -36 -67t-63 -66.5t-82 -51t-90 -20.5q-33 0 -51 8q-25 -6 -47 -6q-45 0 -84 27.5t-74 89.5q-14 29 -26.5 76t-12.5 112zM29 170 q2 -59 13 -103t26 -69q29 -59 65.5 -84t77.5 -25q14 0 25 2q-63 37 -88 102.5t-25 137.5q0 39 6 76q23 88 57 168q-57 12 -98 47q-20 -39 -35 -94q-20 -74 -24 -158zM39 549q0 -17 2 -21q4 -18 12 -35.5t21 -31.5q23 55 47 100t47 82q-55 0 -92 -25.5t-37 -68.5zM94 438 q18 -16 44 -29.5t52 -19.5q31 57 67 107.5t77 99.5q-29 16 -58.5 27.5t-58.5 15.5q-12 -14 -25.5 -30.5t-21.5 -30.5q-25 -33 -42.5 -67t-33.5 -73zM150 104q0 -59 25.5 -116.5t84.5 -89.5q55 18 113.5 72t105.5 132q23 37 45.5 79t38.5 85q-10 25 -17 64t-7 65h-19 q12 -31 15.5 -64.5t-11.5 -68.5q-2 -2 -2 -4l-2 -4t-3 -5t-3 -5q-4 -6 -6 3t-5 23.5t-4 29.5t-1 24q10 16 10 34.5t-6 38.5h-4q-25 4 -45 21q-6 -4 -17.5 -9.5t-17.5 -9.5q-41 -20 -94.5 -28.5t-98.5 -1.5q-14 -29 -32.5 -74t-28.5 -78q-6 -27 -10 -56.5t-4 -56.5zM190 387 v2h3zM229 653q29 -6 59.5 -18.5t57.5 -26.5q16 20 42 44t55.5 40.5t61.5 22.5t62 -10q-8 45 -34.5 65.5t-61.5 20.5q-33 0 -76 -17q-45 -16 -85 -48t-81 -73zM236 383q43 -10 90 0t88 29h-2q8 4 14 8t14 8q-12 12 -21 29.5t-13 34.5q-4 10 -5.5 23.5t0.5 27.5q-16 12 -30 26 q-76 -84 -135 -186zM369 571h4l-2 -2zM381 578v4q0 -2 2 -2zM383 580q2 -4 10 -9q2 -4 8 -10q4 18 12.5 35.5t18.5 30.5q2 2 0 2l-24.5 -24.5zM410 535q0 -29 11 -55.5t28 -45.5q4 4 9 6t9 6l6 7q-16 23 -30.5 43t-32.5 39zM410 557q20 -18 40.5 -44t34.5 -48q39 41 63.5 94 t22.5 105v12q-29 10 -53 3t-49 -24q-14 -8 -31 -34q-10 -12 -17 -30t-11 -34zM433 909q2 -2 9 -5t11 -5l12 -6q12 -2 23.5 2t23.5 8t24.5 8t27.5 4h4q16 -6 23 -13t18 -17q10 -10 19 -17.5t20 -11.5h2q-20 -4 -38 -7t-7 -7q-12 4 -23.5 13t-21.5 30q-23 -16 -44.5 -18.5 t-37.5 1.5q-29 6 -41.5 22.5t-3.5 18.5zM461 424q17 -12 35 -14l-6.5 13l-8.5 17q-12 -12 -20 -16zM473 453l4 2l-2 -4q-2 0 -2 2zM479 444l4 -2l-2 -2q-2 0 -2 4zM494 451q4 -8 12 -20.5t12 -22.5q4 -2 10.5 -2h10.5q6 47 27.5 93t49.5 81q-2 23 -7 43t-15 39v-3l-6 7v-2 q0 -59 -24.5 -114.5t-69.5 -98.5zM547 395q0 -27 5 -58.5t17 -53.5q20 59 33 118q-14 -4 -28.5 -5t-26.5 -1zM547 406q4 0 6 1t6 1q10 2 20.5 4t24.5 2q4 31 8 61.5t4 61.5v28q-57 -74 -69 -159zM567 279q0 2 2 4q0 -2 2 -2zM567 705q2 -2 6 -3l-4 -2q-2 2 -2 5zM580 268 q41 -84 108 -118q41 -16 82 -21.5t76 -1.5q37 6 76 24.5t69.5 48t49 68.5t14.5 88q-2 41 -28 78t-60 51q-29 12 -62 13q-47 0 -92 -23q-16 -6 -31.5 -12t-31.5 -12q-33 -12 -66 -24.5t-66 -20.5q-8 -35 -17 -70t-21 -68zM604 412v2h2zM605 842q2 -2 8 -2q-6 0 -8 2zM613 840 q2 -2 8 -2q-6 0 -8 2zM616 406l2 2v-2h-2zM650 856h20q6 0 10 2q-4 0 -12 -1t-18 -1z" />
<glyph unicode="&#xd5;" d="M14 180q0 53 11.5 119t40.5 139l2 4q-27 35 -41 82q-2 4 -2 11.5v13.5q0 53 43 80.5t104 27.5h12q68 78 140.5 116t134.5 38q117 0 127 -117q23 -18 31 -41.5t12 -58.5l8 8q49 47 109.5 69.5t125.5 22.5q16 0 38 -2t38 -6q82 -10 156 -55t135 -101q68 -57 139.5 -105 t149.5 -77q49 -23 108 -22q35 0 70 9t63 27q49 29 79 60t40 43l6 6l4 -4q-6 -6 -12 -13.5l-14 -17.5l-14 -14q-16 -16 -35 -32.5t-45 -33.5q-68 -41 -144 -41q-33 0 -61.5 7.5t-52.5 17.5q-80 35 -155 82t-134 100q-61 53 -132 98.5t-151 55.5q-37 6 -71 6q-61 0 -121 -20.5 t-113 -67.5l-14 -14q2 -10 2 -21.5v-21.5q0 -29 -3 -60t-10 -59q31 8 67 20.5t65 24.5q14 6 31.5 12t31.5 12q45 20 88 21q35 0 70 -12q39 -16 65.5 -55.5t30.5 -84.5q4 -53 -14.5 -95t-51 -72.5t-72.5 -50t-79 -23.5t-80 2t-82 22q-37 18 -65.5 47t-51.5 64 q-18 -43 -36.5 -83t-40.5 -75q-45 -68 -99.5 -122t-111.5 -81h2q8 -2 24 -2q41 0 83 19.5t78 49.5t61.5 63.5t33.5 62.5l15 -4q-10 -31 -36 -67t-63 -66.5t-82 -51t-90 -20.5q-33 0 -51 8q-25 -6 -47 -6q-45 0 -84 27.5t-74 89.5q-14 29 -26.5 76t-12.5 112zM29 170 q2 -59 13 -103t26 -69q29 -59 65.5 -84t77.5 -25q14 0 25 2q-63 37 -88 102.5t-25 137.5q0 39 6 76q23 88 57 168q-57 12 -98 47q-20 -39 -35 -94q-20 -74 -24 -158zM39 549q0 -17 2 -21q4 -18 12 -35.5t21 -31.5q23 55 47 100t47 82q-55 0 -92 -25.5t-37 -68.5zM94 438 q18 -16 44 -29.5t52 -19.5q31 57 67 107.5t77 99.5q-29 16 -58.5 27.5t-58.5 15.5q-12 -14 -25.5 -30.5t-21.5 -30.5q-25 -33 -42.5 -67t-33.5 -73zM150 104q0 -59 25.5 -116.5t84.5 -89.5q55 18 113.5 72t105.5 132q23 37 45.5 79t38.5 85q-10 25 -17 64t-7 65h-19 q12 -31 15.5 -64.5t-11.5 -68.5q-2 -2 -2 -4l-2 -4t-3 -5t-3 -5q-4 -6 -6 3t-5 23.5t-4 29.5t-1 24q10 16 10 34.5t-6 38.5h-4q-25 4 -45 21q-6 -4 -17.5 -9.5t-17.5 -9.5q-41 -20 -94.5 -28.5t-98.5 -1.5q-14 -29 -32.5 -74t-28.5 -78q-6 -27 -10 -56.5t-4 -56.5zM190 387 v2h3zM229 653q29 -6 59.5 -18.5t57.5 -26.5q16 20 42 44t55.5 40.5t61.5 22.5t62 -10q-8 45 -34.5 65.5t-61.5 20.5q-33 0 -76 -17q-45 -16 -85 -48t-81 -73zM236 383q43 -10 90 0t88 29h-2q8 4 14 8t14 8q-12 12 -21 29.5t-13 34.5q-4 10 -5.5 23.5t0.5 27.5q-16 12 -30 26 q-76 -84 -135 -186zM369 571h4l-2 -2zM381 578v4q0 -2 2 -2zM383 580q2 -4 10 -9q2 -4 8 -10q4 18 12.5 35.5t18.5 30.5q2 2 0 2l-24.5 -24.5zM410 535q0 -29 11 -55.5t28 -45.5q4 4 9 6t9 6l6 7q-16 23 -30.5 43t-32.5 39zM410 557q20 -18 40.5 -44t34.5 -48q39 41 63.5 94 t22.5 105v12q-29 10 -53 3t-49 -24q-14 -8 -31 -34q-10 -12 -17 -30t-11 -34zM444.5 869q-6.5 9 3.5 15h-2q27 23 54 23q25 0 40 -11.5t27 -21.5q10 -10 18.5 -16.5t14.5 -6.5q10 0 20.5 5.5t28.5 21.5q10 10 10 -8q0 -16 -8 -25.5t-19 -14.5t-21.5 -7t-12.5 -2 q-27 0 -38 10t-21 20q-8 10 -17.5 17.5t-25.5 7.5q-18 0 -35 -8h2q-12 -8 -18.5 1zM461 424q17 -12 35 -14l-6.5 13l-8.5 17q-12 -12 -20 -16zM473 453l4 2l-2 -4q-2 0 -2 2zM479 444l4 -2l-2 -2q-2 0 -2 4zM494 451q4 -8 12 -20.5t12 -22.5q4 -2 10.5 -2h10.5q6 47 27.5 93 t49.5 81q-2 23 -7 43t-15 39v-3l-6 7v-2q0 -59 -24.5 -114.5t-69.5 -98.5zM547 395q0 -27 5 -58.5t17 -53.5q20 59 33 118q-14 -4 -28.5 -5t-26.5 -1zM547 406q4 0 6 1t6 1q10 2 20.5 4t24.5 2q4 31 8 61.5t4 61.5v28q-57 -74 -69 -159zM567 279q0 2 2 4q0 -2 2 -2zM567 705 q2 -2 6 -3l-4 -2q-2 2 -2 5zM580 268q41 -84 108 -118q41 -16 82 -21.5t76 -1.5q37 6 76 24.5t69.5 48t49 68.5t14.5 88q-2 41 -28 78t-60 51q-29 12 -62 13q-47 0 -92 -23q-16 -6 -31.5 -12t-31.5 -12q-33 -12 -66 -24.5t-66 -20.5q-8 -35 -17 -70t-21 -68zM604 412v2h2z M616 406l2 2v-2h-2z" />
<glyph unicode="&#xd6;" d="M14 180q0 53 11.5 119t40.5 139l2 4q-27 35 -41 82q-2 4 -2 11.5v13.5q0 53 43 80.5t104 27.5h12q68 78 140.5 116t134.5 38q117 0 127 -117q23 -18 31 -41.5t12 -58.5l8 8q49 47 109.5 69.5t125.5 22.5q16 0 38 -2t38 -6q82 -10 156 -55t135 -101q68 -57 139.5 -105 t149.5 -77q49 -23 108 -22q35 0 70 9t63 27q49 29 79 60t40 43l6 6l4 -4q-6 -6 -12 -13.5l-14 -17.5l-14 -14q-16 -16 -35 -32.5t-45 -33.5q-68 -41 -144 -41q-33 0 -61.5 7.5t-52.5 17.5q-80 35 -155 82t-134 100q-61 53 -132 98.5t-151 55.5q-37 6 -71 6q-61 0 -121 -20.5 t-113 -67.5l-14 -14q2 -10 2 -21.5v-21.5q0 -29 -3 -60t-10 -59q31 8 67 20.5t65 24.5q14 6 31.5 12t31.5 12q45 20 88 21q35 0 70 -12q39 -16 65.5 -55.5t30.5 -84.5q4 -53 -14.5 -95t-51 -72.5t-72.5 -50t-79 -23.5t-80 2t-82 22q-37 18 -65.5 47t-51.5 64 q-18 -43 -36.5 -83t-40.5 -75q-45 -68 -99.5 -122t-111.5 -81h2q8 -2 24 -2q41 0 83 19.5t78 49.5t61.5 63.5t33.5 62.5l15 -4q-10 -31 -36 -67t-63 -66.5t-82 -51t-90 -20.5q-33 0 -51 8q-25 -6 -47 -6q-45 0 -84 27.5t-74 89.5q-14 29 -26.5 76t-12.5 112zM29 170 q2 -59 13 -103t26 -69q29 -59 65.5 -84t77.5 -25q14 0 25 2q-63 37 -88 102.5t-25 137.5q0 39 6 76q23 88 57 168q-57 12 -98 47q-20 -39 -35 -94q-20 -74 -24 -158zM39 549q0 -17 2 -21q4 -18 12 -35.5t21 -31.5q23 55 47 100t47 82q-55 0 -92 -25.5t-37 -68.5zM94 438 q18 -16 44 -29.5t52 -19.5q31 57 67 107.5t77 99.5q-29 16 -58.5 27.5t-58.5 15.5q-12 -14 -25.5 -30.5t-21.5 -30.5q-25 -33 -42.5 -67t-33.5 -73zM150 104q0 -59 25.5 -116.5t84.5 -89.5q55 18 113.5 72t105.5 132q23 37 45.5 79t38.5 85q-10 25 -17 64t-7 65h-19 q12 -31 15.5 -64.5t-11.5 -68.5q-2 -2 -2 -4l-2 -4t-3 -5t-3 -5q-4 -6 -6 3t-5 23.5t-4 29.5t-1 24q10 16 10 34.5t-6 38.5h-4q-25 4 -45 21q-6 -4 -17.5 -9.5t-17.5 -9.5q-41 -20 -94.5 -28.5t-98.5 -1.5q-14 -29 -32.5 -74t-28.5 -78q-6 -27 -10 -56.5t-4 -56.5zM190 387 v2h3zM229 653q29 -6 59.5 -18.5t57.5 -26.5q16 20 42 44t55.5 40.5t61.5 22.5t62 -10q-8 45 -34.5 65.5t-61.5 20.5q-33 0 -76 -17q-45 -16 -85 -48t-81 -73zM236 383q43 -10 90 0t88 29h-2q8 4 14 8t14 8q-12 12 -21 29.5t-13 34.5q-4 10 -5.5 23.5t0.5 27.5q-16 12 -30 26 q-76 -84 -135 -186zM369 571h4l-2 -2zM381 578v4q0 -2 2 -2zM383 580q2 -4 10 -9q2 -4 8 -10q4 18 12.5 35.5t18.5 30.5q2 2 0 2l-24.5 -24.5zM410 535q0 -29 11 -55.5t28 -45.5q4 4 9 6t9 6l6 7q-16 23 -30.5 43t-32.5 39zM410 557q20 -18 40.5 -44t34.5 -48q39 41 63.5 94 t22.5 105v12q-29 10 -53 3t-49 -24q-14 -8 -31 -34q-10 -12 -17 -30t-11 -34zM461 424q17 -12 35 -14l-6.5 13l-8.5 17q-12 -12 -20 -16zM473 453l4 2l-2 -4q-2 0 -2 2zM479 444l4 -2l-2 -2q-2 0 -2 4zM494 451q4 -8 12 -20.5t12 -22.5q4 -2 10.5 -2h10.5q6 47 27.5 93 t49.5 81q-2 23 -7 43t-15 39v-3l-6 7v-2q0 -59 -24.5 -114.5t-69.5 -98.5zM497 816q1 5 7 22q4 10 9 25.5t5 31.5q2 6 11.5 18.5t18.5 23.5t17 17t8 0q0 -4 -1 -6t-1 -6v-12q-4 -37 -22.5 -62.5t-36.5 -42.5q-16 -14 -15 -9zM547 395q0 -27 5 -58.5t17 -53.5q20 59 33 118 q-14 -4 -28.5 -5t-26.5 -1zM547 406q4 0 6 1t6 1q10 2 20.5 4t24.5 2q4 31 8 61.5t4 61.5v28q-57 -74 -69 -159zM558 816q1 5 7 22q4 10 9.5 25.5t5.5 31.5q2 6 11 18.5t18 23.5t17.5 17t8.5 0q0 -4 -1 -6t-1 -6v-12q-4 -37 -22.5 -62.5t-37.5 -42.5q-16 -14 -15 -9z M567 279q0 2 2 4q0 -2 2 -2zM567 705q2 -2 6 -3l-4 -2q-2 2 -2 5zM580 268q41 -84 108 -118q41 -16 82 -21.5t76 -1.5q37 6 76 24.5t69.5 48t49 68.5t14.5 88q-2 41 -28 78t-60 51q-29 12 -62 13q-47 0 -92 -23q-16 -6 -31.5 -12t-31.5 -12q-33 -12 -66 -24.5t-66 -20.5 q-8 -35 -17 -70t-21 -68zM604 412v2h2zM616 406l2 2v-2h-2z" />
<glyph unicode="&#xd7;" horiz-adv-x="1705" />
<glyph unicode="&#xd8;" d="M12 180q0 53 11.5 119t39.5 139l3 4q-27 35 -41 82q-2 4 -2 11.5v13.5q0 53 43 80.5t106 27.5h12q68 78 140.5 116t134.5 38q23 0 45 -6q23 39 43 65.5t37 42.5l20 -18q-6 0 -10 -6q-27 -27 -64 -94q47 -31 54 -101q23 -25 34 -65.5t11 -91.5q0 -117 -38 -232t-97 -213 q-45 -68 -99.5 -122t-111.5 -81h2q8 -2 24 -2q41 0 83 19.5t77 49.5t60.5 63.5t33.5 62.5l15 -4q-10 -31 -36 -67t-63 -66.5t-81 -51t-89 -20.5q-33 0 -51 8q-25 -6 -47 -6q-49 0 -88 29q-4 -6 -4 -11.5t-2 -9.5q0 -2 -1 -4t-1 -4l-23 4q4 10 6 15.5t4 9.5q0 4 7 10 q-27 25 -58 78q-14 29 -26.5 76t-12.5 112zM27 170q2 -59 13.5 -103t25.5 -69q20 -43 49 -68q6 16 12 34t16 38q-20 59 -20 127q0 41 6 78q23 88 57 168q-29 6 -54.5 18.5t-45.5 28.5q-20 -39 -35 -94q-20 -74 -24 -158zM37 549q0 -17 2 -21q4 -18 12 -35.5t21 -31.5 q23 55 48 100t48 82q-57 0 -94 -25.5t-37 -68.5zM92 438q20 -16 46 -29.5t52 -19.5q31 57 67 107.5t77 99.5q-29 16 -58.5 27.5t-58.5 15.5q-12 -14 -25.5 -30.5t-21.5 -30.5q-47 -62 -78 -140zM113 -74l2 4l2 -2zM129 -82q18 -12 40 -20.5t42 -8.5q6 0 10 -1t12 1 q-29 16 -47 39t-32 47l-4 -8q-6 -14 -13.5 -25.5t-7.5 -23.5zM150 102q0 -16 1 -33.5t5 -33.5q10 29 22 57.5t25 61.5q20 51 40.5 103t45.5 108h-10h-26.5t-27.5 4q-14 -29 -32.5 -74t-28.5 -78q-6 -29 -10 -58.5t-4 -56.5zM154 31q0 2 2 4q0 -2 1 -2t1 -2h-4zM166 4 q12 -29 35.5 -58.5t58.5 -47.5q55 18 113.5 72.5t105.5 131.5q59 94 97 209t38 226q0 31 -3 62.5t-19 59.5l-6 7v-2q0 -59 -24.5 -114.5t-67.5 -98.5q18 -27 29.5 -59t11.5 -66q0 -16 -2.5 -31.5t-10.5 -32.5q-2 -2 -2 -4l-2 -4q0 -2 -4 -10q-4 -6 -6 3t-5 23.5t-4 29.5 t-1 24q12 18 11 38.5t-9 43.5q-4 10 -8.5 16t-10.5 18q-12 -10 -29.5 -20t-33.5 -21h2q-16 -10 -37 -17t-41 -11q-23 -47 -46.5 -97.5t-49.5 -101.5q-18 -39 -40 -83t-40 -85zM190 387v2h3zM229 653q29 -6 59.5 -18t57.5 -27q16 20 41 43t53 41v-2q14 27 26.5 49.5 t27.5 44.5q-23 4 -46.5 1t-52.5 -11q-41 -16 -84 -48t-82 -73zM236 383q12 -2 31.5 -3t29.5 -1q4 8 8 18.5t8 18.5q14 35 31.5 73.5t34.5 71.5l-8 8q-76 -84 -135 -186zM348 387q16 4 32.5 10t33.5 15q29 18 59 41q-14 23 -30.5 44t-32.5 38q-4 -12 -9.5 -24.5t-9.5 -23.5 q-8 -16 -15 -33.5t-14 -33.5v-2q-12 -18 -14 -31zM383 580l2 -2l4 8zM418 551q16 -16 34.5 -40t32.5 -46q37 41 61.5 94t22.5 105v12q-29 8 -53 1t-51 -24v2q-12 -27 -24.5 -53.5t-22.5 -50.5zM494 713q35 10 73 -11q-8 53 -47 74q-2 -4 -2 -8t-2 -8q-4 -12 -9 -23.5 t-13 -23.5zM567 700v2h2z" />
<glyph unicode="&#xd9;" horiz-adv-x="878" d="M14 311q0 123 50.5 208t128 138.5t171 79t179.5 29.5q41 43 57 58.5t37 15.5q27 0 27 -27q0 -23 -28 -42t-81 -21q-10 -10 -20.5 -23.5t-20.5 -26.5q-6 -6 -8 -10q90 -18 178 -62t166 -98q16 14 39.5 27.5t46.5 24.5h-2q14 18 33 32q6 6 17 13.5t17 3.5h-2q8 -4 9 -19v-6 q16 6 41 10q31 6 69 7q63 0 120.5 -19.5t96.5 -64.5q23 -27 35 -61t12 -70q0 -41 -19.5 -77t-62.5 -59q-41 -23 -77 -22q-33 0 -64 13t-60.5 33.5t-55 45.5t-50.5 49q-14 14 -25.5 26.5t-23.5 22.5q-35 -59 -78 -116.5t-73 -98.5q-4 -8 -9.5 -13t-11.5 -13q39 -57 107.5 -91 t130.5 -45q14 -4 29.5 -4h31.5q66 0 125 20.5t114.5 53.5t106.5 76t101 86q12 10 24 23.5t25 27.5q35 39 78 75t102 36q23 0 43 -15.5t33 -35.5q66 -4 119 -39t100 -80q51 -49 110.5 -88t137.5 -33q70 12 134 47t99 96q27 41 44.5 88t17.5 95q0 43 -17 86q-23 47 -65.5 89 t-96.5 58q-61 14 -125.5 -4.5t-101.5 -65.5l-4 4q35 49 101.5 67.5t129.5 6.5q63 -16 105.5 -59t64.5 -90q18 -47 19 -92q0 -51 -18.5 -99.5t-43.5 -89.5q-86 -127 -243 -149q-43 -4 -78 5t-65.5 26.5t-57.5 42t-53 48.5q-45 43 -95.5 79t-111.5 40q10 -27 10 -39 q0 -27 -26.5 -29.5t-40.5 9.5q-16 16 -10.5 35.5t24.5 27.5q14 6 29 7q-10 18 -29 30.5t-41 12.5q-53 0 -93 -33t-77 -74q-14 -16 -26.5 -29.5t-26.5 -27.5q-47 -43 -99.5 -86t-109 -77t-117.5 -54.5t-129 -20.5h-30.5t-28.5 4q-70 12 -137.5 46t-104.5 93q-2 -2 -3 -4 t-3 -4q-16 -31 -27.5 -64.5t-11.5 -56.5q0 -78 57 -77q16 2 39 14t45 41l12 -10q-27 -33 -54 -47.5t-52 -14.5q-29 0 -44 13.5t-22.5 31t-8.5 31.5t-1 16v14.5t2 14.5q0 4 1 9t1 14q-10 -10 -20.5 -22.5t-20.5 -22.5q-53 -59 -111.5 -81t-117.5 -22q-35 0 -73 10.5t-68.5 36 t-51 69.5t-20.5 109q0 68 20.5 133.5t56.5 128t82 123t97 115.5q-14 2 -26.5 3t-26.5 1q-61 0 -124 -19.5t-112 -56.5q-63 -59 -106 -140t-43 -175q4 -23 16 -42t27 -36q14 -16 24.5 -33.5t7.5 -42.5q-33 14 -51 39t-27.5 49.5t-11.5 45t-2 30.5zM256 672q74 29 162 28 q14 0 29.5 -1t29.5 -3q4 6 12.5 14.5l14.5 14.5l24 25q-74 -4 -142.5 -21.5t-129.5 -56.5zM260 160q0 -6 1 -12.5t1 -12.5v-14q2 -33 20.5 -57.5t46 -42t58.5 -25.5t57 -8q80 0 135.5 40.5t118.5 110.5q4 35 14.5 67t22.5 66q-16 76 18.5 141.5t88.5 108.5q-74 53 -163 96.5 t-177 65.5q-41 -53 -84 -117.5t-78 -134.5t-57.5 -139.5t-22.5 -132.5zM528 750l4 4l3 -4h-7zM569 766q41 2 59.5 18.5t20.5 28.5q-4 8 -12 12q-10 2 -21.5 -8t-19.5 -18q-8 -10 -13 -16.5t-14 -16.5zM739 285q0 2 1 4t1 4q0 -2 1 -4t1 -4h-4zM741 293q23 59 54.5 112.5 t66.5 102.5q-8 4 -12 8q-115 -98 -109 -223zM750 831v4q0 4 12 4q25 0 42 -6l34 -12q14 -6 27.5 -10t29.5 -4q8 0 25 4q6 2 20 2q6 0 6 -8q0 -2 -12 -11.5t-68 -9.5q-31 0 -59.5 9.5t-56.5 37.5zM762 215l2 2q2 0 2 -4zM764 217q43 55 86 118.5t74 121.5q-11 10 -27 22 q-35 -59 -69.5 -128.5t-63.5 -133.5zM853 521q-5 -3 3 1q2 -2 10 -6l4 -6q10 12 19.5 24.5t19.5 22.5q-2 -2 -3 -2t-3 -2q-4 -4 -15 -10t-20.5 -12.5t-14.5 -9.5zM870 510h2h-2zM905 487q8 -8 17 -12h-2q4 -2 4 -4t4 -4q23 41 38 72.5t23 52.5l-4 -2q-4 -2 -10 -3t-14 -5h2 q-12 -16 -26.5 -41t-31.5 -54zM928 465v2h2zM946 453q4 -6 20.5 -21.5t20.5 -19.5l51.5 -51.5t56 -48t61.5 -35t67 -13.5q33 0 71 17q41 20 60.5 55t19.5 72q0 70 -51 127q-35 43 -90 60t-111 17q-36 0 -73 -6q-12 -2 -22.5 -4t-18.5 -6q-4 -29 -21.5 -65.5t-40.5 -77.5z M973 598l18 6v-2q2 4 2 14q-4 -2 -14 -12l-4 -4q-2 -2 -1 0t-1 -2zM1006 596l2 2v-2h-2zM1772.5 368.5q-5.5 -16.5 9.5 -26.5q12 -10 28.5 -7t20.5 21q0 18 -16 39q-10 0 -27 -4q-10 -6 -15.5 -22.5z" />
<glyph unicode="&#xda;" horiz-adv-x="878" d="M14 311q0 123 50.5 208t128 138.5t171 79t179.5 29.5q41 43 57 58.5t37 15.5q27 0 27 -27q0 -23 -28 -42t-81 -21q-10 -10 -20.5 -23.5t-20.5 -26.5q-6 -6 -8 -10q90 -18 178 -62t166 -98q16 14 39.5 27.5t46.5 24.5h-2q14 18 33 32q6 6 17 13.5t17 3.5h-2q8 -4 9 -19v-6 q16 6 41 10q31 6 69 7q63 0 120.5 -19.5t96.5 -64.5q23 -27 35 -61t12 -70q0 -41 -19.5 -77t-62.5 -59q-41 -23 -77 -22q-33 0 -64 13t-60.5 33.5t-55 45.5t-50.5 49q-14 14 -25.5 26.5t-23.5 22.5q-35 -59 -78 -116.5t-73 -98.5q-4 -8 -9.5 -13t-11.5 -13q39 -57 107.5 -91 t130.5 -45q14 -4 29.5 -4h31.5q66 0 125 20.5t114.5 53.5t106.5 76t101 86q12 10 24 23.5t25 27.5q35 39 78 75t102 36q23 0 43 -15.5t33 -35.5q66 -4 119 -39t100 -80q51 -49 110.5 -88t137.5 -33q70 12 134 47t99 96q27 41 44.5 88t17.5 95q0 43 -17 86q-23 47 -65.5 89 t-96.5 58q-61 14 -125.5 -4.5t-101.5 -65.5l-4 4q35 49 101.5 67.5t129.5 6.5q63 -16 105.5 -59t64.5 -90q18 -47 19 -92q0 -51 -18.5 -99.5t-43.5 -89.5q-86 -127 -243 -149q-43 -4 -78 5t-65.5 26.5t-57.5 42t-53 48.5q-45 43 -95.5 79t-111.5 40q10 -27 10 -39 q0 -27 -26.5 -29.5t-40.5 9.5q-16 16 -10.5 35.5t24.5 27.5q14 6 29 7q-10 18 -29 30.5t-41 12.5q-53 0 -93 -33t-77 -74q-14 -16 -26.5 -29.5t-26.5 -27.5q-47 -43 -99.5 -86t-109 -77t-117.5 -54.5t-129 -20.5h-30.5t-28.5 4q-70 12 -137.5 46t-104.5 93q-2 -2 -3 -4 t-3 -4q-16 -31 -27.5 -64.5t-11.5 -56.5q0 -78 57 -77q16 2 39 14t45 41l12 -10q-27 -33 -54 -47.5t-52 -14.5q-29 0 -44 13.5t-22.5 31t-8.5 31.5t-1 16v14.5t2 14.5q0 4 1 9t1 14q-10 -10 -20.5 -22.5t-20.5 -22.5q-53 -59 -111.5 -81t-117.5 -22q-35 0 -73 10.5t-68.5 36 t-51 69.5t-20.5 109q0 68 20.5 133.5t56.5 128t82 123t97 115.5q-14 2 -26.5 3t-26.5 1q-61 0 -124 -19.5t-112 -56.5q-63 -59 -106 -140t-43 -175q4 -23 16 -42t27 -36q14 -16 24.5 -33.5t7.5 -42.5q-33 14 -51 39t-27.5 49.5t-11.5 45t-2 30.5zM256 672q74 29 162 28 q14 0 29.5 -1t29.5 -3q4 6 12.5 14.5l14.5 14.5l24 25q-74 -4 -142.5 -21.5t-129.5 -56.5zM260 160q0 -6 1 -12.5t1 -12.5v-14q2 -33 20.5 -57.5t46 -42t58.5 -25.5t57 -8q80 0 135.5 40.5t118.5 110.5q4 35 14.5 67t22.5 66q-16 76 18.5 141.5t88.5 108.5q-74 53 -163 96.5 t-177 65.5q-41 -53 -84 -117.5t-78 -134.5t-57.5 -139.5t-22.5 -132.5zM528 750l4 4l3 -4h-7zM569 766q41 2 59.5 18.5t20.5 28.5q-4 8 -12 12q-10 2 -21.5 -8t-19.5 -18q-8 -10 -13 -16.5t-14 -16.5zM739 285q0 2 1 4t1 4q0 -2 1 -4t1 -4h-4zM741 293q23 59 54.5 112.5 t66.5 102.5q-8 4 -12 8q-115 -98 -109 -223zM750 801q0 8 6 8q14 0 20 -2q16 -4 25 -4q16 0 29.5 4t27.5 10q16 6 33.5 12.5t42.5 6.5q12 0 12 -5v-4q-29 -29 -57.5 -38t-59.5 -9q-55 0 -67 9.5t-12 11.5zM762 215l2 2q2 0 2 -4zM764 217q43 55 86 118.5t74 121.5 q-11 10 -27 22q-35 -59 -69.5 -128.5t-63.5 -133.5zM853 521q-5 -3 3 1q2 -2 10 -6l4 -6q10 12 19.5 24.5t19.5 22.5q-2 -2 -3 -2t-3 -2q-4 -4 -15 -10t-20.5 -12.5t-14.5 -9.5zM870 510h2h-2zM905 487q8 -8 17 -12h-2q4 -2 4 -4t4 -4q23 41 38 72.5t23 52.5l-4 -2 q-4 -2 -10 -3t-14 -5h2q-12 -16 -26.5 -41t-31.5 -54zM928 465v2h2zM946 453q4 -6 20.5 -21.5t20.5 -19.5l51.5 -51.5t56 -48t61.5 -35t67 -13.5q33 0 71 17q41 20 60.5 55t19.5 72q0 70 -51 127q-35 43 -90 60t-111 17q-36 0 -73 -6q-12 -2 -22.5 -4t-18.5 -6 q-4 -29 -21.5 -65.5t-40.5 -77.5zM973 598l18 6v-2q2 4 2 14q-4 -2 -14 -12l-4 -4q-2 -2 -1 0t-1 -2zM1006 596l2 2v-2h-2zM1772.5 368.5q-5.5 -16.5 9.5 -26.5q12 -10 28.5 -7t20.5 21q0 18 -16 39q-10 0 -27 -4q-10 -6 -15.5 -22.5z" />
<glyph unicode="&#xdb;" horiz-adv-x="878" d="M14 311q0 123 50.5 208t128 138.5t171 79t179.5 29.5q41 43 57 58.5t37 15.5q27 0 27 -27q0 -23 -28 -42t-81 -21q-10 -10 -20.5 -23.5t-20.5 -26.5q-6 -6 -8 -10q90 -18 178 -62t166 -98q16 14 39.5 27.5t46.5 24.5h-2q14 18 33 32q6 6 17 13.5t17 3.5h-2q8 -4 9 -19v-6 q16 6 41 10q31 6 69 7q63 0 120.5 -19.5t96.5 -64.5q23 -27 35 -61t12 -70q0 -41 -19.5 -77t-62.5 -59q-41 -23 -77 -22q-33 0 -64 13t-60.5 33.5t-55 45.5t-50.5 49q-14 14 -25.5 26.5t-23.5 22.5q-35 -59 -78 -116.5t-73 -98.5q-4 -8 -9.5 -13t-11.5 -13q39 -57 107.5 -91 t130.5 -45q14 -4 29.5 -4h31.5q66 0 125 20.5t114.5 53.5t106.5 76t101 86q12 10 24 23.5t25 27.5q35 39 78 75t102 36q23 0 43 -15.5t33 -35.5q66 -4 119 -39t100 -80q51 -49 110.5 -88t137.5 -33q70 12 134 47t99 96q27 41 44.5 88t17.5 95q0 43 -17 86q-23 47 -65.5 89 t-96.5 58q-61 14 -125.5 -4.5t-101.5 -65.5l-4 4q35 49 101.5 67.5t129.5 6.5q63 -16 105.5 -59t64.5 -90q18 -47 19 -92q0 -51 -18.5 -99.5t-43.5 -89.5q-86 -127 -243 -149q-43 -4 -78 5t-65.5 26.5t-57.5 42t-53 48.5q-45 43 -95.5 79t-111.5 40q10 -27 10 -39 q0 -27 -26.5 -29.5t-40.5 9.5q-16 16 -10.5 35.5t24.5 27.5q14 6 29 7q-10 18 -29 30.5t-41 12.5q-53 0 -93 -33t-77 -74q-14 -16 -26.5 -29.5t-26.5 -27.5q-47 -43 -99.5 -86t-109 -77t-117.5 -54.5t-129 -20.5h-30.5t-28.5 4q-70 12 -137.5 46t-104.5 93q-2 -2 -3 -4 t-3 -4q-16 -31 -27.5 -64.5t-11.5 -56.5q0 -78 57 -77q16 2 39 14t45 41l12 -10q-27 -33 -54 -47.5t-52 -14.5q-29 0 -44 13.5t-22.5 31t-8.5 31.5t-1 16v14.5t2 14.5q0 4 1 9t1 14q-10 -10 -20.5 -22.5t-20.5 -22.5q-53 -59 -111.5 -81t-117.5 -22q-35 0 -73 10.5t-68.5 36 t-51 69.5t-20.5 109q0 68 20.5 133.5t56.5 128t82 123t97 115.5q-14 2 -26.5 3t-26.5 1q-61 0 -124 -19.5t-112 -56.5q-63 -59 -106 -140t-43 -175q4 -23 16 -42t27 -36q14 -16 24.5 -33.5t7.5 -42.5q-33 14 -51 39t-27.5 49.5t-11.5 45t-2 30.5zM256 672q74 29 162 28 q14 0 29.5 -1t29.5 -3q4 6 12.5 14.5l14.5 14.5l24 25q-74 -4 -142.5 -21.5t-129.5 -56.5zM260 160q0 -6 1 -12.5t1 -12.5v-14q2 -33 20.5 -57.5t46 -42t58.5 -25.5t57 -8q80 0 135.5 40.5t118.5 110.5q4 35 14.5 67t22.5 66q-16 76 18.5 141.5t88.5 108.5q-74 53 -163 96.5 t-177 65.5q-41 -53 -84 -117.5t-78 -134.5t-57.5 -139.5t-22.5 -132.5zM528 750l4 4l3 -4h-7zM569 766q41 2 59.5 18.5t20.5 28.5q-4 8 -12 12q-10 2 -21.5 -8t-19.5 -18q-8 -10 -13 -16.5t-14 -16.5zM721 835q2 -2 9 -5t11 -5l12 -6q12 -2 23.5 2t23.5 8t24.5 8t27.5 4h4 q16 -6 23 -13t18 -17q10 -10 19 -17.5t20 -11.5h2q-20 -4 -38 -7t-7 -7q-12 4 -23.5 13t-21.5 30q-23 -16 -44.5 -18.5t-37.5 1.5q-29 6 -41.5 22.5t-3.5 18.5zM739 285q0 2 1 4t1 4q0 -2 1 -4t1 -4h-4zM741 293q23 59 54.5 112.5t66.5 102.5q-8 4 -12 8q-115 -98 -109 -223 zM762 215l2 2q2 0 2 -4zM764 217q43 55 86 118.5t74 121.5q-11 10 -27 22q-35 -59 -69.5 -128.5t-63.5 -133.5zM853 521q-5 -3 3 1q2 -2 10 -6l4 -6q10 12 19.5 24.5t19.5 22.5q-2 -2 -3 -2t-3 -2q-4 -4 -15 -10t-20.5 -12.5t-14.5 -9.5zM870 510h2h-2zM893 768q2 -2 8 -2 q-6 0 -8 2zM901 766q2 -2 8 -2q-6 0 -8 2zM905 487q8 -8 17 -12h-2q4 -2 4 -4t4 -4q23 41 38 72.5t23 52.5l-4 -2q-4 -2 -10 -3t-14 -5h2q-12 -16 -26.5 -41t-31.5 -54zM928 465v2h2zM938 782h20q6 0 10 2q-4 0 -12 -1t-18 -1zM946 453q4 -6 20.5 -21.5t20.5 -19.5 l51.5 -51.5t56 -48t61.5 -35t67 -13.5q33 0 71 17q41 20 60.5 55t19.5 72q0 70 -51 127q-35 43 -90 60t-111 17q-36 0 -73 -6q-12 -2 -22.5 -4t-18.5 -6q-4 -29 -21.5 -65.5t-40.5 -77.5zM973 598l18 6v-2q2 4 2 14q-4 -2 -14 -12l-4 -4q-2 -2 -1 0t-1 -2zM1006 596l2 2v-2 h-2zM1772.5 368.5q-5.5 -16.5 9.5 -26.5q12 -10 28.5 -7t20.5 21q0 18 -16 39q-10 0 -27 -4q-10 -6 -15.5 -22.5z" />
<glyph unicode="&#xdc;" horiz-adv-x="878" d="M14 311q0 123 50.5 208t128 138.5t171 79t179.5 29.5q41 43 57 58.5t37 15.5q27 0 27 -27q0 -23 -28 -42t-81 -21q-10 -10 -20.5 -23.5t-20.5 -26.5q-6 -6 -8 -10q90 -18 178 -62t166 -98q16 14 39.5 27.5t46.5 24.5h-2q14 18 33 32q6 6 17 13.5t17 3.5h-2q8 -4 9 -19v-6 q16 6 41 10q31 6 69 7q63 0 120.5 -19.5t96.5 -64.5q23 -27 35 -61t12 -70q0 -41 -19.5 -77t-62.5 -59q-41 -23 -77 -22q-33 0 -64 13t-60.5 33.5t-55 45.5t-50.5 49q-14 14 -25.5 26.5t-23.5 22.5q-35 -59 -78 -116.5t-73 -98.5q-4 -8 -9.5 -13t-11.5 -13q39 -57 107.5 -91 t130.5 -45q14 -4 29.5 -4h31.5q66 0 125 20.5t114.5 53.5t106.5 76t101 86q12 10 24 23.5t25 27.5q35 39 78 75t102 36q23 0 43 -15.5t33 -35.5q66 -4 119 -39t100 -80q51 -49 110.5 -88t137.5 -33q70 12 134 47t99 96q27 41 44.5 88t17.5 95q0 43 -17 86q-23 47 -65.5 89 t-96.5 58q-61 14 -125.5 -4.5t-101.5 -65.5l-4 4q35 49 101.5 67.5t129.5 6.5q63 -16 105.5 -59t64.5 -90q18 -47 19 -92q0 -51 -18.5 -99.5t-43.5 -89.5q-86 -127 -243 -149q-43 -4 -78 5t-65.5 26.5t-57.5 42t-53 48.5q-45 43 -95.5 79t-111.5 40q10 -27 10 -39 q0 -27 -26.5 -29.5t-40.5 9.5q-16 16 -10.5 35.5t24.5 27.5q14 6 29 7q-10 18 -29 30.5t-41 12.5q-53 0 -93 -33t-77 -74q-14 -16 -26.5 -29.5t-26.5 -27.5q-47 -43 -99.5 -86t-109 -77t-117.5 -54.5t-129 -20.5h-30.5t-28.5 4q-70 12 -137.5 46t-104.5 93q-2 -2 -3 -4 t-3 -4q-16 -31 -27.5 -64.5t-11.5 -56.5q0 -78 57 -77q16 2 39 14t45 41l12 -10q-27 -33 -54 -47.5t-52 -14.5q-29 0 -44 13.5t-22.5 31t-8.5 31.5t-1 16v14.5t2 14.5q0 4 1 9t1 14q-10 -10 -20.5 -22.5t-20.5 -22.5q-53 -59 -111.5 -81t-117.5 -22q-35 0 -73 10.5t-68.5 36 t-51 69.5t-20.5 109q0 68 20.5 133.5t56.5 128t82 123t97 115.5q-14 2 -26.5 3t-26.5 1q-61 0 -124 -19.5t-112 -56.5q-63 -59 -106 -140t-43 -175q4 -23 16 -42t27 -36q14 -16 24.5 -33.5t7.5 -42.5q-33 14 -51 39t-27.5 49.5t-11.5 45t-2 30.5zM256 672q74 29 162 28 q14 0 29.5 -1t29.5 -3q4 6 12.5 14.5l14.5 14.5l24 25q-74 -4 -142.5 -21.5t-129.5 -56.5zM260 160q0 -6 1 -12.5t1 -12.5v-14q2 -33 20.5 -57.5t46 -42t58.5 -25.5t57 -8q80 0 135.5 40.5t118.5 110.5q4 35 14.5 67t22.5 66q-16 76 18.5 141.5t88.5 108.5q-74 53 -163 96.5 t-177 65.5q-41 -53 -84 -117.5t-78 -134.5t-57.5 -139.5t-22.5 -132.5zM528 750l4 4l3 -4h-7zM569 766q41 2 59.5 18.5t20.5 28.5q-4 8 -12 12q-10 2 -21.5 -8t-19.5 -18q-8 -10 -13 -16.5t-14 -16.5zM739 285q0 2 1 4t1 4q0 -2 1 -4t1 -4h-4zM741 293q23 59 54.5 112.5 t66.5 102.5q-8 4 -12 8q-115 -98 -109 -223zM762 215l2 2q2 0 2 -4zM764 217q43 55 86 118.5t74 121.5q-11 10 -27 22q-35 -59 -69.5 -128.5t-63.5 -133.5zM788 749q1 5 7 22q4 10 9 25.5t5 31.5q2 6 11.5 18.5t18.5 23.5t17 17t8 0q0 -4 -1 -6t-1 -6v-12 q-4 -37 -22.5 -62.5t-36.5 -42.5q-16 -14 -15 -9zM849 749q1 5 7 22q4 10 9.5 25.5t5.5 31.5q2 6 11 18.5t18 23.5t17.5 17t8.5 0q0 -4 -1 -6t-1 -6v-12q-4 -37 -22.5 -62.5t-37.5 -42.5q-16 -14 -15 -9zM853 521q-5 -3 3 1q2 -2 10 -6l4 -6q10 12 19.5 24.5t19.5 22.5 q-2 -2 -3 -2t-3 -2q-4 -4 -15 -10t-20.5 -12.5t-14.5 -9.5zM870 510h2h-2zM905 487q8 -8 17 -12h-2q4 -2 4 -4t4 -4q23 41 38 72.5t23 52.5l-4 -2q-4 -2 -10 -3t-14 -5h2q-12 -16 -26.5 -41t-31.5 -54zM928 465v2h2zM946 453q4 -6 20.5 -21.5t20.5 -19.5l51.5 -51.5t56 -48 t61.5 -35t67 -13.5q33 0 71 17q41 20 60.5 55t19.5 72q0 70 -51 127q-35 43 -90 60t-111 17q-36 0 -73 -6q-12 -2 -22.5 -4t-18.5 -6q-4 -29 -21.5 -65.5t-40.5 -77.5zM973 598l18 6v-2q2 4 2 14q-4 -2 -14 -12l-4 -4q-2 -2 -1 0t-1 -2zM1006 596l2 2v-2h-2zM1772.5 368.5 q-5.5 -16.5 9.5 -26.5q12 -10 28.5 -7t20.5 21q0 18 -16 39q-10 0 -27 -4q-10 -6 -15.5 -22.5z" />
<glyph unicode="&#xdd;" horiz-adv-x="821" d="M10 317q0 57 17.5 114.5t44.5 103.5q57 92 141 143q43 29 93 46t102 26q63 12 129 16l9 9t7 9q16 18 35.5 37t44.5 19q27 0 26 -27q0 -20 -23.5 -41.5t-76.5 -21.5h-12q-27 -33 -61.5 -79t-69.5 -99.5t-68.5 -113t-56.5 -118.5q-4 -10 -4 -9t-2 -7q18 31 51 54t71.5 40.5 t79.5 27t78 11.5q2 49 13.5 96t31.5 88q43 86 131 135t183 49q35 0 68.5 -6t64.5 -20q53 -25 100 -75t68 -108q10 -35 10 -63q0 -53 -23.5 -99t-64.5 -71q-45 -29 -98 -29q-82 0 -129 54q-4 0 -7.5 -2.5t-7.5 -2.5q-29 -49 -67.5 -106t-79.5 -109q-10 -16 -21.5 -35.5 t-17.5 -31.5q0 2 -6 -10.5t-8 -16.5q37 -37 81.5 -64.5t95 -45t102.5 -24.5t101 -1q61 6 124 24.5t119 48t104.5 70.5t85.5 95q12 16 24 31.5t23 31.5q23 35 49 67.5t55 59.5q31 29 75 49.5t89 20.5t88 -19q35 -16 76 -55t45 -102q4 -53 -24.5 -106.5t-65.5 -84.5 q-35 -29 -74 -37t-74 0v4q29 -4 66 5.5t76 39.5q41 33 64.5 81t19.5 98q-4 59 -42 95t-77 52q-37 14 -80 14q-41 0 -80 -15t-68 -48q-29 -27 -52 -58.5t-44 -60.5q-14 -20 -29.5 -38.5t-31.5 -39.5q-37 -49 -87 -90t-108.5 -70.5t-121 -49t-122.5 -25.5q-49 -4 -103 3 t-105.5 24.5t-98.5 44t-82 61.5q-4 -4 -6 -8q-47 -78 -96 -156t-104 -162q-29 -43 -57.5 -85t-57.5 -87v2q-2 -4 -5 -9t-5 -9q-16 -25 -45 -52.5t-82 -35.5q-4 -2 -11.5 -2h-13.5t0 7t16.5 16t22.5 18.5t20 11.5q23 -2 43.5 13.5t34.5 33.5q66 113 132.5 227.5t131.5 229.5 q-2 0 -2 -1t-2 -1h2q-2 -2 -10 -6h2q-43 -33 -87 -46.5t-87 -13.5q-80 0 -131 37h2q-25 12 -44 41t-23 49q-14 55 -15 115q0 45 8 78q35 135 114 249.5t177 215.5q-18 0 -24 -2q-59 -8 -132 -30t-133 -63q-66 -39 -123 -107.5t-77 -164.5v-10q-2 -12 -3 -25.5t-1 -38.5 q4 -23 13 -44t28 -32q4 -6 9 -18t9 -25.5t5 -23.5t-1 -10q-2 2 -10 6q-10 4 -12 10v-2q-33 27 -45.5 64.5t-12.5 82.5zM264 211q-2 -39 2 -78t31 -77t68 -48q41 -14 86 -14q72 0 139 37h-2q27 20 53 47l8 10l17 29q-2 4 -4.5 6t-4.5 6l-12 25v-2q-35 61 -56.5 141t-23.5 151 q-41 -2 -82 -11t-79.5 -26.5t-70.5 -42t-50 -59.5q-4 -4 -9 -20q-8 -35 -10 -74zM270 287q2 14 6 18l5 -2q-2 -4 -2 -6q-2 -4 -3 -4v-2l-2 -4h-4zM563 766q45 2 63.5 18.5t18.5 28.5t-12 12q-14 0 -27.5 -12t-25.5 -27q-4 -4 -8.5 -11t-8.5 -9zM575 444q2 -72 21.5 -146.5 t54.5 -129.5q6 -12 9.5 -18.5t7.5 -10.5q0 -4 6 -10q4 8 9 16.5t11 18.5t12.5 20.5t12.5 20.5q29 53 59.5 107.5t59.5 101.5h-2q-25 4 -49.5 7t-49.5 7q-39 6 -76.5 10t-78.5 6h-7zM575 457h7q45 0 89 -6.5t85 -14.5l80 -12v-2q0 -2 2 -2h4q4 4 8 12t8 14l23 43q0 10 3 25.5 t11 26.5l4 -2q-8 -14 -8 -31q8 16 12 20q2 2 5 7.5t5 9.5q2 2 2 3t3 3h-3q-4 -4 -8 -6t-6 -4l-4 4q10 16 31 22q18 31 20 32t8 7t9 10v2q4 4 16 12.5t20 -5.5v2q2 -2 3 -15q0 -6 -5.5 -21.5t-11.5 -31.5q8 -8 17 -24q8 -29 2.5 -56.5t-27.5 -46.5l-4 4q16 18 24.5 45 t-2.5 47q-2 14 -14 21q-12 -29 -27.5 -61.5t-37.5 -67.5q0 2 6 -4q6 0 15 1t15 5v-4q-8 -4 -14 -5t-10 -3h-2q53 -47 116 -48q51 0 95 29q41 29 62.5 71t21.5 91q0 35 -9 61q-18 59 -62 105.5t-103 68.5q-59 25 -125 25q-92 0 -176 -46t-125 -128q-23 -41 -33 -89t-15 -93z M744 811q0 8 6 8q14 0 20 -2q16 -4 25 -4q16 0 29.5 4t27.5 10q16 6 33.5 12.5t42.5 6.5q12 0 12 -5v-4q-29 -29 -57.5 -38t-59.5 -9q-55 0 -67 9.5t-12 11.5zM780 244q8 12 17 20q-4 -6 -6.5 -11t-6.5 -11zM797 264q53 74 94 144q-18 0 -25 2q-4 -8 -8 -18.5t-8 -20.5 q-12 -27 -25.5 -52.5t-27.5 -54.5zM868 416q4 0 6.5 -1t6.5 -1h14q4 4 4 7t4 7q-2 2 -8 18v-2q-4 8 -6 17q-14 -27 -21 -45zM887 465h4l-2 -4q-2 0 -2 4zM895 471q0 -4 3 -10l5 -10q0 -2 2 -7q2 -4 2 -6t2 -4q23 39 38.5 68.5t25.5 52.5q-6 2 -17.5 3t-15.5 1q-4 -4 -6 -10 t-6 -10l-13 -25v2q-2 -4 -4 -9t-4 -9q2 4 -3 -8.5t-9 -18.5zM913 412v2q0 2 2 2h-2q-2 -2 0 -4zM948 571q10 0 27 -6q10 33 8 47q-2 0 -10 -8q-6 -6 -6 -8v-2q-4 -4 -5 -7t-6 -7q-4 -4 -5 -4.5t-3 -4.5zM954 420q-2 0 9 6l6 6l4 -4q-4 -4 -19 -8zM1720 80l6 4q4 -4 14.5 -9 t22.5 -9v-5q-23 2 -32 13h2q-4 0 -9 4q-2 2 -4 2zM1763 61v5h11q4 0 6 -1.5t6 -1.5q2 0 3 -1t3 -1q8 -4 12 -4v-4q-4 0 -5 1t-5 1z" />
<glyph unicode="&#xe0;" horiz-adv-x="378" d="M-29 104q0 39 14.5 84t43.5 86q27 39 58.5 68t65 46.5t65.5 21.5t56 -9q39 -25 29 -86q10 23 18.5 36.5t12.5 23.5q8 16 14 35q2 4 4 -6.5t3 -27t-1 -34.5t-8 -31q-12 -20 -29.5 -54t-36 -68.5t-35 -66.5t-22.5 -50q-4 -8 -8 -25q-2 -10 1 -20.5t11 -14.5q8 0 20.5 4 t30 17.5t42 39t55.5 68.5q6 6 13 5t3 -9q-12 -18 -25.5 -35.5t-23.5 -33.5q-23 -25 -51.5 -47.5t-57.5 -22.5q-22 2 -30 12q-10 10 -13.5 26.5t7.5 51.5q-45 -63 -93.5 -87t-89.5 1q-43 31 -43 102zM18 100q0 -57 33 -77q37 -23 77 15t87 109q10 16 25.5 44t23.5 45 q27 57 27 98q0 37 -25 51q-35 20 -91 -17.5t-103 -107.5q-25 -39 -39.5 -83t-14.5 -77zM191 524v4q0 4 12 4q25 0 42 -6l34 -12q14 -6 27.5 -10t29.5 -4q8 0 25 4q6 2 20 2q6 0 6 -8q0 -2 -12 -11.5t-68 -9.5q-31 0 -59.5 9.5t-56.5 37.5z" />
</font>
</defs>
</svg>
